<svg width="217" height="92" viewBox="0 0 217 92" fill="none" xmlns="http://www.w3.org/2000/svg">
<path d="M87.6414 35.5812C87.6414 35.5812 87.7022 35.7943 87.8136 36.2104C87.9149 36.6265 88.077 37.2456 88.2492 38.0676C88.5936 39.7015 89.019 42.1169 89.1609 45.2326C89.1811 45.6182 89.1912 46.0242 89.2014 46.4301C89.2115 46.8462 89.1912 47.2623 89.1912 47.6885C89.1912 47.9017 89.1912 48.1249 89.1811 48.3381C89.171 48.5613 89.1811 48.7846 89.1609 49.0079C89.1305 49.4646 89.1001 49.9212 89.0798 50.3881C89.0697 50.6215 89.0494 50.8651 89.0393 51.0985C89.0089 51.3421 88.9886 51.5755 88.9583 51.819C88.8975 52.3062 88.8468 52.8035 88.7861 53.3109C88.6139 54.3156 88.472 55.3609 88.2188 56.4164C88.0061 57.4921 87.7022 58.5679 87.3983 59.6842C87.216 60.2323 87.0438 60.8006 86.8513 61.3689C86.7703 61.6531 86.6588 61.9373 86.5474 62.2113C86.436 62.4954 86.3347 62.7796 86.2233 63.0638C85.3319 65.3472 84.2075 67.6814 82.8096 69.9851C81.4117 72.2889 79.7403 74.5622 77.7752 76.7137C75.8202 78.8652 73.5815 80.9051 71.0694 82.742C68.5674 84.5687 65.7918 86.1925 62.8036 87.5119C59.8052 88.821 56.6043 89.8258 53.2615 90.455C53.0488 90.4956 52.8462 90.5362 52.6335 90.5768L52.3195 90.6376L52.0054 90.6782C51.58 90.7391 51.1545 90.8 50.7291 90.8609L50.0909 90.9523L49.4528 91.0132C49.0273 91.0537 48.5918 91.0943 48.1663 91.1248L47.8422 91.1552L47.518 91.1654L46.8697 91.1857C46.4341 91.206 45.9986 91.2161 45.563 91.2364C45.1274 91.2364 44.6918 91.2263 44.2563 91.2263L43.6181 91.2161H43.294L42.9597 91.1958C42.514 91.1654 42.0683 91.1451 41.6226 91.1146C41.3997 91.1045 41.1769 91.0943 40.954 91.074L40.2956 91.003C39.86 90.9523 39.4143 90.9015 38.9787 90.8508C38.7559 90.8305 38.5432 90.7899 38.3203 90.7594L37.6619 90.6478L37.0035 90.5362C36.7806 90.4956 36.5578 90.4651 36.3451 90.4144C35.9095 90.323 35.4739 90.2215 35.0383 90.1302L34.3799 89.9881L33.7316 89.8156C33.296 89.6938 32.8605 89.5822 32.4249 89.4706C32.2122 89.4198 31.9994 89.3386 31.7766 89.2676L31.1283 89.0545L30.4901 88.8413L30.166 88.7398C30.0546 88.6992 29.9533 88.6587 29.852 88.6181C29.4265 88.4557 29.0112 88.2933 28.5858 88.1411C28.373 88.0599 28.1603 87.9889 27.9577 87.8975L27.3297 87.6235C26.9144 87.4408 26.4991 87.2581 26.0838 87.0755C25.6786 86.8725 25.2734 86.6695 24.8581 86.4666L24.2503 86.1621C24.0477 86.0606 23.8451 85.9388 23.6526 85.8373L22.4574 85.1675C22.2548 85.0559 22.0623 84.9341 21.8698 84.8123L21.2924 84.447L20.7151 84.0816L20.4213 83.8989L20.1377 83.7061C19.3881 83.1885 18.6182 82.6811 17.899 82.1026C17.5344 81.8185 17.1697 81.5546 16.8152 81.2603L15.7617 80.3672C15.5895 80.215 15.4071 80.0729 15.2349 79.9207L14.7285 79.4538L13.7155 78.51C12.4189 77.2008 11.1426 75.8713 10.0081 74.4201L9.57248 73.8822L9.35976 73.6184L9.15717 73.3443L8.3468 72.228C8.06317 71.8626 7.82006 71.4668 7.56682 71.0913C7.31358 70.7057 7.06034 70.3302 6.81723 69.9344C4.8926 66.7985 3.33264 63.4494 2.20826 59.9684C1.10413 56.4874 0.415314 52.9049 0.141815 49.3225C0.0911665 48.8759 0.0911665 48.4294 0.0709073 47.9828C0.0405185 47.5668 0.0202592 47.1202 0 46.6737C0 46.6229 0 46.6737 0 46.5417V46.4606V46.2982V45.9836L0.0101296 45.3442L0.0202592 44.7048C0.0202592 44.4917 0.0202592 44.2887 0.0405185 44.0553C0.0709073 43.5986 0.0911665 43.1521 0.121555 42.6954C0.131685 42.4721 0.151944 42.2489 0.162074 42.0154C0.172203 41.7922 0.212722 41.579 0.232981 41.3558C0.334277 40.483 0.415314 39.6102 0.567258 38.7476C1.11426 35.297 2.05631 31.9581 3.31238 28.8222C4.57859 25.6862 6.17906 22.7736 7.99226 20.1146C9.81559 17.4557 11.8618 15.0606 14.0498 12.9497C16.2378 10.8388 18.5575 9.01201 20.9278 7.46941C23.2981 5.92682 25.709 4.66838 28.0894 3.66366C28.3832 3.54188 28.6871 3.4201 28.9808 3.29831C29.1328 3.23742 29.2746 3.17653 29.4164 3.11564C29.4873 3.08519 29.5683 3.05475 29.6392 3.0243L29.8824 2.93296C30.4699 2.71984 31.0574 2.51687 31.6348 2.31389C32.2122 2.12107 32.7997 1.95869 33.3669 1.78616C33.9342 1.60349 34.5015 1.4817 35.0687 1.33962C36.183 1.04531 37.2871 0.852487 38.3507 0.649514C38.8775 0.558176 39.4042 0.497284 39.9208 0.416095C40.174 0.3755 40.4374 0.345054 40.6805 0.314608C40.9338 0.284162 41.187 0.263865 41.4301 0.243568C41.9265 0.202973 42.4127 0.15223 42.8989 0.111635C43.142 0.0811893 43.375 0.0811893 43.608 0.0710406C43.841 0.0608919 44.0739 0.0507433 44.3069 0.0405946C44.5399 0.030446 44.7628 0.0202973 44.9856 0.0202973C45.097 0.0202973 45.2085 0.0101487 45.3199 0.0101487L45.482 0H45.5225C45.5427 0 45.5225 0 45.5833 0H45.6643C45.8669 0 46.0695 0 46.2721 0C46.4949 0 46.7076 0 46.9204 0.0101487C50.253 0.0608919 52.8462 0.446541 54.5986 0.771298C55.4799 0.933676 56.1484 1.07576 56.5941 1.17724C57.0398 1.28888 57.2728 1.33962 57.2728 1.33962C58.9847 1.74557 60.0382 3.46069 59.633 5.17581C59.2278 6.89094 57.5159 7.9464 55.804 7.54045C55.7838 7.5303 55.7534 7.5303 55.7331 7.52015L55.6825 7.49986C55.6825 7.49986 55.4799 7.44911 55.095 7.34763C54.6999 7.23599 54.1326 7.09391 53.3729 6.93153C52.6132 6.76915 51.6813 6.59663 50.5772 6.4444C50.02 6.36321 49.4224 6.30232 48.7842 6.23128C48.146 6.17038 47.4572 6.11964 46.7482 6.08919C46.576 6.08919 46.3936 6.07904 46.2113 6.0689C46.0087 6.0689 45.8061 6.05875 45.6035 6.05875C45.2287 6.05875 44.8438 6.0689 44.4487 6.0689C44.2462 6.0689 44.0436 6.0689 43.841 6.07904C43.6384 6.07904 43.4256 6.07904 43.2231 6.09934C42.8077 6.12979 42.3823 6.15009 41.9467 6.18053C41.734 6.20083 41.5112 6.20083 41.2883 6.23128C41.0654 6.25157 40.8426 6.28202 40.6197 6.30232C40.174 6.35306 39.7081 6.39365 39.2421 6.46469C38.3102 6.62707 37.3479 6.74886 36.3653 6.99242C35.869 7.09391 35.3726 7.1954 34.8661 7.33748C34.3596 7.47956 33.8532 7.60134 33.3366 7.75357C32.8301 7.91595 32.3033 8.08848 31.7766 8.25086L31.574 8.31175C31.5132 8.33205 31.4423 8.36249 31.3815 8.38279C31.2499 8.43353 31.1283 8.48428 30.9966 8.53502C30.7332 8.63651 30.4699 8.73799 30.2065 8.82933C28.0995 9.66152 25.9318 10.7068 23.8046 12.0059C21.6774 13.3049 19.5704 14.8678 17.5749 16.6844C15.5793 18.501 13.6851 20.5916 11.9935 22.9258C10.3018 25.26 8.7925 27.8276 7.57695 30.6083C6.37153 33.3891 5.4396 36.3728 4.85208 39.4884C4.67988 40.2597 4.59884 41.0513 4.47729 41.8429C4.4469 42.0459 4.41651 42.2387 4.39625 42.4315L4.35573 43.0202C4.31522 43.416 4.28483 43.8016 4.24431 44.1873C4.22405 44.3801 4.21392 44.5932 4.20379 44.8063L4.18353 45.4457L4.16327 46.085L4.15314 46.3997L4.14301 46.562V46.6432C4.14301 46.562 4.14301 46.6635 4.14301 46.6635C4.14301 47.0695 4.15314 47.4754 4.15314 47.8814C4.16327 48.2873 4.15314 48.7034 4.18353 49.1094C4.33547 52.3772 4.87234 55.6654 5.79414 58.8825C6.73619 62.0895 8.08343 65.2153 9.78521 68.1584C9.99793 68.5237 10.2309 68.8789 10.4538 69.2443C10.6766 69.5995 10.8893 69.975 11.1426 70.32L11.8719 71.3755L12.0542 71.6394L12.2467 71.8931L12.6316 72.4005C13.6446 73.7706 14.7892 75.0493 15.9643 76.2874L16.8759 77.1907L17.3318 77.6474C17.4938 77.7894 17.6458 77.9315 17.8079 78.0736L18.76 78.9261C19.0842 79.2103 19.4286 79.464 19.7527 79.738C20.4112 80.286 21.1101 80.7833 21.7989 81.2907L22.0623 81.4836L22.3257 81.6662L22.8625 82.0214L23.3994 82.3766C23.5716 82.4984 23.7539 82.6202 23.9363 82.7217L25.0404 83.3814C25.2227 83.4828 25.4051 83.6046 25.5975 83.7061L26.1648 84.0004C26.5396 84.2034 26.9245 84.3962 27.2993 84.5992C27.6842 84.7819 28.0692 84.9646 28.4541 85.1472L29.0315 85.4212C29.2239 85.5126 29.4265 85.5836 29.619 85.675C30.014 85.8373 30.4091 85.9997 30.794 86.1621C30.8953 86.2027 30.9865 86.2433 31.0878 86.2839L31.3917 86.3955L31.9893 86.6086L32.587 86.8217C32.7896 86.8928 32.982 86.974 33.1846 87.0247C33.5898 87.1465 33.995 87.2683 34.4002 87.3901L35.0079 87.5728L35.6258 87.725C36.0412 87.8265 36.4463 87.928 36.8515 88.0294C37.0541 88.0802 37.2668 88.1208 37.4694 88.1614L38.0873 88.2832L38.7052 88.4049C38.9078 88.4455 39.1206 88.4861 39.3232 88.5166C39.7385 88.5775 40.1538 88.6384 40.5691 88.6891L41.187 88.7804C41.3997 88.8007 41.6023 88.821 41.8049 88.8413C42.2202 88.8819 42.6254 88.9124 43.0407 88.953L43.3446 88.9834L43.6688 88.9936L44.3069 89.024C44.7222 89.0443 45.1376 89.0545 45.5529 89.0748C45.9682 89.0748 46.3835 89.0646 46.7887 89.0646L47.4066 89.0545H47.7206L48.0245 89.0342C48.4398 89.0139 48.845 88.9834 49.2603 88.9631L49.8782 88.9225L50.486 88.8515C50.8912 88.8109 51.2964 88.7601 51.7015 88.7196L52.0054 88.6891L52.3093 88.6384L52.907 88.5369C56.1181 88.0193 59.2177 87.1465 62.1249 85.9693C65.0321 84.7819 67.7468 83.29 70.2083 81.5952C72.68 79.8902 74.9085 77.9823 76.8635 75.9322C78.8286 73.8924 80.5203 71.7206 81.9486 69.5081C83.3768 67.2957 84.5519 65.0427 85.4838 62.8303C85.5952 62.5563 85.7168 62.2722 85.8282 61.9981C85.9396 61.7241 86.0612 61.4501 86.1524 61.1761C86.3448 60.6281 86.5373 60.08 86.7297 59.5422C87.064 58.4461 87.3983 57.3907 87.6313 56.3453C87.9149 55.3 88.077 54.275 88.2694 53.2906C88.3404 52.7933 88.4113 52.3062 88.4822 51.819C88.5126 51.5755 88.5429 51.3421 88.5835 51.1086C88.6138 50.8752 88.624 50.6418 88.6442 50.4084C88.6848 49.9415 88.7253 49.4849 88.7658 49.0485C88.7962 48.8252 88.7861 48.6019 88.7962 48.3888C88.8063 48.1655 88.8164 47.9524 88.8266 47.7393C88.8367 47.313 88.8671 46.8868 88.8671 46.4809C88.8772 46.0749 88.8671 45.6791 88.8671 45.2833C88.8164 42.1778 88.4518 39.7523 88.158 38.1184C88.0061 37.2963 87.8643 36.6772 87.7731 36.251C87.6921 35.7943 87.6414 35.5812 87.6414 35.5812Z" fill="#FDBE2C"/>
<path d="M15.3555 40.2886V36.2678H16.0636C18.1678 36.2678 19.8539 35.7897 21.1219 34.8333C22.3898 33.8769 23.2059 32.6444 23.57 31.1358H27.4143V60.4732H22.1133V40.2886H15.3555Z" fill="#C70917"/>
<path d="M36.3977 52.068C36.3977 51.0039 36.5259 50.0206 36.7822 49.1181C37.0384 48.2156 37.4229 47.3872 37.9354 46.6329C38.4615 45.8786 39.0482 45.1984 39.6957 44.5922C40.3432 43.9861 41.1187 43.3597 42.0225 42.7132C41.2941 41.5009 40.7276 40.3896 40.3229 39.3794C39.9183 38.3691 39.7159 37.332 39.7159 36.2678C39.7159 35.1498 39.9115 34.1665 40.3027 33.3179C40.7073 32.4693 41.2469 31.8093 41.9213 31.3379C42.5958 30.8529 43.3241 30.496 44.1065 30.267C44.8888 30.0245 45.7184 29.9033 46.5951 29.9033C48.2677 29.9033 49.7245 30.4623 50.9655 31.5803C52.2199 32.6849 52.8471 34.1665 52.8471 36.0254C52.8471 37.6014 52.4425 39.0224 51.6331 40.2886C50.8373 41.5413 49.738 42.5987 48.3352 43.4608L52.058 49.9263C52.3413 49.3336 52.5639 48.5254 52.7257 47.5017C52.8876 46.478 52.9685 45.4745 52.9685 44.4912H57.3995C57.3995 48.1685 56.5295 51.509 54.7895 54.5128L58.3505 60.4732H52.3818L51.3094 58.4932C50.3247 59.4361 49.2861 60.0961 48.1935 60.4732C47.101 60.8369 45.8195 61.0188 44.3493 61.0188C42.0832 61.0188 40.188 60.1634 38.6638 58.4528C37.1531 56.7421 36.3977 54.6138 36.3977 52.068ZM41.6178 51.9872C41.6178 53.1187 42.0023 54.1693 42.7711 55.1392C43.5534 56.0955 44.4977 56.5737 45.6037 56.5737C46.8177 56.5737 48.0182 56.0282 49.2052 54.9371L44.3897 46.734C43.7693 46.9495 43.1488 47.5624 42.5283 48.5726C41.9213 49.5694 41.6178 50.7076 41.6178 51.9872ZM44.4707 35.7627C44.4707 36.1803 44.5516 36.6113 44.7135 37.0558C44.8753 37.4869 45.1181 38.0122 45.4419 38.6318C45.7791 39.238 45.9814 39.6218 46.0488 39.7835C47.6 38.5712 48.3756 37.3589 48.3756 36.1466C48.3756 35.5001 48.1666 34.968 47.7484 34.5504C47.3438 34.1194 46.8851 33.9039 46.3726 33.9039C45.8195 33.9039 45.3609 34.052 44.9967 34.3484C44.646 34.6313 44.4707 35.1027 44.4707 35.7627Z" fill="#C70917"/>
<path d="M61.4866 40.2886V36.2678H62.1947C64.299 36.2678 65.985 35.7897 67.253 34.8333C68.5209 33.8769 69.337 32.6444 69.7012 31.1358H73.5454V60.4732H68.2444V40.2886H61.4866Z" fill="#C70917"/>
<path d="M67.0791 24.2182L72.0267 4.84961H77.0008L81.3283 24.2182H77.3174L76.407 19.1763H72.2114L71.0504 24.2182H67.0791ZM72.6732 16.3084H75.9453L74.4544 7.29851L72.6732 16.3084Z" fill="#C70917"/>
<path d="M82.9115 20.4597V9.57717H86.2363V20.1454C86.2363 20.7216 86.3727 21.1669 86.6453 21.4812C86.9268 21.7868 87.3226 21.9395 87.8328 21.9395C88.8971 21.9395 89.4292 21.3502 89.4292 20.1716V9.57717H92.754V24.2182H89.5875V22.7122C89.2357 23.3582 88.8223 23.8428 88.3473 24.1658C87.8724 24.4888 87.2874 24.6504 86.5926 24.6504C85.5019 24.6504 84.6135 24.3011 83.9274 23.6027C83.2502 22.9043 82.9115 21.8566 82.9115 20.4597Z" fill="#C70917"/>
<path d="M94.5088 12.1701V9.57717H95.9073V5.63535H99.2321V9.57717H100.749V12.1701H99.2321V20.355C99.2321 20.9137 99.3289 21.2978 99.5224 21.5074C99.7159 21.7082 100.125 21.8086 100.749 21.8086V24.2968C100.345 24.3666 99.7951 24.4015 99.1002 24.4015C96.9716 24.4015 95.9073 23.463 95.9073 21.586V12.1701H94.5088Z" fill="#C70917"/>
<path d="M102.491 19.8704V13.9773C102.491 13.3051 102.579 12.694 102.755 12.1439C102.94 11.5939 103.225 11.0919 103.612 10.6379C104.008 10.1839 104.554 9.83035 105.248 9.57717C105.952 9.32398 106.779 9.19739 107.729 9.19739C108.661 9.19739 109.475 9.32398 110.17 9.57717C110.865 9.83035 111.406 10.1839 111.793 10.6379C112.188 11.0919 112.479 11.5983 112.663 12.157C112.857 12.707 112.954 13.3138 112.954 13.9773V19.8704C112.954 20.5339 112.857 21.1451 112.663 21.7038C112.479 22.2538 112.188 22.7558 111.793 23.2098C111.406 23.6638 110.865 24.0174 110.17 24.2706C109.475 24.5238 108.661 24.6504 107.729 24.6504C106.779 24.6504 105.952 24.5238 105.248 24.2706C104.554 24.0174 104.008 23.6638 103.612 23.2098C103.225 22.7558 102.94 22.2538 102.755 21.7038C102.579 21.1538 102.491 20.5427 102.491 19.8704ZM105.948 20.3026C105.948 21.4637 106.555 22.0443 107.768 22.0443C108.349 22.0443 108.78 21.9177 109.061 21.6645C109.352 21.4026 109.497 20.9486 109.497 20.3026V13.5452C109.497 12.8991 109.347 12.4495 109.048 12.1963C108.749 11.9344 108.309 11.8034 107.729 11.8034C106.541 11.8034 105.948 12.384 105.948 13.5452V20.3026Z" fill="#C70917"/>
<path d="M121.727 20.1716V19.5037H124.973V20.3026C124.973 20.8962 125.123 21.3371 125.422 21.6252C125.729 21.9046 126.13 22.0443 126.622 22.0443C127.097 22.0443 127.489 21.9352 127.796 21.7169C128.113 21.4899 128.271 21.1451 128.271 20.6823C128.271 20.2982 128.148 19.9446 127.902 19.6216C127.656 19.2986 127.273 18.9712 126.754 18.6394L124.023 16.9239C122.545 15.9897 121.807 14.7194 121.807 13.113C121.807 11.8733 122.255 10.9129 123.152 10.232C124.058 9.54225 125.197 9.19739 126.569 9.19739C128.03 9.19739 129.199 9.60336 130.079 10.4153C130.959 11.2272 131.398 12.3666 131.398 13.8333V14.1345H128.153V13.7809C128.153 13.1523 128.008 12.6678 127.717 12.3273C127.436 11.9781 127.053 11.8034 126.569 11.8034C125.611 11.8034 125.131 12.24 125.131 13.113C125.131 13.4186 125.219 13.6892 125.395 13.925C125.571 14.1607 125.897 14.427 126.372 14.7238L128.694 16.1774C129.089 16.4219 129.437 16.6751 129.736 16.937C130.035 17.1902 130.334 17.5045 130.633 17.8799C130.941 18.2465 131.174 18.6743 131.332 19.1632C131.5 19.6434 131.583 20.1672 131.583 20.7347C131.583 21.3109 131.504 21.826 131.346 22.28C131.187 22.7253 130.963 23.0876 130.673 23.367C130.382 23.6376 130.075 23.8646 129.749 24.048C129.424 24.2313 129.05 24.3622 128.628 24.4408C128.205 24.5194 127.836 24.5718 127.519 24.598C127.203 24.6329 126.855 24.6504 126.477 24.6504C125.131 24.6504 124.001 24.2618 123.086 23.4848C122.18 22.6991 121.727 21.5947 121.727 20.1716Z" fill="#C70917"/>
<path d="M133.892 20.6038C133.892 19.364 134.182 18.3862 134.763 17.6703C135.352 16.9457 136.315 16.304 137.652 15.7453C138.048 15.5794 138.365 15.4441 138.602 15.3393C138.848 15.2258 139.121 15.0861 139.42 14.9202C139.719 14.7456 139.952 14.5797 140.119 14.4226C140.287 14.2654 140.427 14.0821 140.542 13.8726C140.665 13.6543 140.726 13.4273 140.726 13.1916C140.726 12.336 140.194 11.9082 139.13 11.9082C138.62 11.9082 138.202 12.0654 137.876 12.3797C137.56 12.694 137.401 13.161 137.401 13.7809V14.0821H134.169V13.3618C134.169 12.1832 134.631 11.1967 135.554 10.4022C136.487 9.59899 137.67 9.19739 139.103 9.19739C140.097 9.19739 140.964 9.32398 141.703 9.57717C142.45 9.82162 143.053 10.232 143.51 10.8082C143.976 11.3844 144.209 12.1003 144.209 12.9559V22.0705C144.209 22.6205 144.236 23.057 144.289 23.3801C144.35 23.7031 144.469 23.9825 144.645 24.2182H141.162C140.986 23.9475 140.898 23.4848 140.898 22.83C140.546 23.4412 140.128 23.8995 139.644 24.2051C139.169 24.5019 138.514 24.6504 137.679 24.6504C136.535 24.6504 135.616 24.3099 134.921 23.6289C134.235 22.9479 133.892 21.9395 133.892 20.6038ZM137.401 20.1454C137.401 20.7391 137.52 21.2236 137.758 21.599C137.995 21.9657 138.365 22.1491 138.866 22.1491C139.411 22.1491 139.856 21.9876 140.199 21.6645C140.55 21.3328 140.726 20.8526 140.726 20.224V16.6489L138.536 18.0501C138.149 18.3033 137.863 18.622 137.679 19.0061C137.494 19.3902 137.401 19.77 137.401 20.1454Z" fill="#C70917"/>
<path d="M146.901 24.2182V4.84961H150.226V24.2182H146.901Z" fill="#C70917"/>
<path d="M152.785 20.0014V13.8333C152.785 12.2443 153.238 11.0744 154.144 10.3236C155.059 9.5728 156.299 9.19739 157.865 9.19739C159.422 9.19739 160.658 9.57717 161.572 10.3367C162.487 11.0875 162.944 12.2531 162.944 13.8333V17.2513H156.11V20.4335C156.11 20.9574 156.264 21.359 156.572 21.6383C156.88 21.909 157.311 22.0443 157.865 22.0443C158.41 22.0443 158.837 21.9046 159.145 21.6252C159.461 21.3371 159.62 20.9399 159.62 20.4335V19.6085H162.944V20.0014C162.944 21.5816 162.487 22.7515 161.572 23.511C160.658 24.2706 159.422 24.6504 157.865 24.6504C156.308 24.6504 155.072 24.2749 154.157 23.5241C153.243 22.7646 152.785 21.5903 152.785 20.0014ZM156.11 14.8286H159.62V13.4142C159.62 12.9078 159.461 12.515 159.145 12.2356C158.837 11.9475 158.41 11.8034 157.865 11.8034C157.311 11.8034 156.88 11.9431 156.572 12.2225C156.264 12.4932 156.11 12.8904 156.11 13.4142V14.8286Z" fill="#C70917"/>
<path d="M165.24 20.1716V19.5037H168.486V20.3026C168.486 20.8962 168.635 21.3371 168.934 21.6252C169.242 21.9046 169.642 22.0443 170.135 22.0443C170.61 22.0443 171.001 21.9352 171.309 21.7169C171.626 21.4899 171.784 21.1451 171.784 20.6823C171.784 20.2982 171.661 19.9446 171.415 19.6216C171.169 19.2986 170.786 18.9712 170.267 18.6394L167.536 16.9239C166.058 15.9897 165.319 14.7194 165.319 13.113C165.319 11.8733 165.768 10.9129 166.665 10.232C167.571 9.54225 168.71 9.19739 170.082 9.19739C171.542 9.19739 172.712 9.60336 173.592 10.4153C174.471 11.2272 174.911 12.3666 174.911 13.8333V14.1345H171.666V13.7809C171.666 13.1523 171.52 12.6678 171.23 12.3273C170.949 11.9781 170.566 11.8034 170.082 11.8034C169.124 11.8034 168.644 12.24 168.644 13.113C168.644 13.4186 168.732 13.6892 168.908 13.925C169.084 14.1607 169.409 14.427 169.884 14.7238L172.206 16.1774C172.602 16.4219 172.95 16.6751 173.249 16.937C173.548 17.1902 173.847 17.5045 174.146 17.8799C174.454 18.2465 174.687 18.6743 174.845 19.1632C175.012 19.6434 175.096 20.1672 175.096 20.7347C175.096 21.3109 175.017 21.826 174.858 22.28C174.7 22.7253 174.476 23.0876 174.186 23.367C173.895 23.6376 173.587 23.8646 173.262 24.048C172.937 24.2313 172.563 24.3622 172.14 24.4408C171.718 24.5194 171.349 24.5718 171.032 24.598C170.716 24.6329 170.368 24.6504 169.99 24.6504C168.644 24.6504 167.514 24.2618 166.599 23.4848C165.693 22.6991 165.24 21.5947 165.24 20.1716Z" fill="#C70917"/>
<path d="M184.028 24.2182V9.57717H187.353V24.2182H184.028ZM184.028 8.14973V4.84961H187.353V8.14973H184.028Z" fill="#C70917"/>
<path d="M190.044 24.2182V9.57717H193.369V10.782C193.659 10.3542 194.051 9.98314 194.543 9.66884C195.036 9.35454 195.59 9.19739 196.206 9.19739C197.296 9.19739 198.18 9.53788 198.858 10.2189C199.544 10.8998 199.887 11.9388 199.887 13.3356V24.2182H196.562V13.7023C196.562 13.1436 196.417 12.707 196.127 12.3928C195.836 12.0697 195.432 11.9082 194.913 11.9082C194.447 11.9082 194.073 12.0697 193.791 12.3928C193.51 12.707 193.369 13.1436 193.369 13.7023V24.2182H190.044Z" fill="#C70917"/>
<path d="M202.446 20.5121V13.3356C202.446 12.1046 202.895 11.1094 203.792 10.3498C204.698 9.58153 205.872 9.19739 207.315 9.19739C207.869 9.19739 208.414 9.28033 208.951 9.44621C209.487 9.60336 209.98 9.83472 210.429 10.1403C210.877 10.4459 211.238 10.8518 211.51 11.3582C211.792 11.8646 211.933 12.432 211.933 13.0606V14.8809H208.608V13.2178C208.608 12.79 208.485 12.467 208.238 12.2487C207.992 12.0217 207.684 11.9082 207.315 11.9082C206.893 11.9082 206.55 12.0348 206.286 12.288C206.031 12.5412 205.903 12.9166 205.903 13.4142V20.4335C205.903 20.9312 206.031 21.3066 206.286 21.5598C206.55 21.8129 206.893 21.9395 207.315 21.9395C207.684 21.9395 207.992 21.8304 208.238 21.6121C208.485 21.3852 208.608 21.0578 208.608 20.63V18.5608H211.933V20.7871C211.933 21.4157 211.792 21.9832 211.51 22.4896C211.238 22.9959 210.877 23.4019 210.429 23.7075C209.98 24.013 209.487 24.2444 208.951 24.4015C208.414 24.5674 207.869 24.6504 207.315 24.6504C205.872 24.6504 204.698 24.2706 203.792 23.511C202.895 22.7427 202.446 21.7431 202.446 20.5121Z" fill="#C70917"/>
<path d="M213.621 24.2182V20.7871H216.999V24.2182H213.621Z" fill="#C70917"/>
</svg>
