<svg width="111" height="47" viewBox="0 0 111 47" fill="none" xmlns="http://www.w3.org/2000/svg">
<path d="M44.8304 18.2005C44.8304 18.2005 44.8615 18.3095 44.9185 18.5224C44.9703 18.7352 45.0532 19.0519 45.1413 19.4724C45.3175 20.3082 45.5351 21.5437 45.6076 23.1374C45.618 23.3347 45.6232 23.5423 45.6283 23.75C45.6335 23.9628 45.6232 24.1756 45.6232 24.3937C45.6232 24.5027 45.6232 24.6169 45.618 24.7259C45.6128 24.8401 45.618 24.9543 45.6076 25.0685C45.5921 25.3021 45.5765 25.5357 45.5662 25.7745C45.561 25.8939 45.5506 26.0185 45.5454 26.1379C45.5299 26.2625 45.5195 26.3819 45.504 26.5065C45.4729 26.7557 45.447 27.0101 45.4159 27.2696C45.3278 27.7836 45.2553 28.3183 45.1257 28.8581C45.0169 29.4084 44.8615 29.9587 44.706 30.5297C44.6128 30.8101 44.5247 31.1008 44.4262 31.3915C44.3848 31.5368 44.3278 31.6822 44.2708 31.8224C44.2138 31.9677 44.162 32.1131 44.105 32.2584C43.649 33.4264 43.0739 34.6204 42.3588 35.7988C41.6438 36.9773 40.7888 38.1401 39.7836 39.2406C38.7836 40.3412 37.6385 41.3846 36.3535 42.3242C35.0736 43.2587 33.6539 44.0893 32.1253 44.7641C30.5916 45.4338 28.9543 45.9477 27.2444 46.2696C27.1356 46.2904 27.0319 46.3111 26.9231 46.3319L26.7625 46.363L26.6019 46.3838C26.3842 46.4149 26.1666 46.4461 25.949 46.4772L25.6226 46.524L25.2961 46.5551C25.0785 46.5759 24.8557 46.5966 24.6381 46.6122L24.4723 46.6278L24.3064 46.633L23.9748 46.6434C23.752 46.6537 23.5292 46.6589 23.3064 46.6693C23.0836 46.6693 22.8608 46.6641 22.638 46.6641L22.3116 46.6589H22.1458L21.9748 46.6486C21.7468 46.633 21.5188 46.6226 21.2908 46.607C21.1768 46.6018 21.0628 46.5966 20.9488 46.5863L20.612 46.5499C20.3892 46.524 20.1612 46.498 19.9384 46.472C19.8244 46.4617 19.7156 46.4409 19.6016 46.4253L19.2648 46.3682L18.928 46.3111C18.8141 46.2904 18.7001 46.2748 18.5912 46.2488C18.3684 46.2021 18.1456 46.1502 17.9228 46.1035L17.586 46.0308L17.2544 45.9425C17.0316 45.8802 16.8088 45.8231 16.586 45.766C16.4772 45.7401 16.3684 45.6986 16.2544 45.6622L15.9228 45.5532L15.5963 45.4442L15.4305 45.3923C15.3735 45.3715 15.3217 45.3507 15.2699 45.33C15.0523 45.2469 14.8398 45.1639 14.6222 45.086C14.5134 45.0445 14.4046 45.0081 14.301 44.9614L13.9797 44.8212C13.7673 44.7278 13.5548 44.6343 13.3424 44.5409C13.1351 44.4371 12.9279 44.3333 12.7154 44.2294L12.4045 44.0737C12.3009 44.0218 12.1973 43.9595 12.0988 43.9076L11.4874 43.565C11.3838 43.5079 11.2853 43.4456 11.1869 43.3833L10.8915 43.1964L10.5962 43.0095L10.4459 42.916L10.3008 42.8174C9.9174 42.5527 9.52361 42.2931 9.15572 41.9972C8.96919 41.8518 8.78265 41.7169 8.6013 41.5663L8.06242 41.1095C7.97434 41.0316 7.88107 40.9589 7.79299 40.8811L7.53391 40.6423L7.01576 40.1595C6.35253 39.4898 5.69966 38.8098 5.11933 38.0674L4.89652 37.7923L4.78771 37.6573L4.68408 37.5171L4.26956 36.9461C4.12448 36.7592 4.00012 36.5568 3.87059 36.3647C3.74105 36.1674 3.61151 35.9753 3.48715 35.7729C2.50267 34.1688 1.70472 32.4557 1.12957 30.6751C0.564784 28.8945 0.212442 27.062 0.0725411 25.2295C0.0466336 25.0011 0.0466336 24.7726 0.0362705 24.5442C0.020726 24.3314 0.010363 24.103 0 23.8745C0 23.8486 0 23.8745 0 23.8071V23.7655V23.6825V23.5215L0.00518151 23.1945L0.010363 22.8674C0.010363 22.7584 0.010363 22.6546 0.020726 22.5352C0.0362705 22.3016 0.0466336 22.0732 0.0621781 21.8396C0.0673596 21.7254 0.0777226 21.6112 0.0829041 21.4918C0.0880856 21.3776 0.108812 21.2685 0.119175 21.1543C0.17099 20.7079 0.212442 20.2614 0.290164 19.8202C0.569966 18.0552 1.05185 16.3472 1.69435 14.7431C2.34204 13.139 3.16072 11.6492 4.08821 10.2891C5.02088 8.92895 6.06754 7.70381 7.18675 6.62403C8.30596 5.54425 9.49252 4.60983 10.705 3.82076C11.9175 3.03169 13.1507 2.38797 14.3683 1.87404C14.5186 1.81175 14.674 1.74945 14.8243 1.68716C14.902 1.65601 14.9746 1.62486 15.0471 1.59371C15.0834 1.57814 15.1248 1.56257 15.1611 1.54699L15.2854 1.50027C15.586 1.39125 15.8865 1.28743 16.1818 1.1836C16.4772 1.08497 16.7777 1.00191 17.0679 0.91366C17.358 0.820217 17.6482 0.757922 17.9384 0.685245C18.5083 0.534699 19.0731 0.436065 19.6172 0.33224C19.8866 0.285519 20.1561 0.254371 20.4203 0.212841C20.5499 0.192076 20.6846 0.176502 20.8089 0.160929C20.9385 0.145355 21.068 0.134972 21.1924 0.12459C21.4463 0.103825 21.695 0.0778687 21.9437 0.0571037C22.068 0.04153 22.1872 0.04153 22.3064 0.0363387C22.4256 0.0311475 22.5447 0.0259562 22.6639 0.020765C22.7831 0.0155737 22.8971 0.0103825 23.0111 0.0103825C23.0681 0.0103825 23.1251 0.00519125 23.1821 0.00519125L23.265 0H23.2857C23.2961 0 23.2857 0 23.3168 0H23.3582C23.4619 0 23.5655 0 23.6691 0C23.7831 0 23.8919 0 24.0007 0.00519125C25.7055 0.0311475 27.0319 0.228415 27.9283 0.394535C28.3791 0.477595 28.7211 0.550272 28.9491 0.602185C29.1771 0.659288 29.2962 0.685245 29.2962 0.685245C30.1719 0.892895 30.7108 1.77022 30.5035 2.64754C30.2963 3.52486 29.4206 4.06475 28.5449 3.8571C28.5346 3.85191 28.519 3.85191 28.5087 3.84671L28.4827 3.83633C28.4827 3.83633 28.3791 3.81038 28.1822 3.75846C27.9801 3.70136 27.69 3.62868 27.3014 3.54562C26.9127 3.46256 26.436 3.37431 25.8713 3.29644C25.5863 3.25491 25.2806 3.22376 24.9541 3.18743C24.6277 3.15628 24.2754 3.13032 23.9127 3.11475C23.8246 3.11475 23.7313 3.10956 23.638 3.10437C23.5344 3.10437 23.4308 3.09917 23.3271 3.09917C23.1354 3.09917 22.9385 3.10437 22.7365 3.10437C22.6328 3.10437 22.5292 3.10437 22.4256 3.10956C22.3219 3.10956 22.2131 3.10956 22.1095 3.11994C21.897 3.13551 21.6794 3.1459 21.4566 3.16147C21.3478 3.17185 21.2338 3.17185 21.1198 3.18743C21.0058 3.19781 20.8918 3.21338 20.7778 3.22376C20.5499 3.24972 20.3115 3.27049 20.0732 3.30682C19.5965 3.38988 19.1042 3.45218 18.6016 3.57677C18.3477 3.62868 18.0938 3.68059 17.8347 3.75327C17.5757 3.82595 17.3166 3.88824 17.0523 3.96611C16.7933 4.04917 16.5238 4.13742 16.2544 4.22048L16.1508 4.25163C16.1197 4.26201 16.0834 4.27759 16.0523 4.28797C15.9849 4.31393 15.9228 4.33988 15.8554 4.36584C15.7207 4.41775 15.586 4.46966 15.4513 4.51639C14.3735 4.94207 13.2647 5.47677 12.1765 6.14125C11.0884 6.80573 10.0107 7.60518 8.98991 8.53441C7.96916 9.46365 7.00022 10.533 6.1349 11.727C5.26959 12.921 4.49755 14.2344 3.87577 15.6568C3.25917 17.0792 2.78247 18.6054 2.48194 20.1991C2.39386 20.5937 2.3524 20.9986 2.29023 21.4035C2.27468 21.5073 2.25914 21.606 2.24877 21.7046L2.22805 22.0057C2.20732 22.2082 2.19178 22.4054 2.17105 22.6027C2.16069 22.7013 2.15551 22.8103 2.15033 22.9194L2.13996 23.2464L2.1296 23.5735L2.12442 23.7344L2.11924 23.8174V23.859C2.11924 23.8174 2.11924 23.8694 2.11924 23.8694C2.11924 24.077 2.12442 24.2847 2.12442 24.4923C2.1296 24.7 2.12442 24.9128 2.13996 25.1205C2.21768 26.792 2.4923 28.474 2.96382 30.1196C3.4457 31.7601 4.13484 33.359 5.00534 34.8644C5.11415 35.0513 5.23332 35.233 5.34731 35.4199C5.46131 35.6016 5.57012 35.7937 5.69966 35.9702L6.07273 36.51L6.16599 36.645L6.26444 36.7748L6.46134 37.0344C6.97949 37.7352 7.565 38.3893 8.16605 39.0226L8.63239 39.4846L8.86556 39.7182C8.94846 39.7909 9.02619 39.8636 9.10909 39.9363L9.59615 40.3723C9.76196 40.5177 9.93813 40.6475 10.1039 40.7876C10.4407 41.068 10.7983 41.3223 11.1506 41.5819L11.2853 41.6805L11.42 41.774L11.6947 41.9557L11.9693 42.1374C12.0574 42.1997 12.1506 42.2619 12.2439 42.3139L12.8087 42.6513C12.902 42.7032 12.9952 42.7655 13.0937 42.8174L13.3838 42.968C13.5755 43.0718 13.7724 43.1704 13.9642 43.2742C14.1611 43.3677 14.358 43.4611 14.5549 43.5546L14.8502 43.6947C14.9486 43.7415 15.0523 43.7778 15.1507 43.8245C15.3528 43.9076 15.5549 43.9906 15.7518 44.0737C15.8036 44.0945 15.8502 44.1152 15.902 44.136L16.0575 44.1931L16.3632 44.3021L16.6689 44.4111C16.7725 44.4475 16.871 44.489 16.9746 44.515C17.1819 44.5772 17.3891 44.6395 17.5964 44.7018L17.9073 44.7953L18.2234 44.8731C18.4358 44.9251 18.6431 44.977 18.8503 45.0289C18.954 45.0548 19.0628 45.0756 19.1664 45.0964L19.4825 45.1587L19.7985 45.221C19.9022 45.2417 20.011 45.2625 20.1146 45.2781C20.3271 45.3092 20.5395 45.3404 20.7519 45.3663L21.068 45.413C21.1768 45.4234 21.2804 45.4338 21.3841 45.4442C21.5965 45.465 21.8038 45.4805 22.0162 45.5013L22.1717 45.5169L22.3375 45.5221L22.6639 45.5376C22.8764 45.548 23.0888 45.5532 23.3012 45.5636C23.5137 45.5636 23.7261 45.5584 23.9334 45.5584L24.2495 45.5532H24.4101L24.5655 45.5428C24.778 45.5324 24.9852 45.5169 25.1977 45.5065L25.5137 45.4857L25.8246 45.4494C26.0319 45.4286 26.2392 45.4027 26.4464 45.3819L26.6019 45.3663L26.7573 45.3404L27.063 45.2884C28.7055 45.0237 30.2911 44.5772 31.7782 43.9751C33.2653 43.3677 34.6539 42.6046 35.913 41.7376C37.1773 40.8655 38.3172 39.8895 39.3173 38.8409C40.3225 37.7975 41.1878 36.6866 41.9184 35.5549C42.649 34.4232 43.25 33.2707 43.7267 32.139C43.7837 31.9989 43.8459 31.8535 43.9029 31.7133C43.9599 31.5732 44.0221 31.433 44.0687 31.2928C44.1672 31.0125 44.2656 30.7322 44.3641 30.4571C44.5351 29.8964 44.706 29.3565 44.8252 28.8218C44.9703 28.2871 45.0532 27.7628 45.1516 27.2592C45.1879 27.0049 45.2242 26.7557 45.2605 26.5065C45.276 26.3819 45.2915 26.2625 45.3123 26.1431C45.3278 26.0237 45.333 25.9043 45.3434 25.7849C45.3641 25.5461 45.3848 25.3125 45.4055 25.0893C45.4211 24.9751 45.4159 24.8609 45.4211 24.7519C45.4263 24.6377 45.4315 24.5286 45.4366 24.4196C45.4418 24.2016 45.4574 23.9836 45.4574 23.7759C45.4625 23.5683 45.4574 23.3658 45.4574 23.1634C45.4315 21.5748 45.2449 20.3341 45.0947 19.4983C45.0169 19.0778 44.9444 18.7612 44.8978 18.5431C44.8563 18.3095 44.8304 18.2005 44.8304 18.2005Z" fill="white"/>
<path d="M7.85449 20.6082V18.5515H8.21673C9.29308 18.5515 10.1555 18.3069 10.8041 17.8177C11.4527 17.3285 11.8701 16.698 12.0564 15.9263H14.0228V30.933H11.3112V20.6082H7.85449Z" fill="white"/>
<path d="M18.618 26.6336C18.618 26.0893 18.6836 25.5863 18.8147 25.1247C18.9458 24.663 19.1424 24.2393 19.4046 23.8534C19.6737 23.4676 19.9738 23.1196 20.305 22.8096C20.6362 22.4995 21.0329 22.1791 21.4952 21.8484C21.1226 21.2283 20.8329 20.6599 20.6259 20.1431C20.4189 19.6263 20.3154 19.0958 20.3154 18.5515C20.3154 17.9796 20.4154 17.4766 20.6155 17.0425C20.8225 16.6085 21.0985 16.2709 21.4435 16.0297C21.7885 15.7817 22.161 15.5991 22.5612 15.4819C22.9614 15.3579 23.3857 15.2959 23.8342 15.2959C24.6898 15.2959 25.435 15.5818 26.0697 16.1537C26.7114 16.7187 27.0322 17.4766 27.0322 18.4275C27.0322 19.2336 26.8253 19.9605 26.4113 20.6082C26.0042 21.249 25.4419 21.7898 24.7243 22.2308L26.6286 25.5381C26.7735 25.2349 26.8874 24.8215 26.9701 24.2979C27.0529 23.7742 27.0943 23.2609 27.0943 22.7579H29.3609C29.3609 24.6389 28.9159 26.3477 28.0258 27.8842L29.8473 30.933H26.7942L26.2457 29.9202C25.742 30.4025 25.2107 30.7401 24.6518 30.933C24.093 31.1191 23.4375 31.2121 22.6854 31.2121C21.5263 31.2121 20.5569 30.7746 19.7772 29.8995C19.0044 29.0245 18.618 27.9358 18.618 26.6336ZM21.2882 26.5923C21.2882 27.171 21.4849 27.7085 21.8782 28.2046C22.2783 28.6938 22.7613 28.9384 23.3271 28.9384C23.9481 28.9384 24.5621 28.6593 25.1693 28.1012L22.7061 23.9051C22.3887 24.0154 22.0714 24.3289 21.754 24.8456C21.4435 25.3555 21.2882 25.9377 21.2882 26.5923ZM22.7475 18.2931C22.7475 18.5067 22.7889 18.7272 22.8717 18.9546C22.9545 19.175 23.0787 19.4438 23.2443 19.7607C23.4168 20.0708 23.5203 20.2671 23.5548 20.3498C24.3483 19.7297 24.745 19.1096 24.745 18.4895C24.745 18.1587 24.638 17.8866 24.4242 17.673C24.2172 17.4525 23.9826 17.3423 23.7204 17.3423C23.4375 17.3423 23.2029 17.4181 23.0166 17.5696C22.8372 17.7143 22.7475 17.9555 22.7475 18.2931Z" fill="white"/>
<path d="M31.4515 20.6082V18.5515H31.8137C32.8901 18.5515 33.7526 18.3069 34.4011 17.8177C35.0497 17.3285 35.4671 16.698 35.6534 15.9263H37.6199V30.933H34.9083V20.6082H31.4515Z" fill="white"/>
<path d="M34.3125 12.3879L36.8433 2.48047H39.3876L41.6013 12.3879H39.5496L39.0839 9.80889H36.9378L36.3439 12.3879H34.3125ZM37.174 8.34186H38.8477L38.0851 3.73313L37.174 8.34186Z" fill="white"/>
<path d="M42.4111 10.4654V4.89871H44.1118V10.3046C44.1118 10.5993 44.1816 10.8271 44.321 10.9879C44.465 11.1442 44.6675 11.2223 44.9284 11.2223C45.4728 11.2223 45.745 10.9209 45.745 10.318V4.89871H47.4458V12.3879H45.826V11.6175C45.6461 11.948 45.4346 12.1959 45.1916 12.3611C44.9487 12.5263 44.6495 12.609 44.294 12.609C43.7361 12.609 43.2817 12.4303 42.9308 12.0731C42.5843 11.7158 42.4111 11.1799 42.4111 10.4654Z" fill="white"/>
<path d="M48.3434 6.22506V4.89871H49.0587V2.88239H50.7594V4.89871H51.5356V6.22506H50.7594V10.4118C50.7594 10.6976 50.8089 10.8941 50.9079 11.0013C51.0069 11.104 51.2161 11.1553 51.5356 11.1553V12.4281C51.3286 12.4638 51.0474 12.4817 50.692 12.4817C49.6031 12.4817 49.0587 12.0016 49.0587 11.0415V6.22506H48.3434Z" fill="white"/>
<path d="M52.4264 10.1639V7.14949C52.4264 6.80562 52.4714 6.49301 52.5614 6.21167C52.6559 5.93032 52.8021 5.67353 53.0001 5.44131C53.2025 5.20909 53.4815 5.02822 53.8369 4.89871C54.1969 4.7692 54.6198 4.70445 55.1057 4.70445C55.5826 4.70445 55.9988 4.7692 56.3542 4.89871C56.7097 5.02822 56.9864 5.20909 57.1843 5.44131C57.3868 5.67353 57.5353 5.93255 57.6298 6.21836C57.7287 6.49971 57.7782 6.81009 57.7782 7.14949V10.1639C57.7782 10.5033 57.7287 10.8159 57.6298 11.1017C57.5353 11.3831 57.3868 11.6399 57.1843 11.8721C56.9864 12.1043 56.7097 12.2852 56.3542 12.4147C55.9988 12.5442 55.5826 12.609 55.1057 12.609C54.6198 12.609 54.1969 12.5442 53.8369 12.4147C53.4815 12.2852 53.2025 12.1043 53.0001 11.8721C52.8021 11.6399 52.6559 11.3831 52.5614 11.1017C52.4714 10.8204 52.4264 10.5078 52.4264 10.1639ZM54.1946 10.385C54.1946 10.9789 54.5051 11.2759 55.1259 11.2759C55.4229 11.2759 55.6434 11.2112 55.7873 11.0816C55.9358 10.9477 56.01 10.7155 56.01 10.385V6.92843C56.01 6.59796 55.9336 6.36797 55.7806 6.23846C55.6276 6.10449 55.4026 6.0375 55.1057 6.0375C54.4983 6.0375 54.1946 6.33448 54.1946 6.92843V10.385Z" fill="white"/>
<path d="M62.2662 10.318V9.97636H63.9264V10.385C63.9264 10.6887 64.0029 10.9142 64.1559 11.0616C64.3134 11.2045 64.5181 11.2759 64.77 11.2759C65.013 11.2759 65.2132 11.2201 65.3707 11.1084C65.5327 10.9923 65.6137 10.8159 65.6137 10.5792C65.6137 10.3827 65.5507 10.2019 65.4247 10.0366C65.2987 9.87141 65.103 9.70394 64.8375 9.53424L63.4405 8.6567C62.6847 8.17886 62.3067 7.52908 62.3067 6.70737C62.3067 6.07323 62.5362 5.58198 62.9951 5.23365C63.4585 4.88085 64.0412 4.70445 64.7431 4.70445C65.4899 4.70445 66.0883 4.91211 66.5382 5.32743C66.9882 5.74275 67.2131 6.32554 67.2131 7.0758V7.22987H65.5529V7.04901C65.5529 6.72747 65.4787 6.47962 65.3302 6.30545C65.1862 6.12682 64.9905 6.0375 64.7431 6.0375C64.2526 6.0375 64.0074 6.26079 64.0074 6.70737C64.0074 6.86368 64.0524 7.00212 64.1424 7.12269C64.2324 7.24327 64.3989 7.37948 64.6418 7.53132L65.8296 8.27488C66.0321 8.39992 66.2098 8.52943 66.3628 8.6634C66.5157 8.79291 66.6687 8.95368 66.8217 9.14571C66.9792 9.33328 67.0984 9.5521 67.1794 9.80219C67.2649 10.0478 67.3076 10.3158 67.3076 10.606C67.3076 10.9008 67.2671 11.1643 67.1861 11.3965C67.1051 11.6242 66.9904 11.8096 66.8419 11.9525C66.6935 12.0909 66.536 12.207 66.3695 12.3008C66.2031 12.3946 66.0118 12.4616 65.7959 12.5018C65.5799 12.542 65.3909 12.5688 65.229 12.5822C65.067 12.6 64.8893 12.609 64.6958 12.609C64.0074 12.609 63.4293 12.4102 62.9614 12.0128C62.4979 11.6108 62.2662 11.0459 62.2662 10.318Z" fill="white"/>
<path d="M68.4887 10.5391C68.4887 9.9049 68.6371 9.40473 68.9341 9.03853C69.2355 8.66787 69.7282 8.33963 70.4121 8.05382C70.6145 7.96897 70.7765 7.89975 70.898 7.84616C71.024 7.7881 71.1635 7.71665 71.3164 7.6318C71.4694 7.54248 71.5886 7.45763 71.6741 7.37725C71.7596 7.29686 71.8316 7.20308 71.8901 7.0959C71.9531 6.98425 71.9846 6.86814 71.9846 6.74756C71.9846 6.30991 71.7124 6.09109 71.168 6.09109C70.907 6.09109 70.6933 6.17147 70.5268 6.33224C70.3648 6.49301 70.2839 6.73193 70.2839 7.04901V7.20308H68.6304V6.83465C68.6304 6.23176 68.8666 5.72712 69.339 5.32073C69.8159 4.90988 70.4211 4.70445 71.1545 4.70445C71.6629 4.70445 72.106 4.7692 72.484 4.89871C72.8664 5.02376 73.1746 5.23365 73.4086 5.52839C73.647 5.82314 73.7663 6.18934 73.7663 6.62699V11.2893C73.7663 11.5707 73.7798 11.7939 73.8068 11.9592C73.8382 12.1244 73.899 12.2673 73.989 12.3879H72.2073C72.1173 12.2495 72.0723 12.0128 72.0723 11.6778C71.8923 11.9904 71.6786 12.2249 71.4312 12.3812C71.1882 12.533 70.853 12.609 70.4256 12.609C69.8407 12.609 69.3705 12.4348 69.0151 12.0865C68.6641 11.7381 68.4887 11.2223 68.4887 10.5391ZM70.2839 10.3046C70.2839 10.6083 70.3446 10.8561 70.4661 11.0482C70.5876 11.2357 70.7765 11.3295 71.033 11.3295C71.3119 11.3295 71.5391 11.2469 71.7146 11.0816C71.8946 10.9119 71.9846 10.6663 71.9846 10.3448V8.51603L70.8643 9.2328C70.6663 9.36231 70.5201 9.52531 70.4256 9.7218C70.3311 9.9183 70.2839 10.1126 70.2839 10.3046Z" fill="white"/>
<path d="M75.143 12.3879V2.48047H76.8437V12.3879H75.143Z" fill="white"/>
<path d="M78.153 10.2309V7.0758C78.153 6.26302 78.3847 5.6646 78.8481 5.28054C79.3161 4.89648 79.9505 4.70445 80.7513 4.70445C81.5477 4.70445 82.1798 4.89871 82.6477 5.28724C83.1157 5.6713 83.3496 6.26749 83.3496 7.0758V8.82417H79.8537V10.452C79.8537 10.7199 79.9325 10.9253 80.0899 11.0683C80.2474 11.2067 80.4679 11.2759 80.7513 11.2759C81.0303 11.2759 81.2485 11.2045 81.406 11.0616C81.5679 10.9142 81.6489 10.711 81.6489 10.452V10.0299H83.3496V10.2309C83.3496 11.0392 83.1157 11.6376 82.6477 12.0262C82.1798 12.4147 81.5477 12.609 80.7513 12.609C79.955 12.609 79.3228 12.4169 78.8549 12.0329C78.387 11.6443 78.153 11.0437 78.153 10.2309ZM79.8537 7.58491H81.6489V6.86144C81.6489 6.60243 81.5679 6.40146 81.406 6.25856C81.2485 6.11118 81.0303 6.0375 80.7513 6.0375C80.4679 6.0375 80.2474 6.10895 80.0899 6.25186C79.9325 6.3903 79.8537 6.59349 79.8537 6.86144V7.58491Z" fill="white"/>
<path d="M84.5239 10.318V9.97636H86.1841V10.385C86.1841 10.6887 86.2606 10.9142 86.4136 11.0616C86.5711 11.2045 86.7758 11.2759 87.0277 11.2759C87.2707 11.2759 87.4709 11.2201 87.6284 11.1084C87.7904 10.9923 87.8713 10.8159 87.8713 10.5792C87.8713 10.3827 87.8084 10.2019 87.6824 10.0366C87.5564 9.87141 87.3607 9.70394 87.0952 9.53424L85.6982 8.6567C84.9423 8.17886 84.5644 7.52908 84.5644 6.70737C84.5644 6.07323 84.7939 5.58198 85.2528 5.23365C85.7162 4.88085 86.2989 4.70445 87.0007 4.70445C87.7476 4.70445 88.346 4.91211 88.7959 5.32743C89.2459 5.74275 89.4708 6.32554 89.4708 7.0758V7.22987H87.8106V7.04901C87.8106 6.72747 87.7364 6.47962 87.5879 6.30545C87.4439 6.12682 87.2482 6.0375 87.0007 6.0375C86.5103 6.0375 86.2651 6.26079 86.2651 6.70737C86.2651 6.86368 86.3101 7.00212 86.4001 7.12269C86.4901 7.24327 86.6566 7.37948 86.8995 7.53132L88.0873 8.27488C88.2898 8.39992 88.4675 8.52943 88.6205 8.6634C88.7734 8.79291 88.9264 8.95368 89.0794 9.14571C89.2369 9.33328 89.3561 9.5521 89.4371 9.80219C89.5226 10.0478 89.5653 10.3158 89.5653 10.606C89.5653 10.9008 89.5248 11.1643 89.4438 11.3965C89.3628 11.6242 89.2481 11.8096 89.0996 11.9525C88.9512 12.0909 88.7937 12.207 88.6272 12.3008C88.4607 12.3946 88.2695 12.4616 88.0536 12.5018C87.8376 12.542 87.6486 12.5688 87.4867 12.5822C87.3247 12.6 87.147 12.609 86.9535 12.609C86.2651 12.609 85.687 12.4102 85.2191 12.0128C84.7556 11.6108 84.5239 11.0459 84.5239 10.318Z" fill="white"/>
<path d="M94.1343 12.3879V4.89871H95.835V12.3879H94.1343ZM94.1343 4.16855V2.48047H95.835V4.16855H94.1343Z" fill="white"/>
<path d="M97.2118 12.3879V4.89871H98.9125V5.515C99.0609 5.29617 99.2612 5.10637 99.5131 4.9456C99.7651 4.78483 100.049 4.70445 100.363 4.70445C100.921 4.70445 101.374 4.87862 101.72 5.22695C102.071 5.57529 102.246 6.10672 102.246 6.82125V12.3879H100.546V7.00882C100.546 6.723 100.471 6.49971 100.323 6.33894C100.174 6.17371 99.9675 6.09109 99.7021 6.09109C99.4636 6.09109 99.2724 6.17371 99.1284 6.33894C98.9845 6.49971 98.9125 6.723 98.9125 7.00882V12.3879H97.2118Z" fill="white"/>
<path d="M103.556 10.4922V6.82125C103.556 6.19157 103.785 5.68247 104.244 5.29394C104.707 4.90095 105.308 4.70445 106.046 4.70445C106.329 4.70445 106.608 4.74688 106.883 4.83173C107.157 4.91211 107.409 5.03045 107.639 5.18676C107.868 5.34306 108.053 5.55072 108.192 5.80974C108.336 6.06876 108.408 6.35904 108.408 6.68058V7.6117H106.707V6.76096C106.707 6.54214 106.644 6.3769 106.518 6.26526C106.392 6.14914 106.235 6.09109 106.046 6.09109C105.83 6.09109 105.655 6.15584 105.52 6.28535C105.389 6.41486 105.324 6.60689 105.324 6.86144V10.452C105.324 10.7065 105.389 10.8985 105.52 11.0281C105.655 11.1576 105.83 11.2223 106.046 11.2223C106.235 11.2223 106.392 11.1665 106.518 11.0549C106.644 10.9387 106.707 10.7713 106.707 10.5524V9.49405H108.408V10.6328C108.408 10.9544 108.336 11.2447 108.192 11.5037C108.053 11.7627 107.868 11.9703 107.639 12.1267C107.409 12.283 107.157 12.4013 106.883 12.4817C106.608 12.5665 106.329 12.609 106.046 12.609C105.308 12.609 104.707 12.4147 104.244 12.0262C103.785 11.6332 103.556 11.1218 103.556 10.4922Z" fill="white"/>
<path d="M109.272 12.3879V10.6328H111V12.3879H109.272Z" fill="white"/>
</svg>
