<svg width="150" height="50" viewBox="0 0 150 50" fill="none" xmlns="http://www.w3.org/2000/svg">
<path d="M5.35938 21H1.23047L5.42773 0.957031H14.3281C15.8594 0.957031 17.0488 1.11654 17.8965 1.43555C18.7533 1.74544 19.4414 2.31966 19.9609 3.1582C20.4896 3.99674 20.7539 5.01302 20.7539 6.20703C20.7539 7.91146 20.2435 9.31966 19.2227 10.4316C18.2018 11.5345 16.6569 12.2181 14.5879 12.4824C15.1165 12.9564 15.6133 13.5807 16.0781 14.3555C16.9987 15.9232 18.0241 18.138 19.1543 21H14.7246C14.3691 19.8698 13.6719 18.1061 12.6328 15.709C12.0677 14.4147 11.4661 13.5443 10.8281 13.0977C10.4362 12.8333 9.7526 12.7012 8.77734 12.7012H7.0957L5.35938 21ZM7.72461 9.69336H9.91211C12.127 9.69336 13.5944 9.5612 14.3145 9.29688C15.0436 9.03255 15.6133 8.61784 16.0234 8.05273C16.4336 7.48763 16.6387 6.89518 16.6387 6.27539C16.6387 5.54622 16.3424 4.99935 15.75 4.63477C15.3854 4.41602 14.597 4.30664 13.3848 4.30664H8.8457L7.72461 9.69336ZM35.7722 14.957H25.9284C25.9193 15.112 25.9148 15.2305 25.9148 15.3125C25.9148 16.2786 26.1882 17.0579 26.7351 17.6504C27.2911 18.2428 27.9655 18.5391 28.7585 18.5391C30.0619 18.5391 31.0782 17.8646 31.8073 16.5156L35.321 17.1035C34.6374 18.5163 33.7214 19.5781 32.573 20.2891C31.4336 20.9909 30.153 21.3418 28.7312 21.3418C26.7807 21.3418 25.1947 20.7266 23.9734 19.4961C22.752 18.2565 22.1413 16.6204 22.1413 14.5879C22.1413 12.6009 22.6928 10.8327 23.7956 9.2832C25.2995 7.18685 27.446 6.13867 30.2351 6.13867C32.0124 6.13867 33.4252 6.6901 34.4734 7.79297C35.5215 8.88672 36.0456 10.4225 36.0456 12.4004C36.0456 13.3483 35.9545 14.2005 35.7722 14.957ZM32.4636 12.5645C32.4727 12.3913 32.4773 12.2591 32.4773 12.168C32.4773 11.0924 32.2357 10.2858 31.7527 9.74805C31.2696 9.21029 30.6224 8.94141 29.8113 8.94141C29.0001 8.94141 28.2709 9.24674 27.6238 9.85742C26.9857 10.4681 26.5528 11.3704 26.3249 12.5645H32.4636ZM37.2963 21.7656L41.4389 22.3672C41.4389 22.7865 41.5073 23.1009 41.644 23.3105C41.7807 23.5293 41.9995 23.7116 42.3002 23.8574C42.6101 24.0124 43.0294 24.0898 43.558 24.0898C44.3875 24.0898 45.0528 23.9258 45.5541 23.5977C45.9278 23.3424 46.2332 22.9323 46.4702 22.3672C46.616 22.0117 46.8028 21.237 47.0307 20.043L47.1674 19.3594C45.8094 20.4896 44.4057 21.0547 42.9565 21.0547C41.5346 21.0547 40.3679 20.5534 39.4565 19.5508C38.545 18.5482 38.0893 17.0807 38.0893 15.1484C38.0893 13.444 38.3992 11.8809 39.019 10.459C39.6388 9.03711 40.5092 7.96159 41.6303 7.23242C42.7514 6.50326 43.8953 6.13867 45.062 6.13867C46.0281 6.13867 46.9122 6.39388 47.7143 6.9043C48.5164 7.41471 49.1407 8.13021 49.5873 9.05078L50.1342 6.48047H53.812L51.2963 18.5801C50.8862 20.5215 50.5398 21.9069 50.2573 22.7363C49.9747 23.5658 49.6511 24.2266 49.2866 24.7188C48.922 25.2109 48.4617 25.6211 47.9057 25.9492C47.3497 26.2865 46.6935 26.528 45.937 26.6738C45.1804 26.8197 44.3601 26.8926 43.476 26.8926C41.4252 26.8926 39.8758 26.5417 38.8276 25.8398C37.7794 25.138 37.2553 23.9714 37.2553 22.3398C37.2553 22.1667 37.269 21.9753 37.2963 21.7656ZM41.9174 14.752C41.9174 15.8548 42.1635 16.6979 42.6557 17.2812C43.157 17.8555 43.7814 18.1426 44.5288 18.1426C45.2123 18.1426 45.8732 17.8828 46.5112 17.3633C47.1583 16.8438 47.6505 16.1055 47.9877 15.1484C48.3341 14.1914 48.5073 13.2663 48.5073 12.373C48.5073 11.3431 48.2293 10.5137 47.6733 9.88477C47.1173 9.25586 46.4747 8.94141 45.7455 8.94141C45.0437 8.94141 44.3966 9.2194 43.8041 9.77539C43.2208 10.3314 42.7377 11.1882 42.3549 12.3457C42.0633 13.2389 41.9174 14.041 41.9174 14.752ZM59.0822 0.957031H63.006L62.2677 4.51172H58.3439L59.0822 0.957031ZM57.9338 6.48047H61.8576L58.8224 21H54.8986L57.9338 6.48047ZM62.4657 16.9395L66.2665 16.3379C66.6037 17.14 67.023 17.7096 67.5243 18.0469C68.0256 18.375 68.7092 18.5391 69.5751 18.5391C70.4683 18.5391 71.1838 18.3385 71.7216 17.9375C72.0953 17.6641 72.2821 17.3314 72.2821 16.9395C72.2821 16.6751 72.1864 16.4382 71.995 16.2285C71.7945 16.028 71.2522 15.7819 70.368 15.4902C67.9983 14.7064 66.5308 14.0866 65.9657 13.6309C65.0816 12.9199 64.6395 11.9902 64.6395 10.8418C64.6395 9.69336 65.0679 8.70443 65.9247 7.875C67.1187 6.71745 68.8915 6.13867 71.243 6.13867C73.1115 6.13867 74.5243 6.48047 75.4813 7.16406C76.4384 7.84766 77.0445 8.77279 77.2997 9.93945L73.6766 10.5684C73.4852 10.0397 73.1753 9.64323 72.747 9.37891C72.1636 9.02344 71.4618 8.8457 70.6415 8.8457C69.8212 8.8457 69.2287 8.98242 68.8641 9.25586C68.5087 9.5293 68.3309 9.84375 68.3309 10.1992C68.3309 10.5638 68.5132 10.8646 68.8778 11.1016C69.1057 11.2474 69.8394 11.5026 71.079 11.8672C72.993 12.4232 74.2736 12.9701 74.9208 13.5078C75.8322 14.2643 76.288 15.1758 76.288 16.2422C76.288 17.6185 75.7092 18.8125 74.5516 19.8242C73.3941 20.8359 71.7626 21.3418 69.6571 21.3418C67.5608 21.3418 65.9384 20.959 64.7899 20.1934C63.6506 19.4186 62.8759 18.334 62.4657 16.9395ZM79.8219 9.39258L80.4234 6.48047H82.3375L82.816 4.15625L87.3141 1.44922L86.2613 6.48047H88.6539L88.0523 9.39258H85.6461L84.3746 15.4766C84.1467 16.5794 84.0328 17.2083 84.0328 17.3633C84.0328 17.6641 84.1285 17.901 84.3199 18.0742C84.5113 18.2383 84.8577 18.3203 85.359 18.3203C85.5322 18.3203 85.9651 18.2884 86.6578 18.2246L86.0426 21.1367C85.3681 21.2734 84.6754 21.3418 83.9645 21.3418C82.579 21.3418 81.5719 21.0775 80.943 20.5488C80.3141 20.0111 79.9996 19.2682 79.9996 18.3203C79.9996 17.8737 80.1682 16.8438 80.5055 15.2305L81.7223 9.39258H79.8219ZM102.578 14.957H92.7347C92.7256 15.112 92.721 15.2305 92.721 15.3125C92.721 16.2786 92.9945 17.0579 93.5413 17.6504C94.0973 18.2428 94.7718 18.5391 95.5648 18.5391C96.8682 18.5391 97.8844 17.8646 98.6136 16.5156L102.127 17.1035C101.444 18.5163 100.528 19.5781 99.3792 20.2891C98.2399 20.9909 96.9593 21.3418 95.5374 21.3418C93.5869 21.3418 92.001 20.7266 90.7796 19.4961C89.5583 18.2565 88.9476 16.6204 88.9476 14.5879C88.9476 12.6009 89.499 10.8327 90.6019 9.2832C92.1058 7.18685 94.2523 6.13867 97.0413 6.13867C98.8187 6.13867 100.231 6.6901 101.28 7.79297C102.328 8.88672 102.852 10.4225 102.852 12.4004C102.852 13.3483 102.761 14.2005 102.578 14.957ZM99.2698 12.5645C99.279 12.3913 99.2835 12.2591 99.2835 12.168C99.2835 11.0924 99.042 10.2858 98.5589 9.74805C98.0758 9.21029 97.4287 8.94141 96.6175 8.94141C95.8063 8.94141 95.0771 9.24674 94.43 9.85742C93.792 10.4681 93.359 11.3704 93.1312 12.5645H99.2698ZM107.124 6.48047H110.788L110.2 9.29688C111.567 7.19141 113.049 6.13867 114.644 6.13867C115.209 6.13867 115.815 6.27995 116.462 6.5625L114.958 9.77539C114.603 9.64779 114.224 9.58398 113.823 9.58398C113.149 9.58398 112.461 9.83919 111.759 10.3496C111.066 10.86 110.524 11.5436 110.132 12.4004C109.74 13.248 109.353 14.597 108.97 16.4473L108.013 21H104.089L107.124 6.48047ZM129.635 14.957H119.791C119.782 15.112 119.777 15.2305 119.777 15.3125C119.777 16.2786 120.051 17.0579 120.597 17.6504C121.153 18.2428 121.828 18.5391 122.621 18.5391C123.924 18.5391 124.941 17.8646 125.67 16.5156L129.183 17.1035C128.5 18.5163 127.584 19.5781 126.435 20.2891C125.296 20.9909 124.015 21.3418 122.594 21.3418C120.643 21.3418 119.057 20.7266 117.836 19.4961C116.614 18.2565 116.004 16.6204 116.004 14.5879C116.004 12.6009 116.555 10.8327 117.658 9.2832C119.162 7.18685 121.308 6.13867 124.097 6.13867C125.875 6.13867 127.288 6.6901 128.336 7.79297C129.384 8.88672 129.908 10.4225 129.908 12.4004C129.908 13.3483 129.817 14.2005 129.635 14.957ZM126.326 12.5645C126.335 12.3913 126.34 12.2591 126.34 12.168C126.34 11.0924 126.098 10.2858 125.615 9.74805C125.132 9.21029 124.485 8.94141 123.674 8.94141C122.862 8.94141 122.133 9.24674 121.486 9.85742C120.848 10.4681 120.415 11.3704 120.187 12.5645H126.326ZM144.776 21H141.057L141.385 19.4277C140.674 20.1113 139.972 20.6035 139.28 20.9043C138.596 21.196 137.821 21.3418 136.956 21.3418C135.452 21.3418 134.23 20.8314 133.291 19.8105C132.362 18.7806 131.897 17.263 131.897 15.2578C131.897 12.9336 132.553 10.8327 133.866 8.95508C135.178 7.07747 136.915 6.13867 139.075 6.13867C141.025 6.13867 142.488 6.91341 143.463 8.46289L145.036 0.957031H148.959L144.776 21ZM135.711 15.0938C135.711 16.1328 135.971 16.944 136.491 17.5273C137.019 18.1107 137.666 18.4023 138.432 18.4023C139.143 18.4023 139.804 18.1608 140.415 17.6777C141.034 17.1855 141.527 16.4382 141.891 15.4355C142.265 14.4329 142.452 13.4714 142.452 12.5508C142.452 11.5026 142.169 10.6549 141.604 10.0078C141.039 9.36068 140.387 9.03711 139.649 9.03711C138.5 9.03711 137.557 9.67513 136.819 10.9512C136.081 12.2272 135.711 13.6081 135.711 15.0938ZM1.12109 49L5.31836 28.957H12.168C13.6536 28.957 14.6927 29.0026 15.2852 29.0938C16.2695 29.2305 17.1035 29.5039 17.7871 29.9141C18.4707 30.3242 18.9902 30.8711 19.3457 31.5547C19.7012 32.2383 19.8789 32.9948 19.8789 33.8242C19.8789 34.9362 19.569 35.9023 18.9492 36.7227C18.3294 37.5339 17.3724 38.1491 16.0781 38.5684C17.1081 38.8509 17.9102 39.3568 18.4844 40.0859C19.0677 40.806 19.3594 41.6217 19.3594 42.5332C19.3594 43.7363 19.0176 44.8802 18.334 45.9648C17.6504 47.0404 16.707 47.8151 15.5039 48.2891C14.3008 48.763 12.6556 49 10.5684 49H1.12109ZM7.73828 37.0508H10.8828C12.2956 37.0508 13.3118 36.9505 13.9316 36.75C14.5514 36.5495 15.0163 36.2214 15.3262 35.7656C15.6361 35.3099 15.791 34.8223 15.791 34.3027C15.791 33.7923 15.6452 33.373 15.3535 33.0449C15.0618 32.7168 14.6471 32.498 14.1094 32.3887C13.8086 32.334 13.084 32.3066 11.9355 32.3066H8.73633L7.73828 37.0508ZM5.91992 45.7734H9.89844C11.5664 45.7734 12.6829 45.6686 13.248 45.459C13.8223 45.2402 14.278 44.8848 14.6152 44.3926C14.9616 43.9004 15.1348 43.3809 15.1348 42.834C15.1348 42.1686 14.8887 41.6217 14.3965 41.1934C13.9043 40.7559 13.084 40.5371 11.9355 40.5371H7.01367L5.91992 45.7734ZM24.4519 34.4805H28.1159L27.528 37.2969C28.8952 35.1914 30.3764 34.1387 31.9714 34.1387C32.5365 34.1387 33.1426 34.2799 33.7898 34.5625L32.2859 37.7754C31.9304 37.6478 31.5521 37.584 31.1511 37.584C30.4766 37.584 29.7885 37.8392 29.0866 38.3496C28.3939 38.86 27.8516 39.5436 27.4597 40.4004C27.0678 41.248 26.6804 42.597 26.2976 44.4473L25.3405 49H21.4167L24.4519 34.4805ZM33.3998 42.9707C33.3998 40.2819 34.1564 38.14 35.6694 36.5449C37.1915 34.9408 39.1876 34.1387 41.6577 34.1387C43.7996 34.1387 45.4721 34.7311 46.6752 35.916C47.8784 37.0918 48.4799 38.6777 48.4799 40.6738C48.4799 43.0254 47.728 45.0579 46.2241 46.7715C44.7202 48.485 42.7058 49.3418 40.1811 49.3418C38.8139 49.3418 37.6017 49.0684 36.5444 48.5215C35.4871 47.9746 34.6987 47.1999 34.1791 46.1973C33.6596 45.1947 33.3998 44.1191 33.3998 42.9707ZM44.5834 40.168C44.5834 39.2383 44.31 38.4954 43.7631 37.9395C43.2254 37.3743 42.5281 37.0918 41.6713 37.0918C40.8237 37.0918 40.0717 37.3561 39.4155 37.8848C38.7592 38.4043 38.2488 39.1654 37.8842 40.168C37.5196 41.1615 37.3373 42.0775 37.3373 42.916C37.3373 43.9551 37.6199 44.7799 38.185 45.3906C38.7501 46.0013 39.461 46.3066 40.3178 46.3066C41.3933 46.3066 42.2957 45.8464 43.0248 44.9258C44.0639 43.6224 44.5834 42.0365 44.5834 40.168ZM50.1545 49L54.3517 28.957H58.2755L56.088 39.3887L61.2013 34.4805H66.3009L60.463 39.7578L63.5666 49H59.6427L57.6466 42.2871L54.9943 44.6387L54.0783 49H50.1545ZM80.2255 42.957H70.3817C70.3726 43.112 70.368 43.2305 70.368 43.3125C70.368 44.2786 70.6415 45.0579 71.1884 45.6504C71.7444 46.2428 72.4188 46.5391 73.2118 46.5391C74.5152 46.5391 75.5315 45.8646 76.2606 44.5156L79.7743 45.1035C79.0907 46.5163 78.1747 47.5781 77.0263 48.2891C75.8869 48.9909 74.6063 49.3418 73.1845 49.3418C71.2339 49.3418 69.648 48.7266 68.4266 47.4961C67.2053 46.2565 66.5946 44.6204 66.5946 42.5879C66.5946 40.6009 67.146 38.8327 68.2489 37.2832C69.7528 35.1868 71.8993 34.1387 74.6884 34.1387C76.4657 34.1387 77.8785 34.6901 78.9266 35.793C79.9748 36.8867 80.4989 38.4225 80.4989 40.4004C80.4989 41.3483 80.4078 42.2005 80.2255 42.957ZM76.9169 40.5645C76.926 40.3913 76.9305 40.2591 76.9305 40.168C76.9305 39.0924 76.689 38.2858 76.2059 37.748C75.7229 37.2103 75.0757 36.9414 74.2645 36.9414C73.4533 36.9414 72.7242 37.2467 72.077 37.8574C71.439 38.4681 71.0061 39.3704 70.7782 40.5645H76.9169ZM84.7711 34.4805H88.4352L87.8473 37.2969C89.2145 35.1914 90.6956 34.1387 92.2906 34.1387C92.8557 34.1387 93.4619 34.2799 94.109 34.5625L92.6051 37.7754C92.2496 37.6478 91.8714 37.584 91.4703 37.584C90.7958 37.584 90.1077 37.8392 89.4059 38.3496C88.7132 38.86 88.1708 39.5436 87.7789 40.4004C87.387 41.248 86.9996 42.597 86.6168 44.4473L85.6598 49H81.7359L84.7711 34.4805Z" fill="white"/>
<path d="M5.35938 21V21.5H5.76559L5.84878 21.1024L5.35938 21ZM1.23047 21L0.741084 20.8975L0.614916 21.5H1.23047V21ZM5.42773 0.957031V0.457031H5.0216L4.93835 0.854548L5.42773 0.957031ZM17.8965 1.43555L17.7204 1.90354L17.7264 1.90574L17.8965 1.43555ZM19.9609 3.1582L19.5359 3.42155L19.538 3.42485L19.9609 3.1582ZM19.2227 10.4316L19.5896 10.7713L19.591 10.7698L19.2227 10.4316ZM14.5879 12.4824L14.5245 11.9865L13.4402 12.125L14.2541 12.8547L14.5879 12.4824ZM16.0781 14.3555L16.5093 14.1023L16.5069 14.0982L16.0781 14.3555ZM19.1543 21V21.5H19.8893L19.6193 20.8163L19.1543 21ZM14.7246 21L14.2476 21.15L14.3577 21.5H14.7246V21ZM12.6328 15.709L13.0916 15.5101L13.091 15.5089L12.6328 15.709ZM10.8281 13.0977L11.1149 12.688L11.1077 12.6831L10.8281 13.0977ZM7.0957 12.7012V12.2012H6.68949L6.6063 12.5988L7.0957 12.7012ZM7.72461 9.69336L7.2351 9.59148L7.10983 10.1934H7.72461V9.69336ZM14.3145 9.29688L14.1441 8.8268L14.1422 8.8275L14.3145 9.29688ZM15.75 4.63477L16.0121 4.20891L16.0072 4.20602L15.75 4.63477ZM8.8457 4.30664V3.80664H8.43905L8.35619 4.20476L8.8457 4.30664ZM5.35938 20.5H1.23047V21.5H5.35938V20.5ZM1.71985 21.1025L5.91712 1.05951L4.93835 0.854548L0.741084 20.8975L1.71985 21.1025ZM5.42773 1.45703H14.3281V0.457031H5.42773V1.45703ZM14.3281 1.45703C15.8349 1.45703 16.9548 1.61539 17.7204 1.9035L18.0726 0.967589C17.1429 0.617685 15.8839 0.457031 14.3281 0.457031V1.45703ZM17.7264 1.90574C18.4684 2.1741 19.0704 2.67024 19.5359 3.42154L20.386 2.89487C19.8124 1.96909 19.0382 1.31679 18.0666 0.965359L17.7264 1.90574ZM19.538 3.42485C20.0068 4.16856 20.2539 5.08794 20.2539 6.20703H21.2539C21.2539 4.9381 20.9723 3.82493 20.3839 2.89155L19.538 3.42485ZM20.2539 6.20703C20.2539 7.80364 19.7794 9.08584 18.8543 10.0935L19.591 10.7698C20.7076 9.55348 21.2539 8.01928 21.2539 6.20703H20.2539ZM18.8557 10.092C17.9407 11.0806 16.522 11.7313 14.5245 11.9865L14.6513 12.9784C16.7918 12.7049 18.463 11.9884 19.5896 10.7713L18.8557 10.092ZM14.2541 12.8547C14.737 13.2876 15.2036 13.8698 15.6494 14.6127L16.5069 14.0982C16.023 13.2917 15.4961 12.6251 14.9217 12.1101L14.2541 12.8547ZM15.647 14.6087C16.5486 16.1441 17.563 18.3317 18.6892 21.1837L19.6193 20.8163C18.4852 17.9444 17.4488 15.7023 16.5093 14.1023L15.647 14.6087ZM19.1543 20.5H14.7246V21.5H19.1543V20.5ZM15.2016 20.85C14.8377 19.693 14.1314 17.9089 13.0916 15.5101L12.1741 15.9078C13.2124 18.3033 13.9006 20.0465 14.2476 21.15L15.2016 20.85ZM13.091 15.5089C12.5148 14.1892 11.8676 13.2149 11.1149 12.688L10.5414 13.5073C11.0647 13.8736 11.6206 14.6402 12.1746 15.9091L13.091 15.5089ZM11.1077 12.6831C10.5827 12.3291 9.76595 12.2012 8.77734 12.2012V13.2012C9.73925 13.2012 10.2896 13.3376 10.5486 13.5122L11.1077 12.6831ZM8.77734 12.2012H7.0957V13.2012H8.77734V12.2012ZM6.6063 12.5988L4.86997 20.8976L5.84878 21.1024L7.58511 12.8036L6.6063 12.5988ZM7.72461 10.1934H9.91211V9.19336H7.72461V10.1934ZM9.91211 10.1934C11.0279 10.1934 11.9646 10.1601 12.7187 10.0922C13.4638 10.0251 14.0636 9.92158 14.4868 9.76625L14.1422 8.8275C13.8452 8.93649 13.3513 9.0312 12.629 9.09625C11.9156 9.16051 11.0112 9.19336 9.91211 9.19336V10.1934ZM14.4849 9.76694C15.2971 9.47249 15.9528 9.00126 16.4281 8.34643L15.6188 7.75904C15.2738 8.23442 14.7901 8.59262 14.1441 8.82681L14.4849 9.76694ZM16.4281 8.34643C16.892 7.70723 17.1387 7.01383 17.1387 6.27539H16.1387C16.1387 6.77653 15.9752 7.26803 15.6188 7.75904L16.4281 8.34643ZM17.1387 6.27539C17.1387 5.38275 16.7608 4.66972 16.012 4.20894L15.488 5.06059C15.9241 5.32898 16.1387 5.7097 16.1387 6.27539H17.1387ZM16.0072 4.20602C15.7366 4.04364 15.3669 3.95069 14.954 3.89341C14.5285 3.83439 14.0033 3.80664 13.3848 3.80664V4.80664C13.9785 4.80664 14.4536 4.83358 14.8165 4.88393C15.1921 4.93602 15.3988 5.00714 15.4928 5.06351L16.0072 4.20602ZM13.3848 3.80664H8.8457V4.80664H13.3848V3.80664ZM8.35619 4.20476L7.2351 9.59148L8.21412 9.79524L9.33521 4.40852L8.35619 4.20476ZM35.7722 14.957V15.457H36.166L36.2583 15.0742L35.7722 14.957ZM25.9284 14.957V14.457H25.457L25.4293 14.9277L25.9284 14.957ZM26.7351 17.6504L26.3677 17.9895L26.3705 17.9925L26.7351 17.6504ZM31.8073 16.5156L31.8899 16.0225L31.5374 15.9635L31.3675 16.2779L31.8073 16.5156ZM35.321 17.1035L35.7711 17.3213L36.0618 16.7205L35.4035 16.6104L35.321 17.1035ZM32.573 20.2891L32.8352 20.7148L32.8361 20.7142L32.573 20.2891ZM23.9734 19.4961L23.6172 19.847L23.6185 19.8483L23.9734 19.4961ZM23.7956 9.2832L23.3894 8.99175L23.3883 8.99326L23.7956 9.2832ZM34.4734 7.79297L34.1109 8.13743L34.1124 8.13892L34.4734 7.79297ZM32.4636 12.5645V13.0645H32.938L32.9629 12.5907L32.4636 12.5645ZM27.6238 9.85742L27.2806 9.49376L27.278 9.49621L27.6238 9.85742ZM26.3249 12.5645L25.8338 12.4707L25.7205 13.0645H26.3249V12.5645ZM35.7722 14.457H25.9284V15.457H35.7722V14.457ZM25.4293 14.9277C25.42 15.0854 25.4148 15.2156 25.4148 15.3125H26.4148C26.4148 15.2454 26.4186 15.1385 26.4276 14.9864L25.4293 14.9277ZM25.4148 15.3125C25.4148 16.378 25.7192 17.287 26.3677 17.9895L27.1025 17.3113C26.6572 16.8289 26.4148 16.1793 26.4148 15.3125H25.4148ZM26.3705 17.9925C27.0184 18.6829 27.8236 19.0391 28.7585 19.0391V18.0391C28.1075 18.0391 27.5638 17.8028 27.0997 17.3082L26.3705 17.9925ZM28.7585 19.0391C30.2815 19.0391 31.4492 18.2296 32.2472 16.7534L31.3675 16.2779C30.7071 17.4996 29.8423 18.0391 28.7585 18.0391V19.0391ZM31.7248 17.0088L35.2385 17.5967L35.4035 16.6104L31.8899 16.0225L31.7248 17.0088ZM34.8709 16.8857C34.2219 18.2272 33.3651 19.2106 32.3098 19.8639L32.8361 20.7142C34.0777 19.9456 35.053 18.8054 35.7711 17.3213L34.8709 16.8857ZM32.3107 19.8633C31.2552 20.5135 30.0665 20.8418 28.7312 20.8418V21.8418C30.2396 21.8418 31.612 21.4682 32.8352 20.7148L32.3107 19.8633ZM28.7312 20.8418C26.8957 20.8418 25.4436 20.2676 24.3282 19.1439L23.6185 19.8483C24.9458 21.1856 26.6656 21.8418 28.7312 21.8418V20.8418ZM24.3295 19.1452C23.2158 18.0148 22.6413 16.5129 22.6413 14.5879H21.6413C21.6413 16.728 22.2882 18.4982 23.6172 19.847L24.3295 19.1452ZM22.6413 14.5879C22.6413 12.6999 23.1632 11.034 24.203 9.57314L23.3883 8.99326C22.2223 10.6314 21.6413 12.5019 21.6413 14.5879H22.6413ZM24.2019 9.57466C25.6033 7.62114 27.5919 6.63867 30.2351 6.63867V5.63867C27.3002 5.63867 24.9957 6.75255 23.3894 8.99175L24.2019 9.57466ZM30.2351 6.63867C31.9005 6.63867 33.1731 7.15069 34.1109 8.13742L34.8358 7.44851C33.6772 6.22952 32.1244 5.63867 30.2351 5.63867V6.63867ZM34.1124 8.13892C35.0466 9.11383 35.5456 10.5107 35.5456 12.4004H36.5456C36.5456 10.3343 35.9964 8.65961 34.8344 7.44702L34.1124 8.13892ZM35.5456 12.4004C35.5456 13.3171 35.4574 14.129 35.2861 14.8399L36.2583 15.0742C36.4516 14.272 36.5456 13.3795 36.5456 12.4004H35.5456ZM32.9629 12.5907C32.9721 12.4151 32.9773 12.2725 32.9773 12.168H31.9773C31.9773 12.2457 31.9733 12.3675 31.9643 12.5382L32.9629 12.5907ZM32.9773 12.168C32.9773 11.0278 32.7224 10.0793 32.1246 9.41391L31.3807 10.0822C31.7491 10.4923 31.9773 11.1571 31.9773 12.168H32.9773ZM32.1246 9.41391C31.5346 8.75705 30.7451 8.44141 29.8113 8.44141V9.44141C30.4998 9.44141 31.0046 9.66352 31.3807 10.0822L32.1246 9.41391ZM29.8113 8.44141C28.8596 8.44141 28.0107 8.80477 27.2806 9.49377L27.9669 10.2211C28.531 9.68872 29.1405 9.44141 29.8113 9.44141V8.44141ZM27.278 9.49621C26.5414 10.2013 26.074 11.2121 25.8338 12.4707L26.8161 12.6582C27.0316 11.5288 27.4301 10.7349 27.9695 10.2186L27.278 9.49621ZM26.3249 13.0645H32.4636V12.0645H26.3249V13.0645ZM37.2963 21.7656L37.3682 21.2708L36.8661 21.1979L36.8005 21.701L37.2963 21.7656ZM41.4389 22.3672H41.9389V21.9346L41.5108 21.8724L41.4389 22.3672ZM41.644 23.3105L42.0681 23.0455L42.0628 23.0374L41.644 23.3105ZM42.3002 23.8574L42.5239 23.4102L42.5184 23.4075L42.3002 23.8574ZM45.5541 23.5977L45.828 24.0161L45.8361 24.0106L45.5541 23.5977ZM46.4702 22.3672L46.9313 22.5606L46.9327 22.557L46.4702 22.3672ZM47.0307 20.043L46.5404 19.9449L46.5396 19.9492L47.0307 20.043ZM47.1674 19.3594L47.6577 19.4574L47.9352 18.0699L46.8476 18.9751L47.1674 19.3594ZM39.4565 19.5508L39.0865 19.8871L39.4565 19.5508ZM41.6303 7.23242L41.3577 6.81328L41.6303 7.23242ZM47.7143 6.9043L47.9827 6.48247L47.7143 6.9043ZM49.5873 9.05078L49.1375 9.26903L49.7733 10.5795L50.0764 9.15483L49.5873 9.05078ZM50.1342 6.48047V5.98047H49.7294L49.6452 6.37642L50.1342 6.48047ZM53.812 6.48047L54.3015 6.58225L54.4266 5.98047H53.812V6.48047ZM51.2963 18.5801L51.7855 18.6834L51.7859 18.6819L51.2963 18.5801ZM50.2573 22.7363L49.784 22.5751L50.2573 22.7363ZM47.9057 25.9492L47.6516 25.5186L47.6464 25.5217L47.9057 25.9492ZM42.6557 17.2812L42.2735 17.6037L42.279 17.6101L42.6557 17.2812ZM46.5112 17.3633L46.1982 16.9734L46.1955 16.9756L46.5112 17.3633ZM47.9877 15.1484L47.5176 14.9783L47.5162 14.9823L47.9877 15.1484ZM43.8041 9.77539L43.462 9.41079L43.4592 9.41346L43.8041 9.77539ZM42.3549 12.3457L41.8802 12.1887L41.8796 12.1905L42.3549 12.3457ZM37.2245 22.2604L41.3671 22.862L41.5108 21.8724L37.3682 21.2708L37.2245 22.2604ZM40.9389 22.3672C40.9389 22.8249 41.0106 23.2547 41.2252 23.5837L42.0628 23.0374C42.0039 22.9471 41.9389 22.7481 41.9389 22.3672H40.9389ZM41.22 23.5755C41.4193 23.8945 41.7213 24.1324 42.0821 24.3073L42.5184 23.4075C42.2776 23.2908 42.1421 23.1641 42.068 23.0455L41.22 23.5755ZM42.0766 24.3046C42.4829 24.5078 42.9889 24.5898 43.558 24.5898V23.5898C43.0699 23.5898 42.7374 23.517 42.5238 23.4102L42.0766 24.3046ZM43.558 24.5898C44.4487 24.5898 45.2196 24.4142 45.828 24.016L45.2803 23.1793C44.8861 23.4373 44.3263 23.5898 43.558 23.5898V24.5898ZM45.8361 24.0106C46.313 23.6849 46.6698 23.184 46.9313 22.5606L46.0091 22.1738C45.7965 22.6806 45.5427 23 45.2722 23.1848L45.8361 24.0106ZM46.9327 22.557C47.1011 22.1465 47.296 21.3203 47.5218 20.1367L46.5396 19.9492C46.3097 21.1537 46.1309 21.8769 46.0076 22.1774L46.9327 22.557ZM47.521 20.141L47.6577 19.4574L46.6771 19.2613L46.5404 19.9449L47.521 20.141ZM46.8476 18.9751C45.5589 20.0475 44.2648 20.5547 42.9565 20.5547V21.5547C44.5466 21.5547 46.0598 20.9317 47.4873 19.7437L46.8476 18.9751ZM42.9565 20.5547C41.6676 20.5547 40.638 20.1071 39.8265 19.2144L39.0865 19.8871C40.0979 20.9996 41.4016 21.5547 42.9565 21.5547V20.5547ZM39.8265 19.2144C39.0284 18.3366 38.5893 17.009 38.5893 15.1484H37.5893C37.5893 17.1524 38.0617 18.7598 39.0865 19.8871L39.8265 19.2144ZM38.5893 15.1484C38.5893 13.5059 38.8876 12.0116 39.4773 10.6588L38.5606 10.2592C37.9108 11.7501 37.5893 13.3821 37.5893 15.1484H38.5893ZM39.4773 10.6588C40.0644 9.31193 40.8764 8.31926 41.9029 7.65157L41.3577 6.81328C40.1421 7.60392 39.2131 8.76229 38.5606 10.2592L39.4773 10.6588ZM41.9029 7.65157C42.9551 6.96724 44.0056 6.63867 45.062 6.63867V5.63867C43.7849 5.63867 42.5477 6.03927 41.3577 6.81328L41.9029 7.65157ZM45.062 6.63867C45.9346 6.63867 46.7254 6.86763 47.4459 7.32613L47.9827 6.48247C47.0991 5.92013 46.1216 5.63867 45.062 5.63867V6.63867ZM47.4459 7.32613C48.1638 7.783 48.7281 8.42521 49.1375 9.26903L50.0372 8.83253C49.5533 7.83521 48.869 7.04642 47.9827 6.48247L47.4459 7.32613ZM50.0764 9.15483L50.6233 6.58452L49.6452 6.37642L49.0983 8.94673L50.0764 9.15483ZM50.1342 6.98047H53.812V5.98047H50.1342V6.98047ZM53.3224 6.37869L50.8068 18.4783L51.7859 18.6819L54.3015 6.58225L53.3224 6.37869ZM50.8071 18.4767C50.3973 20.4167 50.056 21.7765 49.784 22.5751L50.7306 22.8976C51.0236 22.0373 51.3751 20.6263 51.7855 18.6834L50.8071 18.4767ZM49.784 22.5751C49.5115 23.3748 49.2085 23.9841 48.8848 24.4211L49.6883 25.0164C50.0938 24.469 50.4379 23.7567 50.7306 22.8976L49.784 22.5751ZM48.8848 24.4211C48.5622 24.8567 48.1531 25.2226 47.6516 25.5186L48.1598 26.3798C48.7703 26.0196 49.2818 25.5652 49.6883 25.0164L48.8848 24.4211ZM47.6464 25.5217C47.1495 25.8231 46.5511 26.0462 45.8423 26.1829L46.0316 27.1648C46.8358 27.0098 47.5499 26.7498 48.165 26.3767L47.6464 25.5217ZM45.8423 26.1829C45.1212 26.3219 44.3329 26.3926 43.476 26.3926V27.3926C44.3873 27.3926 45.2397 27.3174 46.0316 27.1648L45.8423 26.1829ZM43.476 26.3926C41.468 26.3926 40.0348 26.0464 39.1058 25.4244L38.5494 26.2553C39.7167 27.0369 41.3825 27.3926 43.476 27.3926V26.3926ZM39.1058 25.4244C38.2363 24.8422 37.7553 23.8593 37.7553 22.3398H36.7553C36.7553 24.0834 37.3225 25.4339 38.5494 26.2553L39.1058 25.4244ZM37.7553 22.3398C37.7553 22.1924 37.767 22.023 37.7921 21.8303L36.8005 21.701C36.771 21.9275 36.7553 22.1409 36.7553 22.3398H37.7553ZM41.4174 14.752C41.4174 15.9214 41.6776 16.8974 42.2736 17.6037L43.0378 16.9588C42.6494 16.4984 42.4174 15.7882 42.4174 14.752H41.4174ZM42.279 17.6101C42.8731 18.2906 43.6337 18.6426 44.5288 18.6426V17.6426C43.929 17.6426 43.4409 17.4204 43.0324 16.9524L42.279 17.6101ZM44.5288 18.6426C45.3495 18.6426 46.1185 18.3278 46.8269 17.751L46.1955 16.9756C45.6278 17.4378 45.0752 17.6426 44.5288 17.6426V18.6426ZM46.8242 17.7532C47.5587 17.1635 48.098 16.3399 48.4593 15.3146L47.5162 14.9823C47.203 15.871 46.758 16.524 46.1982 16.9734L46.8242 17.7532ZM48.4579 15.3186C48.8213 14.3145 49.0073 13.3318 49.0073 12.373H48.0073C48.0073 13.2008 47.8469 14.0683 47.5176 14.9783L48.4579 15.3186ZM49.0073 12.373C49.0073 11.25 48.702 10.2934 48.0479 9.5536L47.2987 10.2159C47.7566 10.7339 48.0073 11.4362 48.0073 12.373H49.0073ZM48.0479 9.5536C47.4129 8.83529 46.6403 8.44141 45.7455 8.44141V9.44141C46.3091 9.44141 46.8217 9.67642 47.2987 10.2159L48.0479 9.5536ZM45.7455 8.44141C44.8966 8.44141 44.1315 8.78252 43.462 9.4108L44.1463 10.14C44.6617 9.65628 45.1908 9.44141 45.7455 9.44141V8.44141ZM43.4592 9.41346C42.7937 10.0478 42.2767 10.9899 41.8802 12.1887L42.8296 12.5027C43.1988 11.3864 43.648 10.615 44.1491 10.1373L43.4592 9.41346ZM41.8796 12.1905C41.5765 13.1187 41.4174 13.9745 41.4174 14.752H42.4174C42.4174 14.1076 42.55 13.3591 42.8302 12.5009L41.8796 12.1905ZM59.0822 0.957031V0.457031H58.6754L58.5926 0.855355L59.0822 0.957031ZM63.006 0.957031L63.4956 1.05871L63.6205 0.457031H63.006V0.957031ZM62.2677 4.51172V5.01172H62.6746L62.7573 4.6134L62.2677 4.51172ZM58.3439 4.51172L57.8544 4.41004L57.7294 5.01172H58.3439V4.51172ZM57.9338 6.48047V5.98047H57.5275L57.4443 6.37816L57.9338 6.48047ZM61.8576 6.48047L62.347 6.58278L62.4729 5.98047H61.8576V6.48047ZM58.8224 21V21.5H59.2287L59.3118 21.1023L58.8224 21ZM54.8986 21L54.4092 20.8977L54.2833 21.5H54.8986V21ZM59.0822 1.45703H63.006V0.457031H59.0822V1.45703ZM62.5165 0.855355L61.7782 4.41004L62.7573 4.6134L63.4956 1.05871L62.5165 0.855355ZM62.2677 4.01172H58.3439V5.01172H62.2677V4.01172ZM58.8335 4.6134L59.5717 1.05871L58.5926 0.855355L57.8544 4.41004L58.8335 4.6134ZM57.9338 6.98047H61.8576V5.98047H57.9338V6.98047ZM61.3682 6.37816L58.333 20.8977L59.3118 21.1023L62.347 6.58278L61.3682 6.37816ZM58.8224 20.5H54.8986V21.5H58.8224V20.5ZM55.388 21.1023L58.4232 6.58278L57.4443 6.37816L54.4092 20.8977L55.388 21.1023ZM62.4657 16.9395L62.3875 16.4456L61.8254 16.5346L61.986 17.0805L62.4657 16.9395ZM66.2665 16.3379L66.7274 16.1441L66.5755 15.7828L66.1883 15.844L66.2665 16.3379ZM67.5243 18.0469L67.2452 18.4618L67.2505 18.4652L67.5243 18.0469ZM71.7216 17.9375L71.4263 17.534L71.4227 17.5367L71.7216 17.9375ZM71.995 16.2285L72.3642 15.8914L72.3566 15.883L72.3485 15.875L71.995 16.2285ZM70.368 15.4902L70.211 15.9649L70.2114 15.9651L70.368 15.4902ZM65.9657 13.6309L66.2796 13.2417L66.279 13.2412L65.9657 13.6309ZM65.9247 7.875L66.2725 8.23424L66.2727 8.23399L65.9247 7.875ZM77.2997 9.93945L77.3852 10.4321L77.8997 10.3428L77.7881 9.8326L77.2997 9.93945ZM73.6766 10.5684L73.2065 10.7386L73.3492 11.1327L73.7622 11.061L73.6766 10.5684ZM72.7469 9.37891L73.0095 8.95338L73.0071 8.95194L72.7469 9.37891ZM68.8641 9.25586L68.5641 8.85583L68.5593 8.85955L68.8641 9.25586ZM68.8778 11.1016L68.6053 11.5208L68.6083 11.5227L68.8778 11.1016ZM71.079 11.8672L70.9379 12.3469L70.9395 12.3473L71.079 11.8672ZM74.9208 13.5078L74.6012 13.8924L74.6014 13.8926L74.9208 13.5078ZM64.7899 20.1934L64.5088 20.6068L64.5126 20.6094L64.7899 20.1934ZM62.5439 17.4333L66.3447 16.8317L66.1883 15.844L62.3875 16.4456L62.5439 17.4333ZM65.8056 16.5317C66.1648 17.386 66.6348 18.0511 67.2452 18.4617L67.8034 17.632C67.4112 17.3682 67.0427 16.894 66.7274 16.1441L65.8056 16.5317ZM67.2505 18.4652C67.8618 18.8654 68.6531 19.0391 69.5751 19.0391V18.0391C68.7653 18.0391 68.1894 17.8846 67.7981 17.6285L67.2505 18.4652ZM69.5751 19.0391C70.5406 19.0391 71.3717 18.8221 72.0205 18.3383L71.4227 17.5367C70.9959 17.8549 70.396 18.0391 69.5751 18.0391V19.0391ZM72.0168 18.341C72.4927 17.9928 72.7821 17.5211 72.7821 16.9395H71.7821C71.7821 17.1417 71.6978 17.3353 71.4263 17.534L72.0168 18.341ZM72.7821 16.9395C72.7821 16.5407 72.633 16.1857 72.3642 15.8914L71.6258 16.5657C71.7398 16.6906 71.7821 16.8096 71.7821 16.9395H72.7821ZM72.3485 15.875C72.1805 15.7069 71.9236 15.5649 71.6445 15.4382C71.3506 15.3049 70.9754 15.1641 70.5247 15.0154L70.2114 15.9651C70.6448 16.108 70.9828 16.2361 71.2313 16.3489C71.4945 16.4683 71.609 16.5496 71.6414 16.5821L72.3485 15.875ZM70.5251 15.0155C69.3466 14.6257 68.4012 14.2795 67.6847 13.9769C66.9553 13.6688 66.5035 13.4223 66.2796 13.2417L65.6518 14.0201C65.993 14.2952 66.5575 14.5864 67.2956 14.8981C68.0465 15.2152 69.0197 15.5709 70.211 15.9649L70.5251 15.0155ZM66.279 13.2412C65.5146 12.6265 65.1395 11.841 65.1395 10.8418H64.1395C64.1395 12.1395 64.6486 13.2133 65.6524 14.0205L66.279 13.2412ZM65.1395 10.8418C65.1395 9.8345 65.5088 8.97353 66.2725 8.23424L65.5769 7.51576C64.627 8.43533 64.1395 9.55222 64.1395 10.8418H65.1395ZM66.2727 8.23399C67.3407 7.19861 68.9673 6.63867 71.243 6.63867V5.63867C68.8157 5.63867 66.8967 6.23629 65.5767 7.51601L66.2727 8.23399ZM71.243 6.63867C73.064 6.63867 74.3552 6.97412 75.1907 7.57093L75.7719 6.7572C74.6934 5.98681 73.1591 5.63867 71.243 5.63867V6.63867ZM75.1907 7.57093C76.0452 8.18127 76.5821 8.99864 76.8112 10.0463L77.7881 9.8326C77.5069 8.54694 76.8315 7.51404 75.7719 6.7572L75.1907 7.57093ZM77.2142 9.44682L73.5911 10.0757L73.7622 11.061L77.3852 10.4321L77.2142 9.44682ZM74.1468 10.3981C73.9217 9.77654 73.5452 9.28389 73.0095 8.95339L72.4844 9.80442C72.8055 10.0026 73.0488 10.3029 73.2065 10.7386L74.1468 10.3981ZM73.0071 8.95194C72.331 8.5399 71.535 8.3457 70.6415 8.3457V9.3457C71.3885 9.3457 71.9963 9.50698 72.4868 9.80588L73.0071 8.95194ZM70.6415 8.3457C69.7891 8.3457 69.061 8.48323 68.5641 8.85586L69.1641 9.65586C69.3965 9.48161 69.8532 9.3457 70.6415 9.3457V8.3457ZM68.5593 8.85955C68.1162 9.20038 67.8309 9.6487 67.8309 10.1992H68.8309C68.8309 10.0388 68.9011 9.85822 69.169 9.65217L68.5593 8.85955ZM67.8309 10.1992C67.8309 10.7676 68.1305 11.2121 68.6053 11.5208L69.1503 10.6823C68.896 10.517 68.8309 10.36 68.8309 10.1992H67.8309ZM68.6083 11.5227C68.7796 11.6323 69.0757 11.7497 69.4347 11.8746C69.8126 12.006 70.3147 12.1636 70.9379 12.3469L71.2201 11.3875C70.6037 11.2062 70.1191 11.0539 69.7633 10.9301C69.3886 10.7998 69.2039 10.7166 69.1473 10.6804L68.6083 11.5227ZM70.9395 12.3473C72.8539 12.9034 74.0421 13.4278 74.6012 13.8924L75.2403 13.1233C74.5052 12.5123 73.1322 11.9429 71.2185 11.387L70.9395 12.3473ZM74.6014 13.8926C75.4128 14.566 75.788 15.3422 75.788 16.2422H76.788C76.788 15.0094 76.2517 13.9627 75.2401 13.1231L74.6014 13.8926ZM75.788 16.2422C75.788 17.4563 75.2857 18.5185 74.2226 19.4477L74.8807 20.2007C76.1327 19.1065 76.788 17.7806 76.788 16.2422H75.788ZM74.2226 19.4477C73.1851 20.3546 71.6864 20.8418 69.6571 20.8418V21.8418C71.8387 21.8418 73.6031 21.3173 74.8807 20.2007L74.2226 19.4477ZM69.6571 20.8418C67.6116 20.8418 66.1012 20.4666 65.0673 19.7773L64.5126 20.6094C65.7755 21.4513 67.5099 21.8418 69.6571 21.8418V20.8418ZM65.0711 19.7799C64.033 19.074 63.3248 18.0885 62.9454 16.7984L61.986 17.0805C62.4269 18.5795 63.2682 19.7632 64.5088 20.6068L65.0711 19.7799ZM79.8219 9.39258L79.3322 9.29143L79.208 9.89258H79.8219V9.39258ZM80.4234 6.48047V5.98047H80.0162L79.9338 6.37932L80.4234 6.48047ZM82.3375 6.48047V6.98047H82.745L82.8272 6.5813L82.3375 6.48047ZM82.816 4.15625L82.5582 3.72785L82.3705 3.84083L82.3263 4.05542L82.816 4.15625ZM87.3141 1.44922L87.8035 1.55162L88.0382 0.429863L87.0562 1.02082L87.3141 1.44922ZM86.2613 6.48047L85.7719 6.37807L85.6459 6.98047H86.2613V6.48047ZM88.6539 6.48047L89.1436 6.58162L89.2678 5.98047H88.6539V6.48047ZM88.0523 9.39258V9.89258H88.4596L88.542 9.49373L88.0523 9.39258ZM85.6461 9.39258V8.89258H85.2398L85.1567 9.29029L85.6461 9.39258ZM84.3746 15.4766L83.8852 15.3743L83.885 15.3754L84.3746 15.4766ZM84.3199 18.0742L83.9843 18.4451L83.9945 18.4538L84.3199 18.0742ZM86.6578 18.2246L87.147 18.328L87.2872 17.6645L86.612 17.7267L86.6578 18.2246ZM86.0426 21.1367L86.1419 21.6268L86.4639 21.5615L86.5318 21.2401L86.0426 21.1367ZM80.943 20.5488L80.618 20.9289L80.6212 20.9316L80.943 20.5488ZM80.5055 15.2305L80.9949 15.3328L80.9949 15.3325L80.5055 15.2305ZM81.7223 9.39258L82.2117 9.4946L82.3372 8.89258H81.7223V9.39258ZM80.3115 9.49373L80.9131 6.58162L79.9338 6.37932L79.3322 9.29143L80.3115 9.49373ZM80.4234 6.98047H82.3375V5.98047H80.4234V6.98047ZM82.8272 6.5813L83.3057 4.25708L82.3263 4.05542L81.8478 6.37964L82.8272 6.5813ZM83.0738 4.58465L87.5719 1.87762L87.0562 1.02082L82.5582 3.72785L83.0738 4.58465ZM86.8247 1.34682L85.7719 6.37807L86.7507 6.58287L87.8035 1.55162L86.8247 1.34682ZM86.2613 6.98047H88.6539V5.98047H86.2613V6.98047ZM88.1642 6.37932L87.5627 9.29143L88.542 9.49373L89.1436 6.58162L88.1642 6.37932ZM88.0523 8.89258H85.6461V9.89258H88.0523V8.89258ZM85.1567 9.29029L83.8852 15.3743L84.864 15.5788L86.1355 9.49486L85.1567 9.29029ZM83.885 15.3754C83.7707 15.9283 83.6843 16.3659 83.6263 16.6863C83.5725 16.9831 83.5328 17.2305 83.5328 17.3633H84.5328C84.5328 17.3651 84.5345 17.3298 84.549 17.2301C84.562 17.1403 84.5823 17.019 84.6103 16.8645C84.6661 16.556 84.7506 16.1277 84.8643 15.5777L83.885 15.3754ZM83.5328 17.3633C83.5328 17.7797 83.6707 18.1611 83.9845 18.445L84.6554 17.7035C84.5864 17.641 84.5328 17.5484 84.5328 17.3633H83.5328ZM83.9945 18.4538C84.3313 18.7425 84.8389 18.8203 85.359 18.8203V17.8203C84.8765 17.8203 84.6914 17.7341 84.6453 17.6946L83.9945 18.4538ZM85.359 18.8203C85.5604 18.8203 86.0196 18.7855 86.7037 18.7225L86.612 17.7267C85.9106 17.7913 85.504 17.8203 85.359 17.8203V18.8203ZM86.1686 18.1213L85.5534 21.0334L86.5318 21.2401L87.147 18.328L86.1686 18.1213ZM85.9432 20.6467C85.3025 20.7766 84.6431 20.8418 83.9645 20.8418V21.8418C84.7076 21.8418 85.4337 21.7703 86.1419 21.6268L85.9432 20.6467ZM83.9645 20.8418C82.6226 20.8418 81.7596 20.5821 81.2647 20.1661L80.6212 20.9316C81.3842 21.5729 82.5355 21.8418 83.9645 21.8418V20.8418ZM81.2679 20.1688C80.7669 19.7404 80.4996 19.1458 80.4996 18.3203H79.4996C79.4996 19.3907 79.8612 20.2817 80.618 20.9288L81.2679 20.1688ZM80.4996 18.3203C80.4996 17.9364 80.6542 16.9624 80.9949 15.3328L80.0161 15.1282C79.6822 16.7251 79.4996 17.811 79.4996 18.3203H80.4996ZM80.9949 15.3325L82.2117 9.4946L81.2328 9.29056L80.016 15.1284L80.9949 15.3325ZM81.7223 8.89258H79.8219V9.89258H81.7223V8.89258ZM102.578 14.957V15.457H102.972L103.065 15.0742L102.578 14.957ZM92.7347 14.957V14.457H92.2632L92.2355 14.9277L92.7347 14.957ZM93.5413 17.6504L93.1739 17.9895L93.1767 17.9925L93.5413 17.6504ZM98.6136 16.5156L98.6961 16.0225L98.3437 15.9635L98.1737 16.2779L98.6136 16.5156ZM102.127 17.1035L102.577 17.3213L102.868 16.7205L102.21 16.6104L102.127 17.1035ZM99.3792 20.2891L99.6415 20.7148L99.6424 20.7142L99.3792 20.2891ZM90.7796 19.4961L90.4234 19.847L90.4247 19.8483L90.7796 19.4961ZM90.6019 9.2832L90.1956 8.99175L90.1945 8.99326L90.6019 9.2832ZM101.28 7.79297L100.917 8.13743L100.919 8.13892L101.28 7.79297ZM99.2698 12.5645V13.0645H99.7442L99.7691 12.5907L99.2698 12.5645ZM94.43 9.85742L94.0868 9.49376L94.0843 9.49621L94.43 9.85742ZM93.1312 12.5645L92.64 12.4707L92.5267 13.0645H93.1312V12.5645ZM102.578 14.457H92.7347V15.457H102.578V14.457ZM92.2355 14.9277C92.2263 15.0854 92.221 15.2156 92.221 15.3125H93.221C93.221 15.2454 93.2249 15.1385 93.2338 14.9864L92.2355 14.9277ZM92.221 15.3125C92.221 16.378 92.5255 17.287 93.1739 17.9895L93.9087 17.3113C93.4635 16.8289 93.221 16.1793 93.221 15.3125H92.221ZM93.1767 17.9925C93.8246 18.6829 94.6299 19.0391 95.5648 19.0391V18.0391C94.9137 18.0391 94.37 17.8028 93.9059 17.3082L93.1767 17.9925ZM95.5648 19.0391C97.0878 19.0391 98.2555 18.2296 99.0534 16.7534L98.1737 16.2779C97.5134 17.4996 96.6485 18.0391 95.5648 18.0391V19.0391ZM98.5311 17.0088L102.045 17.5967L102.21 16.6104L98.6961 16.0225L98.5311 17.0088ZM101.677 16.8857C101.028 18.2272 100.171 19.2106 99.116 19.8639L99.6424 20.7142C100.884 19.9456 101.859 18.8054 102.577 17.3213L101.677 16.8857ZM99.117 19.8633C98.0615 20.5135 96.8727 20.8418 95.5374 20.8418V21.8418C97.0459 21.8418 98.4183 21.4682 99.6415 20.7148L99.117 19.8633ZM95.5374 20.8418C93.7019 20.8418 92.2499 20.2676 91.1345 19.1439L90.4247 19.8483C91.7521 21.1856 93.4719 21.8418 95.5374 21.8418V20.8418ZM91.1358 19.1452C90.022 18.0148 89.4476 16.5129 89.4476 14.5879H88.4476C88.4476 16.728 89.0945 18.4982 90.4234 19.847L91.1358 19.1452ZM89.4476 14.5879C89.4476 12.6999 89.9694 11.034 91.0092 9.57314L90.1945 8.99326C89.0286 10.6314 88.4476 12.5019 88.4476 14.5879H89.4476ZM91.0081 9.57466C92.4096 7.62114 94.3981 6.63867 97.0413 6.63867V5.63867C94.1064 5.63867 91.802 6.75255 90.1956 8.99175L91.0081 9.57466ZM97.0413 6.63867C98.7067 6.63867 99.9794 7.15069 100.917 8.13742L101.642 7.44851C100.483 6.22952 98.9306 5.63867 97.0413 5.63867V6.63867ZM100.919 8.13892C101.853 9.11383 102.352 10.5107 102.352 12.4004H103.352C103.352 10.3343 102.803 8.65961 101.641 7.44702L100.919 8.13892ZM102.352 12.4004C102.352 13.3171 102.264 14.129 102.092 14.8399L103.065 15.0742C103.258 14.272 103.352 13.3795 103.352 12.4004H102.352ZM99.7691 12.5907C99.7784 12.4151 99.7835 12.2725 99.7835 12.168H98.7835C98.7835 12.2457 98.7795 12.3675 98.7705 12.5382L99.7691 12.5907ZM99.7835 12.168C99.7835 11.0278 99.5286 10.0793 98.9309 9.41391L98.1869 10.0822C98.5553 10.4923 98.7835 11.1571 98.7835 12.168H99.7835ZM98.9309 9.41391C98.3408 8.75705 97.5513 8.44141 96.6175 8.44141V9.44141C97.3061 9.44141 97.8109 9.66352 98.1869 10.0822L98.9309 9.41391ZM96.6175 8.44141C95.6658 8.44141 94.817 8.80477 94.0868 9.49377L94.7732 10.2211C95.3373 9.68872 95.9468 9.44141 96.6175 9.44141V8.44141ZM94.0843 9.49621C93.3476 10.2013 92.8802 11.2121 92.64 12.4707L93.6223 12.6582C93.8378 11.5288 94.2363 10.7349 94.7757 10.2186L94.0843 9.49621ZM93.1312 13.0645H99.2698V12.0645H93.1312V13.0645ZM107.124 6.48047V5.98047H106.718L106.635 6.37816L107.124 6.48047ZM110.788 6.48047L111.278 6.58264L111.403 5.98047H110.788V6.48047ZM110.2 9.29688L109.711 9.19471L110.62 9.56918L110.2 9.29688ZM116.462 6.5625L116.915 6.77447L117.132 6.30964L116.662 6.10427L116.462 6.5625ZM114.958 9.77539L114.789 10.246L115.218 10.3999L115.411 9.98736L114.958 9.77539ZM111.759 10.3496L111.465 9.94523L111.462 9.94708L111.759 10.3496ZM110.132 12.4004L110.586 12.6102L110.587 12.6084L110.132 12.4004ZM108.97 16.4473L109.459 16.5501L109.459 16.5486L108.97 16.4473ZM108.013 21V21.5H108.419L108.502 21.1029L108.013 21ZM104.089 21L103.599 20.8977L103.474 21.5H104.089V21ZM107.124 6.98047H110.788V5.98047H107.124V6.98047ZM110.299 6.3783L109.711 9.19471L110.69 9.39904L111.278 6.58264L110.299 6.3783ZM110.62 9.56918C111.95 7.52075 113.299 6.63867 114.644 6.63867V5.63867C112.798 5.63867 111.185 6.86206 109.781 9.02457L110.62 9.56918ZM114.644 6.63867C115.125 6.63867 115.663 6.75907 116.262 7.02073L116.662 6.10427C115.967 5.80083 115.292 5.63867 114.644 5.63867V6.63867ZM116.009 6.35053L114.505 9.56342L115.411 9.98736L116.915 6.77447L116.009 6.35053ZM115.127 9.30479C114.714 9.15656 114.278 9.08398 113.823 9.08398V10.084C114.17 10.084 114.491 10.139 114.789 10.246L115.127 9.30479ZM113.823 9.08398C113.016 9.08398 112.227 9.39052 111.465 9.94524L112.053 10.754C112.694 10.2879 113.281 10.084 113.823 10.084V9.08398ZM111.462 9.94708C110.695 10.5126 110.101 11.2659 109.677 12.1924L110.587 12.6084C110.947 11.8213 111.437 11.2075 112.055 10.7521L111.462 9.94708ZM109.678 12.1906C109.261 13.0926 108.865 14.4882 108.48 16.346L109.459 16.5486C109.841 14.7058 110.219 13.4035 110.586 12.6102L109.678 12.1906ZM108.48 16.3444L107.523 20.8971L108.502 21.1029L109.459 16.5501L108.48 16.3444ZM108.013 20.5H104.089V21.5H108.013V20.5ZM104.578 21.1023L107.613 6.58278L106.635 6.37816L103.599 20.8977L104.578 21.1023ZM129.635 14.957V15.457H130.028L130.121 15.0742L129.635 14.957ZM119.791 14.957V14.457H119.319L119.292 14.9277L119.791 14.957ZM120.597 17.6504L120.23 17.9895L120.233 17.9925L120.597 17.6504ZM125.67 16.5156L125.752 16.0225L125.4 15.9635L125.23 16.2779L125.67 16.5156ZM129.183 17.1035L129.633 17.3213L129.924 16.7205L129.266 16.6104L129.183 17.1035ZM126.435 20.2891L126.698 20.7148L126.698 20.7142L126.435 20.2891ZM117.836 19.4961L117.48 19.847L117.481 19.8483L117.836 19.4961ZM117.658 9.2832L117.252 8.99175L117.251 8.99326L117.658 9.2832ZM128.336 7.79297L127.973 8.13743L127.975 8.13892L128.336 7.79297ZM126.326 12.5645V13.0645H126.8L126.825 12.5907L126.326 12.5645ZM121.486 9.85742L121.143 9.49376L121.14 9.49621L121.486 9.85742ZM120.187 12.5645L119.696 12.4707L119.583 13.0645H120.187V12.5645ZM129.635 14.457H119.791V15.457H129.635V14.457ZM119.292 14.9277C119.282 15.0854 119.277 15.2156 119.277 15.3125H120.277C120.277 15.2454 120.281 15.1385 120.29 14.9864L119.292 14.9277ZM119.277 15.3125C119.277 16.378 119.582 17.287 120.23 17.9895L120.965 17.3113C120.52 16.8289 120.277 16.1793 120.277 15.3125H119.277ZM120.233 17.9925C120.881 18.6829 121.686 19.0391 122.621 19.0391V18.0391C121.97 18.0391 121.426 17.8028 120.962 17.3082L120.233 17.9925ZM122.621 19.0391C124.144 19.0391 125.312 18.2296 126.11 16.7534L125.23 16.2779C124.569 17.4996 123.705 18.0391 122.621 18.0391V19.0391ZM125.587 17.0088L129.101 17.5967L129.266 16.6104L125.752 16.0225L125.587 17.0088ZM128.733 16.8857C128.084 18.2272 127.227 19.2106 126.172 19.8639L126.698 20.7142C127.94 19.9456 128.915 18.8054 129.633 17.3213L128.733 16.8857ZM126.173 19.8633C125.118 20.5135 123.929 20.8418 122.594 20.8418V21.8418C124.102 21.8418 125.474 21.4682 126.698 20.7148L126.173 19.8633ZM122.594 20.8418C120.758 20.8418 119.306 20.2676 118.191 19.1439L117.481 19.8483C118.808 21.1856 120.528 21.8418 122.594 21.8418V20.8418ZM118.192 19.1452C117.078 18.0148 116.504 16.5129 116.504 14.5879H115.504C115.504 16.728 116.151 18.4982 117.48 19.847L118.192 19.1452ZM116.504 14.5879C116.504 12.6999 117.026 11.034 118.065 9.57314L117.251 8.99326C116.085 10.6314 115.504 12.5019 115.504 14.5879H116.504ZM118.064 9.57466C119.466 7.62114 121.454 6.63867 124.097 6.63867V5.63867C121.163 5.63867 118.858 6.75255 117.252 8.99175L118.064 9.57466ZM124.097 6.63867C125.763 6.63867 127.035 7.15069 127.973 8.13742L128.698 7.44851C127.54 6.22952 125.987 5.63867 124.097 5.63867V6.63867ZM127.975 8.13892C128.909 9.11383 129.408 10.5107 129.408 12.4004H130.408C130.408 10.3343 129.859 8.65961 128.697 7.44702L127.975 8.13892ZM129.408 12.4004C129.408 13.3171 129.32 14.129 129.148 14.8399L130.121 15.0742C130.314 14.272 130.408 13.3795 130.408 12.4004H129.408ZM126.825 12.5907C126.834 12.4151 126.84 12.2725 126.84 12.168H125.84C125.84 12.2457 125.836 12.3675 125.827 12.5382L126.825 12.5907ZM126.84 12.168C126.84 11.0278 126.585 10.0793 125.987 9.41391L125.243 10.0822C125.611 10.4923 125.84 11.1571 125.84 12.168H126.84ZM125.987 9.41391C125.397 8.75705 124.607 8.44141 123.674 8.44141V9.44141C124.362 9.44141 124.867 9.66352 125.243 10.0822L125.987 9.41391ZM123.674 8.44141C122.722 8.44141 121.873 8.80477 121.143 9.49377L121.829 10.2211C122.393 9.68872 123.003 9.44141 123.674 9.44141V8.44141ZM121.14 9.49621C120.404 10.2013 119.936 11.2121 119.696 12.4707L120.678 12.6582C120.894 11.5288 121.292 10.7349 121.832 10.2186L121.14 9.49621ZM120.187 13.0645H126.326V12.0645H120.187V13.0645ZM144.776 21V21.5H145.182L145.265 21.1022L144.776 21ZM141.057 21L140.568 20.8979L140.442 21.5H141.057V21ZM141.385 19.4277L141.875 19.5299L142.205 17.9455L141.039 19.0673L141.385 19.4277ZM139.28 20.9043L139.476 21.3642L139.479 21.3629L139.28 20.9043ZM133.291 19.8105L132.92 20.1456L132.923 20.149L133.291 19.8105ZM143.463 8.46289L143.04 8.72923L143.699 9.77612L143.953 8.5654L143.463 8.46289ZM145.036 0.957031V0.457031H144.63L144.546 0.85452L145.036 0.957031ZM148.959 0.957031L149.449 1.0592L149.575 0.457031H148.959V0.957031ZM136.491 17.5273L136.117 17.8599L136.12 17.8631L136.491 17.5273ZM140.415 17.6777L140.725 18.0699L140.725 18.0693L140.415 17.6777ZM141.891 15.4355L141.423 15.2609L141.421 15.2647L141.891 15.4355ZM144.776 20.5H141.057V21.5H144.776V20.5ZM141.547 21.1021L141.875 19.5299L140.896 19.3256L140.568 20.8979L141.547 21.1021ZM141.039 19.0673C140.358 19.7216 139.705 20.1746 139.081 20.4457L139.479 21.3629C140.24 21.0324 140.99 20.501 141.732 19.7882L141.039 19.0673ZM139.084 20.4444C138.471 20.7056 137.765 20.8418 136.956 20.8418V21.8418C137.878 21.8418 138.721 21.6863 139.476 21.3642L139.084 20.4444ZM136.956 20.8418C135.578 20.8418 134.495 20.3806 133.66 19.4721L132.923 20.149C133.966 21.2821 135.325 21.8418 136.956 21.8418V20.8418ZM133.663 19.4755C132.846 18.5711 132.397 17.1937 132.397 15.2578H131.397C131.397 17.3324 131.877 18.9901 132.92 20.1456L133.663 19.4755ZM132.397 15.2578C132.397 13.0345 133.023 11.0339 134.276 9.24154L133.456 8.66861C132.084 10.6315 131.397 12.8327 131.397 15.2578H132.397ZM134.276 9.24154C135.501 7.48819 137.089 6.63867 139.075 6.63867V5.63867C136.74 5.63867 134.855 6.66676 133.456 8.66861L134.276 9.24154ZM139.075 6.63867C140.867 6.63867 142.163 7.33626 143.04 8.72923L143.887 8.19655C142.813 6.49056 141.184 5.63867 139.075 5.63867V6.63867ZM143.953 8.5654L145.525 1.05954L144.546 0.85452L142.974 8.36038L143.953 8.5654ZM145.036 1.45703H148.959V0.457031H145.036V1.45703ZM148.47 0.854867L144.286 20.8978L145.265 21.1022L149.449 1.0592L148.47 0.854867ZM135.211 15.0938C135.211 16.2143 135.492 17.1583 136.117 17.8599L136.864 17.1948C136.45 16.7297 136.211 16.0513 136.211 15.0938H135.211ZM136.12 17.8631C136.741 18.5477 137.521 18.9023 138.432 18.9023V17.9023C137.812 17.9023 137.298 17.6737 136.861 17.1916L136.12 17.8631ZM138.432 18.9023C139.267 18.9023 140.035 18.6157 140.725 18.0699L140.104 17.2856C139.573 17.7059 139.02 17.9023 138.432 17.9023V18.9023ZM140.725 18.0693C141.439 17.5029 141.975 16.6666 142.361 15.6064L141.421 15.2647C141.078 16.2097 140.63 16.8681 140.104 17.2862L140.725 18.0693ZM142.36 15.6102C142.751 14.5606 142.952 13.5398 142.952 12.5508H141.952C141.952 13.4029 141.779 14.3053 141.423 15.2609L142.36 15.6102ZM142.952 12.5508C142.952 11.4094 142.642 10.4361 141.981 9.67894L141.227 10.3367C141.696 10.8738 141.952 11.5958 141.952 12.5508H142.952ZM141.981 9.67894C141.338 8.94273 140.556 8.53711 139.649 8.53711V9.53711C140.219 9.53711 140.74 9.77862 141.227 10.3367L141.981 9.67894ZM139.649 8.53711C138.27 8.53711 137.184 9.32081 136.386 10.7008L137.252 11.2016C137.93 10.0294 138.731 9.53711 139.649 9.53711V8.53711ZM136.386 10.7008C135.603 12.0535 135.211 13.5209 135.211 15.0938H136.211C136.211 13.6953 136.558 12.4009 137.252 11.2016L136.386 10.7008ZM1.12109 49L0.631709 48.8975L0.505541 49.5H1.12109V49ZM5.31836 28.957V28.457H4.91222L4.82897 28.8545L5.31836 28.957ZM15.2852 29.0938L15.2091 29.588L15.2164 29.589L15.2852 29.0938ZM18.9492 36.7227L19.3465 37.0262L19.3482 37.0241L18.9492 36.7227ZM16.0781 38.5684L15.924 38.0927L14.333 38.6081L15.9458 39.0505L16.0781 38.5684ZM18.4844 40.0859L18.0915 40.3953L18.0959 40.4007L18.4844 40.0859ZM18.334 45.9648L18.756 46.2331L18.757 46.2314L18.334 45.9648ZM7.73828 37.0508L7.24899 36.9478L7.12215 37.5508H7.73828V37.0508ZM13.9316 36.75L14.0856 37.2257L13.9316 36.75ZM14.1094 32.3887L14.2091 31.8986L14.1988 31.8967L14.1094 32.3887ZM8.73633 32.3066V31.8066H8.33057L8.24704 32.2037L8.73633 32.3066ZM5.91992 45.7734L5.43048 45.6712L5.30469 46.2734H5.91992V45.7734ZM13.248 45.459L13.422 45.9278L13.426 45.9262L13.248 45.459ZM14.6152 44.3926L14.2063 44.1048L14.2028 44.11L14.6152 44.3926ZM14.3965 41.1934L14.0643 41.5671L14.0682 41.5705L14.3965 41.1934ZM7.01367 40.5371V40.0371H6.60732L6.52423 40.4349L7.01367 40.5371ZM1.61048 49.1025L5.80774 29.0595L4.82897 28.8545L0.631709 48.8975L1.61048 49.1025ZM5.31836 29.457H12.168V28.457H5.31836V29.457ZM12.168 29.457C13.6545 29.457 14.6587 29.5033 15.2091 29.5879L15.3612 28.5996C14.7267 28.5019 13.6528 28.457 12.168 28.457V29.457ZM15.2164 29.589C16.15 29.7187 16.9163 29.9747 17.5299 30.3428L18.0444 29.4853C17.2907 29.0331 16.3891 28.7423 15.3539 28.5985L15.2164 29.589ZM17.5299 30.3428C18.1371 30.7072 18.5908 31.1867 18.9021 31.7854L19.7893 31.324C19.3897 30.5555 18.8043 29.9413 18.0444 29.4853L17.5299 30.3428ZM18.9021 31.7854C19.2177 32.3923 19.3789 33.0688 19.3789 33.8242H20.3789C20.3789 32.9208 20.1846 32.0842 19.7893 31.324L18.9021 31.7854ZM19.3789 33.8242C19.3789 34.8368 19.099 35.695 18.5503 36.4212L19.3482 37.0241C20.039 36.1097 20.3789 35.0356 20.3789 33.8242H19.3789ZM18.5519 36.4191C18.0113 37.1266 17.1533 37.6945 15.924 38.0927L16.2322 39.044C17.5915 38.6037 18.6475 37.9411 19.3465 37.0262L18.5519 36.4191ZM15.9458 39.0505C16.8889 39.3092 17.5931 39.7624 18.0916 40.3953L18.8772 39.7766C18.2272 38.9512 17.3273 38.3926 16.2104 38.0862L15.9458 39.0505ZM18.0959 40.4007C18.6084 41.0333 18.8594 41.7384 18.8594 42.5332H19.8594C19.8594 41.5051 19.527 40.5787 18.8729 39.7712L18.0959 40.4007ZM18.8594 42.5332C18.8594 43.6357 18.5477 44.688 17.911 45.6982L18.757 46.2314C19.4874 45.0725 19.8594 43.8369 19.8594 42.5332H18.8594ZM17.912 45.6966C17.286 46.6815 16.4269 47.3881 15.3206 47.8239L15.6872 48.7543C16.9871 48.2422 18.0147 47.3992 18.756 46.2331L17.912 45.6966ZM15.3206 47.8239C14.2007 48.265 12.6267 48.5 10.5684 48.5V49.5C12.6845 49.5 14.4008 49.261 15.6872 48.7543L15.3206 47.8239ZM10.5684 48.5H1.12109V49.5H10.5684V48.5ZM7.73828 37.5508H10.8828V36.5508H7.73828V37.5508ZM10.8828 37.5508C12.3014 37.5508 13.3856 37.4522 14.0856 37.2257L13.7777 36.2743C13.2381 36.4489 12.2897 36.5508 10.8828 36.5508V37.5508ZM14.0856 37.2257C14.7911 36.9975 15.3564 36.6104 15.7396 36.0468L14.9127 35.4845C14.6762 35.8323 14.3118 36.1015 13.7777 36.2743L14.0856 37.2257ZM15.7396 36.0468C16.1023 35.5134 16.291 34.9288 16.291 34.3027H15.291C15.291 34.7158 15.1698 35.1063 14.9127 35.4845L15.7396 36.0468ZM16.291 34.3027C16.291 33.691 16.1133 33.1471 15.7272 32.7127L14.9798 33.3771C15.1771 33.599 15.291 33.8936 15.291 34.3027H16.291ZM15.7272 32.7127C15.3474 32.2854 14.8259 32.0242 14.209 31.8987L14.0097 32.8786C14.4684 32.9719 14.7763 33.1482 14.9798 33.3771L15.7272 32.7127ZM14.1988 31.8967C13.8441 31.8322 13.0689 31.8066 11.9355 31.8066V32.8066C13.099 32.8066 13.7731 32.8357 14.0199 32.8806L14.1988 31.8967ZM11.9355 31.8066H8.73633V32.8066H11.9355V31.8066ZM8.24704 32.2037L7.24899 36.9478L8.22757 37.1537L9.22562 32.4096L8.24704 32.2037ZM5.91992 46.2734H9.89844V45.2734H5.91992V46.2734ZM9.89844 46.2734C10.7413 46.2734 11.4542 46.247 12.0335 46.1926C12.6048 46.139 13.0773 46.0556 13.422 45.9278L13.0741 44.9902C12.8537 45.072 12.4853 45.1458 11.9401 45.197C11.4029 45.2474 10.7235 45.2734 9.89844 45.2734V46.2734ZM13.426 45.9262C14.0924 45.6724 14.6311 45.254 15.0277 44.6752L14.2028 44.11C13.9249 44.5155 13.5522 44.8081 13.07 44.9917L13.426 45.9262ZM15.0241 44.6803C15.4235 44.1128 15.6348 43.4942 15.6348 42.834H14.6348C14.6348 43.2675 14.4996 43.688 14.2063 44.1048L15.0241 44.6803ZM15.6348 42.834C15.6348 42.0273 15.3285 41.3417 14.7247 40.8162L14.0682 41.5705C14.4489 41.9018 14.6348 42.31 14.6348 42.834H15.6348ZM14.7287 40.8197C14.0977 40.2588 13.1234 40.0371 11.9355 40.0371V41.0371C13.0445 41.0371 13.7109 41.2529 14.0643 41.5671L14.7287 40.8197ZM11.9355 40.0371H7.01367V41.0371H11.9355V40.0371ZM6.52423 40.4349L5.43048 45.6712L6.40936 45.8757L7.50311 40.6393L6.52423 40.4349ZM24.4519 34.4805V33.9805H24.0456L23.9625 34.3782L24.4519 34.4805ZM28.1159 34.4805L28.6054 34.5826L28.7311 33.9805H28.1159V34.4805ZM27.528 37.2969L27.0386 37.1947L27.9474 37.5692L27.528 37.2969ZM33.7898 34.5625L34.2426 34.7745L34.4602 34.3096L33.9898 34.1043L33.7898 34.5625ZM32.2859 37.7754L32.1169 38.246L32.5456 38.3999L32.7387 37.9874L32.2859 37.7754ZM29.0866 38.3496L28.7925 37.9452L28.79 37.9471L29.0866 38.3496ZM27.4597 40.4004L27.9135 40.6102L27.9144 40.6084L27.4597 40.4004ZM26.2976 44.4473L26.7869 44.5501L26.7872 44.5486L26.2976 44.4473ZM25.3405 49V49.5H25.7464L25.8299 49.1029L25.3405 49ZM21.4167 49L20.9273 48.8977L20.8014 49.5H21.4167V49ZM24.4519 34.9805H28.1159V33.9805H24.4519V34.9805ZM27.6265 34.3783L27.0386 37.1947L28.0175 37.399L28.6054 34.5826L27.6265 34.3783ZM27.9474 37.5692C29.2775 35.5208 30.6267 34.6387 31.9714 34.6387V33.6387C30.126 33.6387 28.5129 34.8621 27.1087 37.0246L27.9474 37.5692ZM31.9714 34.6387C32.4528 34.6387 32.9904 34.7591 33.5897 35.0207L33.9898 34.1043C33.2949 33.8008 32.6203 33.6387 31.9714 33.6387V34.6387ZM33.3369 34.3505L31.833 37.5634L32.7387 37.9874L34.2426 34.7745L33.3369 34.3505ZM32.4548 37.3048C32.0419 37.1566 31.6061 37.084 31.1511 37.084V38.084C31.4981 38.084 31.8189 38.139 32.1169 38.246L32.4548 37.3048ZM31.1511 37.084C30.3442 37.084 29.5553 37.3905 28.7926 37.9452L29.3807 38.754C30.0216 38.2879 30.609 38.084 31.1511 38.084V37.084ZM28.79 37.9471C28.0226 38.5126 27.4288 39.2659 27.005 40.1924L27.9144 40.6084C28.2744 39.8213 28.7653 39.2075 29.3832 38.7521L28.79 37.9471ZM27.0059 40.1906C26.5888 41.0926 26.1923 42.4882 25.8079 44.346L26.7872 44.5486C27.1685 42.7058 27.5467 41.4035 27.9135 40.6102L27.0059 40.1906ZM25.8083 44.3444L24.8512 48.8971L25.8299 49.1029L26.7869 44.5501L25.8083 44.3444ZM25.3405 48.5H21.4167V49.5H25.3405V48.5ZM21.9061 49.1023L24.9413 34.5828L23.9625 34.3782L20.9273 48.8977L21.9061 49.1023ZM35.6694 36.5449L35.3067 36.2008L35.3066 36.2008L35.6694 36.5449ZM46.6752 35.916L46.3244 36.2723L46.3258 36.2736L46.6752 35.916ZM43.7631 37.9395L43.4009 38.2842L43.4067 38.2901L43.7631 37.9395ZM39.4155 37.8848L39.7258 38.2768L39.7291 38.2741L39.4155 37.8848ZM37.8842 40.168L38.3536 40.3402L38.3541 40.3388L37.8842 40.168ZM38.185 45.3906L37.818 45.7302L38.185 45.3906ZM43.0248 44.9258L42.6339 44.6141L42.6329 44.6153L43.0248 44.9258ZM33.8998 42.9707C33.8998 40.3798 34.626 38.3714 36.0321 36.889L35.3066 36.2008C33.6867 37.9085 32.8998 40.184 32.8998 42.9707H33.8998ZM36.0321 36.8891C37.4483 35.3966 39.3071 34.6387 41.6577 34.6387V33.6387C39.0681 33.6387 36.9347 34.485 35.3067 36.2008L36.0321 36.8891ZM41.6577 34.6387C43.7053 34.6387 45.2382 35.2025 46.3244 36.2723L47.0261 35.5598C45.706 34.2597 43.8939 33.6387 41.6577 33.6387V34.6387ZM46.3258 36.2736C47.4149 37.3379 47.9799 38.7853 47.9799 40.6738H48.9799C48.9799 38.5702 48.3419 36.8457 47.0247 35.5584L46.3258 36.2736ZM47.9799 40.6738C47.9799 42.9082 47.2694 44.8224 45.8483 46.4417L46.5999 47.1013C48.1865 45.2934 48.9799 43.1426 48.9799 40.6738H47.9799ZM45.8483 46.4417C44.4501 48.0347 42.5792 48.8418 40.1811 48.8418V49.8418C42.8324 49.8418 44.9902 48.9354 46.5999 47.1013L45.8483 46.4417ZM40.1811 48.8418C38.8819 48.8418 37.7505 48.5824 36.7741 48.0774L36.3147 48.9656C37.4529 49.5543 38.7459 49.8418 40.1811 49.8418V48.8418ZM36.7741 48.0774C35.8033 47.5753 35.0924 46.8729 34.6231 45.9672L33.7352 46.4273C34.305 47.5268 35.1708 48.374 36.3147 48.9656L36.7741 48.0774ZM34.6231 45.9672C34.141 45.037 33.8998 44.0405 33.8998 42.9707H32.8998C32.8998 44.1978 33.1782 45.3524 33.7352 46.4273L34.6231 45.9672ZM45.0834 40.168C45.0834 39.1341 44.7758 38.256 44.1196 37.5888L43.4067 38.2901C43.8442 38.7349 44.0834 39.3425 44.0834 40.168H45.0834ZM44.1253 37.5948C43.4834 36.9202 42.6501 36.5918 41.6713 36.5918V37.5918C42.4061 37.5918 42.9673 37.8285 43.4009 38.2841L44.1253 37.5948ZM41.6713 36.5918C40.7103 36.5918 39.8475 36.8947 39.1018 37.4954L39.7291 38.2741C40.2959 37.8175 40.9371 37.5918 41.6713 37.5918V36.5918ZM39.1051 37.4927C38.3588 38.0836 37.802 38.931 37.4143 39.9971L38.3541 40.3388C38.6956 39.3997 39.1597 38.725 39.7258 38.2768L39.1051 37.4927ZM37.4148 39.9957C37.0351 41.0305 36.8373 42.0056 36.8373 42.916H37.8373C37.8373 42.1494 38.0042 41.2924 38.3536 40.3402L37.4148 39.9957ZM36.8373 42.916C36.8373 44.0483 37.1475 45.0056 37.818 45.7302L38.552 45.051C38.0923 44.5543 37.8373 43.8619 37.8373 42.916H36.8373ZM37.818 45.7302C38.4809 46.4466 39.3264 46.8066 40.3178 46.8066V45.8066C39.5957 45.8066 39.0193 45.556 38.552 45.051L37.818 45.7302ZM40.3178 46.8066C41.5615 46.8066 42.6028 46.2639 43.4168 45.2362L42.6329 44.6153C41.9886 45.4288 41.2252 45.8066 40.3178 45.8066V46.8066ZM43.4158 45.2375C44.534 43.8348 45.0834 42.1352 45.0834 40.168H44.0834C44.0834 41.9377 43.5938 43.41 42.6339 44.6141L43.4158 45.2375ZM50.1545 49L49.6651 48.8975L49.5389 49.5H50.1545V49ZM54.3517 28.957V28.457H53.9456L53.8623 28.8545L54.3517 28.957ZM58.2755 28.957L58.7649 29.0597L58.8913 28.457H58.2755V28.957ZM56.088 39.3887L55.5987 39.2861L55.2665 40.8704L56.4343 39.7494L56.088 39.3887ZM61.2013 34.4805V33.9805H61.0002L60.8551 34.1198L61.2013 34.4805ZM66.3009 34.4805L66.6362 34.8514L67.5997 33.9805H66.3009V34.4805ZM60.463 39.7578L60.1278 39.3869L59.8848 39.6065L59.9891 39.917L60.463 39.7578ZM63.5666 49V49.5H64.2619L64.0406 48.8408L63.5666 49ZM59.6427 49L59.1635 49.1425L59.2698 49.5H59.6427V49ZM57.6466 42.2871L58.1259 42.1446L57.9022 41.3923L57.3149 41.913L57.6466 42.2871ZM54.9943 44.6387L54.6626 44.2645L54.5389 44.3742L54.505 44.5359L54.9943 44.6387ZM54.0783 49V49.5H54.4842L54.5676 49.1028L54.0783 49ZM50.6438 49.1025L54.8411 29.0595L53.8623 28.8545L49.6651 48.8975L50.6438 49.1025ZM54.3517 29.457H58.2755V28.457H54.3517V29.457ZM57.7862 28.8544L55.5987 39.2861L56.5774 39.4913L58.7649 29.0597L57.7862 28.8544ZM56.4343 39.7494L61.5476 34.8412L60.8551 34.1198L55.7418 39.028L56.4343 39.7494ZM61.2013 34.9805H66.3009V33.9805H61.2013V34.9805ZM65.9656 34.1096L60.1278 39.3869L60.7983 40.1287L66.6362 34.8514L65.9656 34.1096ZM59.9891 39.917L63.0926 49.1592L64.0406 48.8408L60.937 39.5986L59.9891 39.917ZM63.5666 48.5H59.6427V49.5H63.5666V48.5ZM60.122 48.8575L58.1259 42.1446L57.1674 42.4296L59.1635 49.1425L60.122 48.8575ZM57.3149 41.913L54.6626 44.2645L55.326 45.0128L57.9783 42.6612L57.3149 41.913ZM54.505 44.5359L53.589 48.8972L54.5676 49.1028L55.4836 44.7414L54.505 44.5359ZM54.0783 48.5H50.1545V49.5H54.0783V48.5ZM80.2255 42.957V43.457H80.6193L80.7116 43.0742L80.2255 42.957ZM70.3817 42.957V42.457H69.9103L69.8826 42.9277L70.3817 42.957ZM71.1884 45.6504L70.8209 45.9895L70.8238 45.9925L71.1884 45.6504ZM76.2606 44.5156L76.3431 44.0225L75.9907 43.9635L75.8208 44.2779L76.2606 44.5156ZM79.7743 45.1035L80.2244 45.3213L80.5151 44.7205L79.8568 44.6104L79.7743 45.1035ZM77.0263 48.2891L77.2885 48.7148L77.2894 48.7142L77.0263 48.2891ZM68.4266 47.4961L68.0705 47.847L68.0718 47.8483L68.4266 47.4961ZM68.2489 37.2832L67.8426 36.9917L67.8416 36.9933L68.2489 37.2832ZM78.9266 35.793L78.5642 36.1374L78.5657 36.1389L78.9266 35.793ZM76.9169 40.5645V41.0645H77.3913L77.4162 40.5907L76.9169 40.5645ZM72.077 37.8574L71.7339 37.4938L71.7313 37.4962L72.077 37.8574ZM70.7782 40.5645L70.2871 40.4707L70.1738 41.0645H70.7782V40.5645ZM80.2255 42.457H70.3817V43.457H80.2255V42.457ZM69.8826 42.9277C69.8733 43.0854 69.868 43.2156 69.868 43.3125H70.868C70.868 43.2454 70.8719 43.1385 70.8809 42.9864L69.8826 42.9277ZM69.868 43.3125C69.868 44.378 70.1725 45.287 70.821 45.9895L71.5558 45.3112C71.1105 44.8289 70.868 44.1793 70.868 43.3125H69.868ZM70.8238 45.9925C71.4716 46.6829 72.2769 47.0391 73.2118 47.0391V46.0391C72.5607 46.0391 72.0171 45.8028 71.553 45.3082L70.8238 45.9925ZM73.2118 47.0391C74.7348 47.0391 75.9025 46.2296 76.7005 44.7534L75.8208 44.2779C75.1604 45.4996 74.2956 46.0391 73.2118 46.0391V47.0391ZM76.1781 45.0088L79.6918 45.5967L79.8568 44.6104L76.3431 44.0225L76.1781 45.0088ZM79.3242 44.8857C78.6751 46.2272 77.8184 47.2106 76.7631 47.8639L77.2894 48.7142C78.531 47.9456 79.5063 46.8054 80.2244 45.3213L79.3242 44.8857ZM76.764 47.8633C75.7085 48.5135 74.5198 48.8418 73.1845 48.8418V49.8418C74.6929 49.8418 76.0653 49.4682 77.2885 48.7148L76.764 47.8633ZM73.1845 48.8418C71.349 48.8418 69.8969 48.2676 68.7815 47.1439L68.0718 47.8483C69.3991 49.1856 71.1189 49.8418 73.1845 49.8418V48.8418ZM68.7828 47.1452C67.6691 46.0148 67.0946 44.5129 67.0946 42.5879H66.0946C66.0946 44.728 66.7415 46.4982 68.0705 47.847L68.7828 47.1452ZM67.0946 42.5879C67.0946 40.6999 67.6165 39.034 68.6563 37.5731L67.8416 36.9933C66.6756 38.6314 66.0946 40.5019 66.0946 42.5879H67.0946ZM68.6552 37.5747C70.0566 35.6211 72.0451 34.6387 74.6884 34.6387V33.6387C71.7535 33.6387 69.449 34.7526 67.8426 36.9917L68.6552 37.5747ZM74.6884 34.6387C76.3538 34.6387 77.6264 35.1507 78.5642 36.1374L79.2891 35.4485C78.1305 34.2295 76.5777 33.6387 74.6884 33.6387V34.6387ZM78.5657 36.1389C79.4999 37.1138 79.9989 38.5107 79.9989 40.4004H80.9989C80.9989 38.3343 80.4497 36.6596 79.2876 35.447L78.5657 36.1389ZM79.9989 40.4004C79.9989 41.3171 79.9107 42.129 79.7394 42.8399L80.7116 43.0742C80.9048 42.272 80.9989 41.3795 80.9989 40.4004H79.9989ZM77.4162 40.5907C77.4254 40.4151 77.4305 40.2725 77.4305 40.168H76.4305C76.4305 40.2457 76.4266 40.3675 76.4176 40.5382L77.4162 40.5907ZM77.4305 40.168C77.4305 39.0278 77.1757 38.0793 76.5779 37.4139L75.834 38.0822C76.2024 38.4923 76.4305 39.1571 76.4305 40.168H77.4305ZM76.5779 37.4139C75.9878 36.757 75.1984 36.4414 74.2645 36.4414V37.4414C74.9531 37.4414 75.4579 37.6635 75.834 38.0822L76.5779 37.4139ZM74.2645 36.4414C73.3129 36.4414 72.464 36.8048 71.7339 37.4938L72.4202 38.2211C72.9843 37.6887 73.5938 37.4414 74.2645 37.4414V36.4414ZM71.7313 37.4962C70.9947 38.2013 70.5273 39.2121 70.2871 40.4707L71.2693 40.6582C71.4849 39.5288 71.8834 38.7349 72.4228 38.2186L71.7313 37.4962ZM70.7782 41.0645H76.9169V40.0645H70.7782V41.0645ZM84.7711 34.4805V33.9805H84.3648L84.2817 34.3782L84.7711 34.4805ZM88.4352 34.4805L88.9246 34.5826L89.0503 33.9805H88.4352V34.4805ZM87.8473 37.2969L87.3578 37.1947L88.2666 37.5692L87.8473 37.2969ZM94.109 34.5625L94.5618 34.7745L94.7794 34.3096L94.3091 34.1043L94.109 34.5625ZM92.6051 37.7754L92.4361 38.246L92.8648 38.3999L93.0579 37.9874L92.6051 37.7754ZM89.4059 38.3496L89.1118 37.9452L89.1093 37.9471L89.4059 38.3496ZM87.7789 40.4004L88.2327 40.6102L88.2336 40.6084L87.7789 40.4004ZM86.6168 44.4473L87.1061 44.5501L87.1064 44.5486L86.6168 44.4473ZM85.6598 49V49.5H86.0656L86.1491 49.1029L85.6598 49ZM81.7359 49L81.2465 48.8977L81.1206 49.5H81.7359V49ZM84.7711 34.9805H88.4352V33.9805H84.7711V34.9805ZM87.9457 34.3783L87.3578 37.1947L88.3367 37.399L88.9246 34.5826L87.9457 34.3783ZM88.2666 37.5692C89.5968 35.5208 90.9459 34.6387 92.2906 34.6387V33.6387C90.4452 33.6387 88.8322 34.8621 87.4279 37.0246L88.2666 37.5692ZM92.2906 34.6387C92.772 34.6387 93.3096 34.7591 93.9089 35.0207L94.3091 34.1043C93.6141 33.8008 92.9395 33.6387 92.2906 33.6387V34.6387ZM93.6561 34.3505L92.1522 37.5634L93.0579 37.9874L94.5618 34.7745L93.6561 34.3505ZM92.774 37.3048C92.3611 37.1566 91.9254 37.084 91.4703 37.084V38.084C91.8174 38.084 92.1382 38.139 92.4361 38.246L92.774 37.3048ZM91.4703 37.084C90.6634 37.084 89.8745 37.3905 89.1118 37.9452L89.6999 38.754C90.3408 38.2879 90.9283 38.084 91.4703 38.084V37.084ZM89.1093 37.9471C88.3418 38.5126 87.748 39.2659 87.3242 40.1924L88.2336 40.6084C88.5936 39.8213 89.0845 39.2075 89.7025 38.7521L89.1093 37.9471ZM87.3251 40.1906C86.908 41.0926 86.5115 42.4882 86.1272 44.346L87.1064 44.5486C87.4877 42.7058 87.866 41.4035 88.2327 40.6102L87.3251 40.1906ZM86.1275 44.3444L85.1705 48.8971L86.1491 49.1029L87.1061 44.5501L86.1275 44.3444ZM85.6598 48.5H81.7359V49.5H85.6598V48.5ZM82.2254 49.1023L85.2605 34.5828L84.2817 34.3782L81.2465 48.8977L82.2254 49.1023Z" fill="white"/>
</svg>
