<svg width="65" height="65" viewBox="0 0 65 65" fill="none" xmlns="http://www.w3.org/2000/svg">
<path d="M32.4994 5.41699C17.5358 5.41699 5.41602 17.5368 5.41602 32.5003C5.41602 47.4639 17.5358 59.5837 32.4994 59.5837C47.4629 59.5837 59.5827 47.4639 59.5827 32.5003C59.5827 17.5368 47.4629 5.41699 32.4994 5.41699ZM35.2077 51.4587H29.791V46.042H35.2077V51.4587ZM40.8004 30.4826L38.3764 32.9743C36.4264 34.9243 35.2077 36.5628 35.2077 40.6253H29.791V39.2712C29.791 36.2785 31.0098 33.5701 32.9598 31.6066L36.3316 28.1941C37.3066 27.2191 37.916 25.8649 37.916 24.3753C37.916 21.3826 35.4921 18.9587 32.4994 18.9587C29.5066 18.9587 27.0827 21.3826 27.0827 24.3753H21.666C21.666 18.3899 26.5139 13.542 32.4994 13.542C38.4848 13.542 43.3327 18.3899 43.3327 24.3753C43.3327 26.7587 42.3712 28.9118 40.8004 30.4826Z" fill="black"/>
</svg>
