<svg width="24" height="24" viewBox="0 0 24 24" fill="none" xmlns="http://www.w3.org/2000/svg">
<path fill-rule="evenodd" clip-rule="evenodd" d="M2 0C0.895431 0 0 0.89543 0 2V22C0 23.1046 0.89543 24 2 24H22C23.1046 24 24 23.1046 24 22V2C24 0.895431 23.1046 0 22 0H2ZM5.54545 7.63636C5.54545 5.9293 6.9293 4.54545 8.63636 4.54545H16.3636C18.0707 4.54545 19.4545 5.9293 19.4545 7.63636V15.3636C19.4545 17.0707 18.0707 18.4545 16.3636 18.4545H8.63636C6.9293 18.4545 5.54545 17.0707 5.54545 15.3636V7.63636ZM8.63636 3C6.07577 3 4 5.07577 4 7.63636V15.3636C4 17.9242 6.07577 20 8.63636 20H16.3636C18.9242 20 21 17.9242 21 15.3636V7.63636C21 5.07577 18.9242 3 16.3636 3H8.63636ZM12.8736 9.17307C12.3913 9.10155 11.8987 9.18393 11.4659 9.40851C11.0331 9.63308 10.6821 9.98841 10.4629 10.4239C10.2437 10.8595 10.1674 11.3531 10.2448 11.8345C10.3223 12.3159 10.5496 12.7606 10.8944 13.1054C11.2391 13.4502 11.6839 13.6775 12.1653 13.7549C12.6467 13.8324 13.1403 13.7561 13.5758 13.5369C14.0113 13.3176 14.3667 12.9667 14.5912 12.5339C14.8158 12.1011 14.8982 11.6085 14.8267 11.1261C14.7537 10.6342 14.5245 10.1787 14.1728 9.82698C13.8211 9.47528 13.3656 9.24603 12.8736 9.17307ZM10.7541 8.03673C11.4754 7.66244 12.2964 7.52513 13.1003 7.64433C13.9203 7.76593 14.6794 8.14802 15.2656 8.73418C15.8517 9.32033 16.2338 10.0795 16.3554 10.8994C16.4746 11.7033 16.3373 12.5243 15.963 13.2457C15.5887 13.967 14.9965 14.5519 14.2706 14.9173C13.5447 15.2827 12.7221 15.4099 11.9197 15.2807C11.1174 15.1516 10.3762 14.7728 9.80156 14.1982C9.22692 13.6235 8.8481 12.8823 8.719 12.08C8.58989 11.2777 8.71706 10.455 9.08243 9.72913C9.44779 9.00323 10.0327 8.41102 10.7541 8.03673ZM16.7508 6.47705C16.324 6.47705 15.978 6.82301 15.978 7.24978C15.978 7.67654 16.324 8.02251 16.7508 8.02251H16.7585C17.1852 8.02251 17.5312 7.67654 17.5312 7.24978C17.5312 6.82301 17.1852 6.47705 16.7585 6.47705H16.7508Z" fill="white"/>
</svg>
