<svg width="24" height="24" viewBox="0 0 24 24" fill="none" xmlns="http://www.w3.org/2000/svg">
<path fill-rule="evenodd" clip-rule="evenodd" d="M22 0H2C0.9 0 0 0.9 0 2V22C0 23.1 0.9 24 2 24H22C23.1 24 24 23.1 24 22V2C24 0.9 23.1 0 22 0ZM15.5 12C15.3333 12 15.1111 12.1111 14.8148 12.2593C14.2222 12.5556 13.3333 13 12 13C10.6667 13 9.77778 12.5556 9.18519 12.2593C8.88889 12.1111 8.66667 12 8.5 12C7.95 12 7.5 12.45 7.5 13C7.5 13.5 7.8 13.75 8 13.85C8.6 14.2 10.5 15 10.5 15L8.35 17.7C8.35 17.7 7.95 18.15 7.95 18.5C7.95 19.05 8.4 19.5 8.95 19.5C9.45 19.5 9.7 19.15 9.7 19.15L12 16.5L14.25 19.15C14.25 19.15 14.5 19.5 15 19.5C15.55 19.5 16 19.05 16 18.5C16 18.2 15.6 17.7 15.6 17.7L13.5 15C13.5 15 15.4 14.2 16 13.85L16.0273 13.8296C16.2262 13.6815 16.5 13.4777 16.5 13C16.5 12.45 16.05 12 15.5 12ZM8.5 8C8.5 6.05 10.05 4.5 12 4.5C13.95 4.5 15.5 6.05 15.5 8C15.5 9.95 13.95 11.5 12 11.5C10.05 11.5 8.5 9.95 8.5 8ZM10.25 8C10.25 8.95 11.05 9.75 12 9.75C12.95 9.75 13.75 8.95 13.75 8C13.75 7.05 12.95 6.25 12 6.25C11.05 6.25 10.25 7.05 10.25 8Z" fill="white"/>
</svg>
