<svg width="24" height="24" viewBox="0 0 24 24" fill="none" xmlns="http://www.w3.org/2000/svg">
<path fill-rule="evenodd" clip-rule="evenodd" d="M2 0H22C23.1 0 24 0.9 24 2V22C24 23.1 23.1 24 22 24H2C0.9 24 0 23.1 0 22V2C0 0.9 0.9 0 2 0ZM17.5 8.25C18.1 8.15 18.95 7.85 19.5 7.6C19.1 8.2 18.6 8.8 18 9.25V9.75C18 13.8 15.15 18.25 9.5 18.25C7.75 18.25 5.85 17.8 4.5 16.95C4.75 17 5 17 5.25 17C6.7 17 7.95 16.55 9 15.75C7.65 15.7 6.4 14.95 6 13.75C6.2 13.8 8 14.25 8.5 13.75C7.1 13.45 5 11.75 5 10.25C5.4 10.5 6 10.75 6.5 10.75C5.65 10.2 5 9.3 5 8.25C5 7.7 5.25 7.2 5.5 6.75C7 8.6 9 9.25 12 9.25H12.05C12 9.1 12 8.95 12 8.75C12 7.05 13.3 5.75 15 5.75C15.9 5.75 16.45 6.15 17 6.75L17.4 7.15C17.81 7.00089 18.2201 6.74062 18.6094 6.4935C18.7423 6.40915 18.8728 6.32634 19 6.25C18.75 6.95 18.15 7.85 17.5 8.25Z" fill="white"/>
</svg>
