<svg width="24" height="24" viewBox="0 0 24 24" fill="none" xmlns="http://www.w3.org/2000/svg">
<path fill-rule="evenodd" clip-rule="evenodd" d="M2 0H22C23.1 0 24 0.9 24 2V22C24 23.1 23.1 24 22 24H2C0.9 24 0 23.1 0 22V2C0 0.9 0.9 0 2 0ZM13.0001 15.5C13.0001 15.8 13.0001 16.5 12.5001 16.5H12.0001C11.0001 16.45 9.85013 16.35 8.10013 14.55C6.20013 12.55 5.50013 11 4.50013 8.5C4.45013 8.3 4.50013 8 5.00013 8H6.50013C6.56847 8 6.62934 7.99813 6.68452 7.99644C7.03307 7.98574 7.1548 7.98201 7.50013 8.5C7.79857 8.94766 8.09701 9.43985 8.38216 9.91012C9.05248 11.0156 9.64935 12 10.0001 12C10.5001 12 10.5001 10 10.5001 10V9C10.5001 8.3929 9.86078 8.46277 9.59322 8.492C9.55228 8.49648 9.52004 8.5 9.50013 8.5C9.40013 8.5 10.0001 8 10.0001 8C10.0001 8 10.7001 7.5 11.5001 7.5H13.0001C13.5875 7.65664 13.5615 8.396 13.5226 9.50189C13.5119 9.80804 13.5001 10.1423 13.5001 10.5C13.5001 11.05 13.5501 12 14.0001 12C14.3276 12 14.4432 11.7353 14.6745 11.2059C14.7611 11.0077 14.8639 10.7724 15.0001 10.5C15.3001 9.85 15.5001 9.5 16.5001 8C16.8501 7.55 19.4001 8.05 19.5001 8.35C19.6001 8.65 18.9001 9.75 18.0001 11C16.8284 12.5624 16.8771 12.5991 17.4312 13.0171C17.5864 13.1342 17.7813 13.2812 18.0001 13.5C19.1501 14.65 19.5001 15.2 19.5001 15.5C19.5001 16.45 18.5001 16.5 18.5001 16.5H17.0001C16.7877 16.5 16.6655 16.5 16.5568 16.4616C16.4098 16.4097 16.2877 16.2875 16.0001 16C15.3501 15.35 14.5001 14.5 14.0001 14.5C13.5001 14.5 13.0001 15 13.0001 15.5Z" fill="white"/>
</svg>
