<svg width="181" height="130" viewBox="0 0 181 130" fill="none" xmlns="http://www.w3.org/2000/svg">
<rect x="0.25" y="0.25" width="180.5" height="129.5" rx="5.75" fill="white" stroke="#CFCDCD" stroke-width="0.5"/>
<path d="M33.0527 108V97.917H34.167V103.099L37.8379 97.917H39.2393L36.0195 102.135L39.335 108H38.0361L35.3428 103.017L34.167 104.486V108H33.0527ZM40.1074 106.141C40.1074 105.808 40.1416 105.525 40.21 105.293C40.2783 105.056 40.3923 104.849 40.5518 104.671C40.7158 104.493 40.905 104.343 41.1191 104.22C41.3379 104.097 41.6205 103.967 41.9668 103.83C42.5319 103.62 42.9762 103.434 43.2998 103.27C43.4183 103.215 43.4935 103.115 43.5254 102.969C43.5619 102.823 43.5801 102.629 43.5801 102.388C43.5801 101.959 43.4958 101.659 43.3272 101.485C43.1631 101.312 42.8691 101.226 42.4453 101.226C42.0534 101.226 41.7731 101.333 41.6045 101.547C41.4359 101.761 41.3516 102.091 41.3516 102.538H40.4014C40.4014 101.782 40.5814 101.226 40.9414 100.87C41.3014 100.51 41.8392 100.33 42.5547 100.33C43.2565 100.33 43.7783 100.51 44.1201 100.87C44.4665 101.226 44.6397 101.679 44.6397 102.23V106.64C44.6397 106.822 44.6738 106.968 44.7422 107.077C44.8106 107.187 44.9131 107.241 45.0498 107.241C45.1364 107.241 45.2162 107.232 45.2891 107.214V108C45.1979 108.055 45.0521 108.082 44.8516 108.082C44.6693 108.082 44.5257 108.071 44.4209 108.048C44.3161 108.03 44.2113 107.986 44.1065 107.918C44.0016 107.845 43.9173 107.736 43.8535 107.59C43.7943 107.439 43.7441 107.241 43.7031 106.995H43.6758C43.5482 107.332 43.3272 107.617 43.0127 107.85C42.6982 108.082 42.3678 108.198 42.0215 108.198C40.7455 108.198 40.1074 107.512 40.1074 106.141ZM41.2149 106.093C41.2149 106.444 41.2946 106.724 41.4541 106.934C41.6182 107.139 41.8688 107.241 42.2061 107.241C43.1221 107.241 43.5801 106.738 43.5801 105.73V103.926C43.4251 104.012 43.2383 104.106 43.0195 104.206C42.8053 104.306 42.6208 104.391 42.4658 104.459C42.3154 104.523 42.1559 104.607 41.9873 104.712C41.8187 104.812 41.682 104.919 41.5772 105.033C41.4723 105.147 41.3857 105.295 41.3174 105.478C41.249 105.655 41.2149 105.86 41.2149 106.093ZM45.7744 107.973V107.132C45.9111 107.159 46.0638 107.173 46.2324 107.173C46.4375 107.173 46.5925 107.102 46.6973 106.961C46.8021 106.815 46.8818 106.535 46.9365 106.12C46.9912 105.705 47.0186 105.099 47.0186 104.302V100.521H51.4277V108H50.3613V101.417H48.0371V104.391C48.0371 104.851 48.0234 105.257 47.9961 105.607C47.9733 105.954 47.9255 106.289 47.8525 106.612C47.7842 106.931 47.6908 107.193 47.5723 107.398C47.4538 107.604 47.2966 107.768 47.1006 107.891C46.9092 108.009 46.6813 108.068 46.417 108.068C46.1663 108.068 45.9522 108.036 45.7744 107.973ZM53.3897 108V100.521H54.4561V103.618H55.9531C56.5638 103.618 57.0606 103.832 57.4434 104.261C57.8307 104.689 58.0244 105.227 58.0244 105.874C58.0244 106.512 57.8307 107.027 57.4434 107.419C57.056 107.806 56.5593 108 55.9531 108H53.3897ZM54.4561 107.104H55.5772C56.0648 107.104 56.4089 107.002 56.6094 106.797C56.8145 106.592 56.917 106.271 56.917 105.833C56.917 104.953 56.4932 104.514 55.6455 104.514H54.4561V107.104ZM59.7061 108V100.521H60.7725V104.008L63.3633 100.521H64.6211L62.3106 103.434L64.6895 108H63.4453L61.5859 104.274L60.7725 105.341V108H59.7061ZM65.1065 100.521H66.2139L67.9775 106.489H68.0049L69.6524 100.521H70.7598L68.4356 108.041C68.3809 108.228 68.333 108.378 68.292 108.492C68.2555 108.606 68.2077 108.745 68.1484 108.909C68.0892 109.073 68.0345 109.205 67.9844 109.306C67.9343 109.406 67.8727 109.52 67.7998 109.647C67.7269 109.775 67.6517 109.878 67.5742 109.955C67.5013 110.037 67.4124 110.119 67.3076 110.201C67.2028 110.283 67.0934 110.347 66.9795 110.393C66.8701 110.438 66.7425 110.475 66.5967 110.502C66.4554 110.534 66.3027 110.55 66.1387 110.55C65.9063 110.55 65.6556 110.507 65.3867 110.42V109.483C65.6374 109.597 65.8971 109.654 66.166 109.654C66.3483 109.654 66.5101 109.616 66.6514 109.538C66.7927 109.465 66.9134 109.354 67.0137 109.203C67.1185 109.053 67.2051 108.896 67.2734 108.731C67.3418 108.567 67.4124 108.365 67.4854 108.123L65.1065 100.521ZM70.7666 107.973V107.132C70.9033 107.159 71.056 107.173 71.2246 107.173C71.4297 107.173 71.5846 107.102 71.6895 106.961C71.7943 106.815 71.874 106.535 71.9287 106.12C71.9834 105.705 72.0107 105.099 72.0107 104.302V100.521H76.4199V108H75.3535V101.417H73.0293V104.391C73.0293 104.851 73.0156 105.257 72.9883 105.607C72.9655 105.954 72.9177 106.289 72.8447 106.612C72.7764 106.931 72.683 107.193 72.5645 107.398C72.446 107.604 72.2887 107.768 72.0928 107.891C71.9014 108.009 71.6735 108.068 71.4092 108.068C71.1585 108.068 70.9443 108.036 70.7666 107.973ZM77.8555 108L79.4482 104.739C79.0335 104.584 78.7054 104.32 78.4639 103.946C78.2223 103.573 78.1016 103.142 78.1016 102.654C78.1016 102.016 78.2953 101.501 78.6826 101.109C79.0746 100.717 79.5736 100.521 80.1797 100.521H82.75V108H81.6904V104.849H80.542L79.0176 108H77.8555ZM79.209 102.695C79.209 103.115 79.3093 103.429 79.5098 103.639C79.7103 103.848 80.0361 103.953 80.4873 103.953H81.6904V101.417H80.5283C80.0498 101.417 79.7103 101.522 79.5098 101.731C79.3093 101.937 79.209 102.258 79.209 102.695ZM83.9326 101.417V100.521H88.9024V101.417H86.9541V108H85.8877V101.417H83.9326ZM89.791 104.233C89.791 101.631 90.6843 100.33 92.4707 100.33C94.2526 100.33 95.1436 101.636 95.1436 104.247C95.1436 104.994 95.082 105.628 94.959 106.147C94.8405 106.667 94.6605 107.075 94.419 107.371C94.1774 107.667 93.8994 107.879 93.585 108.007C93.2705 108.134 92.8991 108.198 92.4707 108.198C92.1335 108.198 91.8327 108.16 91.5684 108.082C91.304 108.005 91.058 107.872 90.8301 107.686C90.6068 107.499 90.4199 107.257 90.2695 106.961C90.1191 106.66 90.0007 106.282 89.9141 105.826C89.832 105.366 89.791 104.835 89.791 104.233ZM90.8984 104.343C90.8984 104.808 90.9235 105.213 90.9736 105.56C91.0238 105.901 91.1058 106.209 91.2197 106.482C91.3382 106.751 91.5 106.956 91.7051 107.098C91.9147 107.234 92.1699 107.303 92.4707 107.303C92.776 107.303 93.0335 107.234 93.2432 107.098C93.4528 106.956 93.6146 106.749 93.7285 106.476C93.8425 106.202 93.9222 105.897 93.9678 105.56C94.0134 105.218 94.0361 104.812 94.0361 104.343C94.0361 103.213 93.9154 102.41 93.6738 101.937C93.4369 101.463 93.0358 101.226 92.4707 101.226C91.901 101.226 91.4955 101.463 91.2539 101.937C91.0169 102.41 90.8984 103.213 90.8984 104.343ZM96.8252 110.604V100.521H97.8916V101.362H97.9053C98.0648 101.034 98.2881 100.781 98.5752 100.604C98.8623 100.421 99.1471 100.33 99.4297 100.33C101.066 100.33 101.884 101.599 101.884 104.138C101.884 104.739 101.845 105.272 101.768 105.737C101.695 106.202 101.572 106.626 101.398 107.009C101.225 107.392 100.979 107.686 100.66 107.891C100.341 108.096 99.9561 108.198 99.5049 108.198C99.1449 108.198 98.8395 108.118 98.5889 107.959C98.3428 107.795 98.1104 107.551 97.8916 107.228V110.604H96.8252ZM97.8916 104.247C97.8916 104.489 97.8939 104.698 97.8984 104.876C97.903 105.049 97.9167 105.25 97.9395 105.478C97.9622 105.701 97.9919 105.892 98.0283 106.052C98.0693 106.211 98.124 106.375 98.1924 106.544C98.2653 106.713 98.3496 106.849 98.4453 106.954C98.5456 107.054 98.6686 107.139 98.8145 107.207C98.9648 107.271 99.1335 107.303 99.3203 107.303C99.5938 107.303 99.8239 107.234 100.011 107.098C100.202 106.961 100.353 106.754 100.462 106.476C100.576 106.193 100.656 105.865 100.701 105.491C100.751 105.113 100.776 104.662 100.776 104.138C100.776 102.196 100.286 101.226 99.3066 101.226C99.097 101.226 98.9124 101.269 98.7529 101.355C98.5934 101.438 98.4635 101.561 98.3633 101.725C98.263 101.889 98.1787 102.062 98.1104 102.244C98.0466 102.426 97.9987 102.643 97.9668 102.894C97.9395 103.14 97.9189 103.363 97.9053 103.563C97.8962 103.764 97.8916 103.992 97.8916 104.247ZM106.929 110.604V100.521H107.995V101.362H108.009C108.168 101.034 108.392 100.781 108.679 100.604C108.966 100.421 109.251 100.33 109.533 100.33C111.169 100.33 111.987 101.599 111.987 104.138C111.987 104.739 111.949 105.272 111.871 105.737C111.798 106.202 111.675 106.626 111.502 107.009C111.329 107.392 111.083 107.686 110.764 107.891C110.445 108.096 110.06 108.198 109.608 108.198C109.248 108.198 108.943 108.118 108.692 107.959C108.446 107.795 108.214 107.551 107.995 107.228V110.604H106.929ZM107.995 104.247C107.995 104.489 107.997 104.698 108.002 104.876C108.007 105.049 108.02 105.25 108.043 105.478C108.066 105.701 108.095 105.892 108.132 106.052C108.173 106.211 108.228 106.375 108.296 106.544C108.369 106.713 108.453 106.849 108.549 106.954C108.649 107.054 108.772 107.139 108.918 107.207C109.068 107.271 109.237 107.303 109.424 107.303C109.697 107.303 109.927 107.234 110.114 107.098C110.306 106.961 110.456 106.754 110.565 106.476C110.679 106.193 110.759 105.865 110.805 105.491C110.855 105.113 110.88 104.662 110.88 104.138C110.88 102.196 110.39 101.226 109.41 101.226C109.201 101.226 109.016 101.269 108.856 101.355C108.697 101.438 108.567 101.561 108.467 101.725C108.367 101.889 108.282 102.062 108.214 102.244C108.15 102.426 108.102 102.643 108.07 102.894C108.043 103.14 108.022 103.363 108.009 103.563C108 103.764 107.995 103.992 107.995 104.247ZM113.252 106.141C113.252 105.808 113.286 105.525 113.355 105.293C113.423 105.056 113.537 104.849 113.696 104.671C113.86 104.493 114.049 104.343 114.264 104.22C114.482 104.097 114.765 103.967 115.111 103.83C115.676 103.62 116.121 103.434 116.444 103.27C116.563 103.215 116.638 103.115 116.67 102.969C116.706 102.823 116.725 102.629 116.725 102.388C116.725 101.959 116.64 101.659 116.472 101.485C116.308 101.312 116.014 101.226 115.59 101.226C115.198 101.226 114.918 101.333 114.749 101.547C114.58 101.761 114.496 102.091 114.496 102.538H113.546C113.546 101.782 113.726 101.226 114.086 100.87C114.446 100.51 114.984 100.33 115.699 100.33C116.401 100.33 116.923 100.51 117.265 100.87C117.611 101.226 117.784 101.679 117.784 102.23V106.64C117.784 106.822 117.818 106.968 117.887 107.077C117.955 107.187 118.058 107.241 118.194 107.241C118.281 107.241 118.361 107.232 118.434 107.214V108C118.342 108.055 118.197 108.082 117.996 108.082C117.814 108.082 117.67 108.071 117.565 108.048C117.461 108.03 117.356 107.986 117.251 107.918C117.146 107.845 117.062 107.736 116.998 107.59C116.939 107.439 116.889 107.241 116.848 106.995H116.82C116.693 107.332 116.472 107.617 116.157 107.85C115.843 108.082 115.512 108.198 115.166 108.198C113.89 108.198 113.252 107.512 113.252 106.141ZM114.359 106.093C114.359 106.444 114.439 106.724 114.599 106.934C114.763 107.139 115.013 107.241 115.351 107.241C116.267 107.241 116.725 106.738 116.725 105.73V103.926C116.57 104.012 116.383 104.106 116.164 104.206C115.95 104.306 115.765 104.391 115.61 104.459C115.46 104.523 115.3 104.607 115.132 104.712C114.963 104.812 114.827 104.919 114.722 105.033C114.617 105.147 114.53 105.295 114.462 105.478C114.394 105.655 114.359 105.86 114.359 106.093ZM119.459 104.363C119.459 101.674 120.323 100.33 122.05 100.33C122.77 100.33 123.328 100.569 123.725 101.048C124.121 101.526 124.319 102.13 124.319 102.859H123.314C123.314 102.641 123.294 102.44 123.253 102.258C123.212 102.076 123.146 101.905 123.055 101.745C122.964 101.581 122.831 101.453 122.658 101.362C122.485 101.271 122.278 101.226 122.036 101.226C121.831 101.226 121.646 101.267 121.482 101.349C121.323 101.426 121.191 101.542 121.086 101.697C120.986 101.852 120.899 102.023 120.826 102.21C120.753 102.397 120.699 102.616 120.662 102.866C120.626 103.117 120.601 103.358 120.587 103.591C120.573 103.823 120.566 104.081 120.566 104.363C120.566 104.614 120.571 104.83 120.58 105.013C120.589 105.19 120.607 105.407 120.635 105.662C120.662 105.913 120.708 106.125 120.771 106.298C120.835 106.471 120.917 106.64 121.018 106.804C121.118 106.968 121.25 107.093 121.414 107.18C121.583 107.262 121.776 107.303 121.995 107.303C122.155 107.303 122.298 107.282 122.426 107.241C122.553 107.2 122.66 107.15 122.747 107.091C122.834 107.027 122.909 106.943 122.973 106.838C123.041 106.733 123.093 106.633 123.13 106.537C123.171 106.437 123.203 106.314 123.226 106.168C123.253 106.022 123.271 105.897 123.28 105.792C123.294 105.683 123.305 105.55 123.314 105.396H124.319C124.319 105.765 124.278 106.111 124.196 106.435C124.114 106.758 123.989 107.054 123.82 107.323C123.652 107.592 123.417 107.806 123.116 107.966C122.815 108.121 122.465 108.198 122.063 108.198C121.744 108.198 121.457 108.16 121.202 108.082C120.947 108.009 120.728 107.909 120.546 107.781C120.368 107.654 120.213 107.492 120.081 107.296C119.949 107.1 119.844 106.897 119.767 106.688C119.689 106.478 119.625 106.239 119.575 105.97C119.53 105.696 119.498 105.437 119.48 105.19C119.466 104.94 119.459 104.664 119.459 104.363ZM125.529 102.736V100.521H126.596V102.641C126.596 103.042 126.675 103.329 126.835 103.502C126.999 103.671 127.307 103.755 127.758 103.755C128.177 103.755 128.596 103.732 129.016 103.687V100.521H130.082V108H129.016V104.514C128.587 104.609 128.047 104.657 127.396 104.657C126.771 104.657 126.304 104.477 125.994 104.117C125.684 103.753 125.529 103.292 125.529 102.736ZM131.764 104.247C131.764 101.636 132.563 100.33 134.163 100.33C134.505 100.33 134.806 100.387 135.065 100.501C135.33 100.61 135.544 100.772 135.708 100.986C135.877 101.196 136.016 101.426 136.125 101.677C136.234 101.923 136.314 102.217 136.364 102.559C136.419 102.9 136.455 103.219 136.474 103.516C136.492 103.807 136.501 104.14 136.501 104.514H132.871C132.871 104.837 132.876 105.106 132.885 105.32C132.894 105.535 132.912 105.758 132.939 105.99C132.971 106.223 133.017 106.412 133.076 106.558C133.14 106.699 133.22 106.831 133.315 106.954C133.411 107.077 133.534 107.166 133.685 107.221C133.835 107.275 134.013 107.303 134.218 107.303C135.029 107.303 135.435 106.703 135.435 105.505H136.501C136.501 106.289 136.31 106.934 135.927 107.439C135.549 107.945 134.988 108.198 134.245 108.198C133.84 108.198 133.489 108.132 133.192 108C132.896 107.868 132.639 107.654 132.42 107.357C132.201 107.057 132.037 106.649 131.928 106.134C131.818 105.614 131.764 104.985 131.764 104.247ZM132.871 103.618H135.394C135.394 103.363 135.384 103.133 135.366 102.928C135.353 102.723 135.321 102.511 135.271 102.292C135.22 102.069 135.152 101.884 135.065 101.738C134.979 101.588 134.86 101.465 134.71 101.369C134.56 101.273 134.382 101.226 134.177 101.226C133.99 101.226 133.821 101.262 133.671 101.335C133.525 101.403 133.407 101.504 133.315 101.636C133.224 101.763 133.147 101.902 133.083 102.053C133.024 102.199 132.978 102.369 132.946 102.565C132.919 102.757 132.898 102.932 132.885 103.092C132.876 103.251 132.871 103.427 132.871 103.618ZM137.403 101.417V100.521H142.373V101.417H140.425V108H139.358V101.417H137.403ZM143.125 106.141C143.125 105.808 143.159 105.525 143.228 105.293C143.296 105.056 143.41 104.849 143.569 104.671C143.733 104.493 143.923 104.343 144.137 104.22C144.355 104.097 144.638 103.967 144.984 103.83C145.549 103.62 145.994 103.434 146.317 103.27C146.436 103.215 146.511 103.115 146.543 102.969C146.579 102.823 146.598 102.629 146.598 102.388C146.598 101.959 146.513 101.659 146.345 101.485C146.181 101.312 145.887 101.226 145.463 101.226C145.071 101.226 144.791 101.333 144.622 101.547C144.453 101.761 144.369 102.091 144.369 102.538H143.419C143.419 101.782 143.599 101.226 143.959 100.87C144.319 100.51 144.857 100.33 145.572 100.33C146.274 100.33 146.796 100.51 147.138 100.87C147.484 101.226 147.657 101.679 147.657 102.23V106.64C147.657 106.822 147.691 106.968 147.76 107.077C147.828 107.187 147.931 107.241 148.067 107.241C148.154 107.241 148.234 107.232 148.307 107.214V108C148.216 108.055 148.07 108.082 147.869 108.082C147.687 108.082 147.543 108.071 147.438 108.048C147.334 108.03 147.229 107.986 147.124 107.918C147.019 107.845 146.935 107.736 146.871 107.59C146.812 107.439 146.762 107.241 146.721 106.995H146.693C146.566 107.332 146.345 107.617 146.03 107.85C145.716 108.082 145.385 108.198 145.039 108.198C143.763 108.198 143.125 107.512 143.125 106.141ZM144.232 106.093C144.232 106.444 144.312 106.724 144.472 106.934C144.636 107.139 144.886 107.241 145.224 107.241C146.14 107.241 146.598 106.738 146.598 105.73V103.926C146.443 104.012 146.256 104.106 146.037 104.206C145.823 104.306 145.638 104.391 145.483 104.459C145.333 104.523 145.174 104.607 145.005 104.712C144.836 104.812 144.7 104.919 144.595 105.033C144.49 105.147 144.403 105.295 144.335 105.478C144.267 105.655 144.232 105.86 144.232 106.093ZM65.332 121.104H65.9746C66.3164 120.384 66.5488 119.749 66.6719 119.197C66.7949 118.646 66.8565 117.91 66.8565 116.989V114.521H70.9443V121.104H71.6621V124.03H70.6777V122H66.3096V124.03H65.332V121.104ZM67.0684 121.104H69.8848V115.417H67.8818V117.563C67.8818 118.293 67.8226 118.903 67.7041 119.396C67.5856 119.883 67.3737 120.453 67.0684 121.104ZM72.6397 118.233C72.6397 115.631 73.5329 114.33 75.3193 114.33C77.1012 114.33 77.9922 115.636 77.9922 118.247C77.9922 118.994 77.9307 119.628 77.8076 120.147C77.6891 120.667 77.5091 121.075 77.2676 121.371C77.026 121.667 76.7481 121.879 76.4336 122.007C76.1191 122.134 75.7477 122.198 75.3193 122.198C74.9821 122.198 74.6813 122.16 74.417 122.082C74.1527 122.005 73.9066 121.872 73.6787 121.686C73.4554 121.499 73.2686 121.257 73.1182 120.961C72.9678 120.66 72.8493 120.282 72.7627 119.826C72.6807 119.366 72.6397 118.835 72.6397 118.233ZM73.7471 118.343C73.7471 118.808 73.7721 119.213 73.8223 119.56C73.8724 119.901 73.9544 120.209 74.0684 120.482C74.1869 120.751 74.3486 120.956 74.5537 121.098C74.7634 121.234 75.0186 121.303 75.3193 121.303C75.6247 121.303 75.8822 121.234 76.0918 121.098C76.3014 120.956 76.4632 120.749 76.5772 120.476C76.6911 120.202 76.7708 119.897 76.8164 119.56C76.862 119.218 76.8848 118.812 76.8848 118.343C76.8848 117.213 76.764 116.41 76.5225 115.937C76.2855 115.463 75.8844 115.226 75.3193 115.226C74.7497 115.226 74.3441 115.463 74.1025 115.937C73.8656 116.41 73.7471 117.213 73.7471 118.343ZM79.3936 118.363C79.3936 115.674 80.2572 114.33 81.9844 114.33C82.7044 114.33 83.2627 114.569 83.6592 115.048C84.0557 115.526 84.2539 116.13 84.2539 116.859H83.249C83.249 116.641 83.2285 116.44 83.1875 116.258C83.1465 116.076 83.0804 115.905 82.9893 115.745C82.8981 115.581 82.766 115.453 82.5928 115.362C82.4196 115.271 82.2122 115.226 81.9707 115.226C81.7656 115.226 81.5811 115.267 81.417 115.349C81.2575 115.426 81.1253 115.542 81.0205 115.697C80.9203 115.852 80.8337 116.023 80.7607 116.21C80.6878 116.397 80.6331 116.616 80.5967 116.866C80.5602 117.117 80.5352 117.358 80.5215 117.591C80.5078 117.823 80.501 118.081 80.501 118.363C80.501 118.614 80.5055 118.83 80.5147 119.013C80.5238 119.19 80.542 119.407 80.5693 119.662C80.5967 119.913 80.6423 120.125 80.7061 120.298C80.7699 120.471 80.8519 120.64 80.9522 120.804C81.0524 120.968 81.1846 121.093 81.3486 121.18C81.5173 121.262 81.7109 121.303 81.9297 121.303C82.0892 121.303 82.2328 121.282 82.3604 121.241C82.488 121.2 82.5951 121.15 82.6816 121.091C82.7682 121.027 82.8434 120.943 82.9072 120.838C82.9756 120.733 83.028 120.633 83.0645 120.537C83.1055 120.437 83.1374 120.314 83.1602 120.168C83.1875 120.022 83.2057 119.897 83.2149 119.792C83.2285 119.683 83.2399 119.55 83.249 119.396H84.2539C84.2539 119.765 84.2129 120.111 84.1309 120.435C84.0488 120.758 83.9235 121.054 83.7549 121.323C83.5863 121.592 83.3516 121.806 83.0508 121.966C82.75 122.121 82.3991 122.198 81.9981 122.198C81.679 122.198 81.3919 122.16 81.1367 122.082C80.8815 122.009 80.6628 121.909 80.4805 121.781C80.3027 121.654 80.1478 121.492 80.0156 121.296C79.8835 121.1 79.7787 120.897 79.7012 120.688C79.6237 120.478 79.5599 120.239 79.5098 119.97C79.4642 119.696 79.4323 119.437 79.4141 119.19C79.4004 118.94 79.3936 118.664 79.3936 118.363ZM84.9649 115.417V114.521H89.9346V115.417H87.9863V122H86.9199V115.417H84.9649ZM90.6865 120.141C90.6865 119.808 90.7207 119.525 90.7891 119.293C90.8574 119.056 90.9714 118.849 91.1309 118.671C91.2949 118.493 91.4841 118.343 91.6982 118.22C91.917 118.097 92.1996 117.967 92.5459 117.83C93.111 117.62 93.5553 117.434 93.8789 117.27C93.9974 117.215 94.0726 117.115 94.1045 116.969C94.141 116.823 94.1592 116.629 94.1592 116.388C94.1592 115.959 94.0749 115.659 93.9063 115.485C93.7422 115.312 93.4482 115.226 93.0244 115.226C92.6325 115.226 92.3522 115.333 92.1836 115.547C92.015 115.761 91.9307 116.091 91.9307 116.538H90.9805C90.9805 115.782 91.1605 115.226 91.5205 114.87C91.8805 114.51 92.4183 114.33 93.1338 114.33C93.8356 114.33 94.3574 114.51 94.6992 114.87C95.0456 115.226 95.2188 115.679 95.2188 116.23V120.64C95.2188 120.822 95.2529 120.968 95.3213 121.077C95.3897 121.187 95.4922 121.241 95.6289 121.241C95.7155 121.241 95.7953 121.232 95.8682 121.214V122C95.777 122.055 95.6312 122.082 95.4307 122.082C95.2484 122.082 95.1048 122.071 95 122.048C94.8952 122.03 94.7904 121.986 94.6856 121.918C94.5807 121.845 94.4964 121.736 94.4326 121.59C94.3734 121.439 94.3232 121.241 94.2822 120.995H94.2549C94.1273 121.332 93.9063 121.617 93.5918 121.85C93.2774 122.082 92.9469 122.198 92.6006 122.198C91.3246 122.198 90.6865 121.512 90.6865 120.141ZM91.794 120.093C91.794 120.444 91.8737 120.724 92.0332 120.934C92.1973 121.139 92.4479 121.241 92.7852 121.241C93.7012 121.241 94.1592 120.738 94.1592 119.73V117.926C94.0042 118.012 93.8174 118.106 93.5986 118.206C93.3844 118.306 93.1999 118.391 93.0449 118.459C92.8945 118.523 92.735 118.607 92.5664 118.712C92.3978 118.812 92.2611 118.919 92.1563 119.033C92.0514 119.147 91.9649 119.295 91.8965 119.478C91.8281 119.655 91.794 119.86 91.794 120.093ZM97.1738 122V114.521H99.6006C100.175 114.521 100.653 114.686 101.036 115.014C101.424 115.337 101.617 115.766 101.617 116.299C101.617 116.768 101.51 117.16 101.296 117.475C101.082 117.785 100.801 117.987 100.455 118.083V118.11C100.879 118.211 101.207 118.418 101.439 118.732C101.676 119.047 101.795 119.459 101.795 119.97C101.795 120.59 101.615 121.084 101.255 121.453C100.895 121.818 100.46 122 99.9492 122H97.1738ZM98.2402 121.104H99.4844C99.9538 121.104 100.277 121.002 100.455 120.797C100.633 120.592 100.722 120.259 100.722 119.799C100.722 118.942 100.305 118.514 99.4707 118.514H98.2402V121.104ZM98.2402 117.618H99.3613C99.7715 117.618 100.07 117.529 100.257 117.352C100.444 117.174 100.537 116.884 100.537 116.483C100.537 116.119 100.444 115.85 100.257 115.677C100.075 115.504 99.7897 115.417 99.4023 115.417H98.2402V117.618ZM103.477 122V114.521H104.543V118.008L107.134 114.521H108.392L106.081 117.434L108.46 122H107.216L105.356 118.274L104.543 119.341V122H103.477ZM109.643 122V114.521H110.709V120.209C110.709 120.451 110.673 120.749 110.6 121.104H110.613C110.704 120.649 110.777 120.35 110.832 120.209L113.313 114.521H114.599V122H113.539V116.333C113.539 116.137 113.576 115.827 113.648 115.403H113.635C113.557 115.877 113.482 116.187 113.409 116.333L110.935 122H109.643Z" fill="black"/>
<path d="M177.782 25.463C177.782 37.7795 167.759 47.764 155.394 47.764C143.029 47.764 133.005 37.7795 133.005 25.463C133.005 13.1464 143.029 3.16193 155.394 3.16193C167.759 3.16193 177.782 13.1464 177.782 25.463Z" fill="black"/>
<path fill-rule="evenodd" clip-rule="evenodd" d="M155.393 4.80102C143.938 4.80102 134.651 14.0514 134.651 25.4623C134.651 36.8732 143.938 46.1236 155.393 46.1236C166.849 46.1236 176.136 36.8732 176.136 25.4623C176.136 14.0514 166.849 4.80102 155.393 4.80102ZM131.359 25.4623C131.359 12.2401 142.119 1.52145 155.393 1.52145C168.668 1.52145 179.428 12.2401 179.428 25.4623C179.428 38.6844 168.668 49.4031 155.393 49.4031C142.119 49.4031 131.359 38.6844 131.359 25.4623Z" fill="white"/>
<path d="M171.856 25.4626C171.856 34.5189 164.485 41.8604 155.393 41.8604C146.301 41.8604 138.931 34.5189 138.931 25.4626C138.931 16.4063 146.301 9.06476 155.393 9.06476C164.485 9.06476 171.856 16.4063 171.856 25.4626Z" fill="#FEFEFE"/>
<path d="M149.812 28.8441V28.2051H152.828V28.8441C152.828 30.787 153.597 31.7585 155.135 31.7585C155.72 31.7585 156.178 31.5979 156.508 31.2765C156.838 30.9552 157.003 30.5292 157.003 29.9986C157.003 29.483 156.868 29.0384 156.598 28.6647C156.328 28.2911 155.885 27.9062 155.27 27.5101L152.456 25.683C150.798 24.6069 149.969 23.1833 149.969 21.4122C149.969 20.2539 150.315 19.3048 151.005 18.565C151.695 17.8252 152.625 17.3656 153.796 17.1862V15.1909H155.878V17.1862C157.168 17.3357 158.147 17.8289 158.815 18.6659C159.482 19.4954 159.816 20.6537 159.816 22.1408V22.6452H156.8V22.4659C156.8 20.5827 156.136 19.6411 154.808 19.6411C154.336 19.6411 153.938 19.7644 153.616 20.011C153.293 20.2576 153.132 20.6014 153.132 21.0423C153.132 21.5056 153.218 21.8755 153.39 22.152C153.563 22.4285 153.829 22.6863 154.189 22.9255L157.419 25.0553C157.839 25.3318 158.166 25.5597 158.398 25.739C158.638 25.9184 158.893 26.1501 159.164 26.434C159.434 26.7105 159.636 26.9908 159.771 27.2747C159.906 27.5512 160.019 27.8987 160.109 28.3172C160.206 28.7282 160.255 29.1953 160.255 29.7184C160.255 31.071 159.88 32.1396 159.13 32.9243C158.387 33.709 157.303 34.1573 155.878 34.2694V36.1975H153.796V34.1686C152.483 33.9444 151.489 33.3727 150.813 32.4535C150.146 31.5343 149.812 30.3312 149.812 28.8441Z" fill="black"/>
<path fill-rule="evenodd" clip-rule="evenodd" d="M46.5586 92.2632C50.0153 92.2632 52.8175 89.4719 52.8175 86.0288C52.8175 82.5856 50.0153 79.7944 46.5586 79.7944C43.1019 79.7944 40.2997 82.5856 40.2997 86.0288C40.2997 89.4719 43.1019 92.2632 46.5586 92.2632ZM46.5591 89.146C48.2874 89.146 49.6885 87.7504 49.6885 86.0288C49.6885 84.3072 48.2874 82.9116 46.5591 82.9116C44.8308 82.9116 43.4297 84.3072 43.4297 86.0288C43.4297 87.7504 44.8308 89.146 46.5591 89.146Z" fill="#434343"/>
<path fill-rule="evenodd" clip-rule="evenodd" d="M63.5967 92.2632C67.0534 92.2632 69.8556 89.4719 69.8556 86.0288C69.8556 82.5856 67.0534 79.7944 63.5967 79.7944C60.14 79.7944 57.3378 82.5856 57.3378 86.0288C57.3378 89.4719 60.14 92.2632 63.5967 92.2632ZM63.5964 89.146C65.3247 89.146 66.7258 87.7504 66.7258 86.0288C66.7258 84.3072 65.3247 82.9116 63.5964 82.9116C61.868 82.9116 60.4669 84.3072 60.4669 86.0288C60.4669 87.7504 61.868 89.146 63.5964 89.146Z" fill="#434343"/>
<path fill-rule="evenodd" clip-rule="evenodd" d="M116.797 92.2632C120.254 92.2632 123.056 89.4719 123.056 86.0288C123.056 82.5856 120.254 79.7944 116.797 79.7944C113.34 79.7944 110.538 82.5856 110.538 86.0288C110.538 89.4719 113.34 92.2632 116.797 92.2632ZM116.797 89.146C118.525 89.146 119.926 87.7504 119.926 86.0288C119.926 84.3072 118.525 82.9116 116.797 82.9116C115.069 82.9116 113.667 84.3072 113.667 86.0288C113.667 87.7504 115.069 89.146 116.797 89.146Z" fill="#434343"/>
<path fill-rule="evenodd" clip-rule="evenodd" d="M156.784 92.2632C160.241 92.2632 163.043 89.4719 163.043 86.0288C163.043 82.5856 160.241 79.7944 156.784 79.7944C153.328 79.7944 150.526 82.5856 150.526 86.0288C150.526 89.4719 153.328 92.2632 156.784 92.2632ZM156.784 89.146C158.512 89.146 159.913 87.7504 159.913 86.0288C159.913 84.3072 158.512 82.9116 156.784 82.9116C155.056 82.9116 153.654 84.3072 153.654 86.0288C153.654 87.7504 155.056 89.146 156.784 89.146Z" fill="#434343"/>
<path d="M69.8556 82.2189H92.1094V87.7606H70.551C70.551 87.7606 70.551 85.5093 70.551 83.9507C70.551 82.3921 69.8556 82.2189 69.8556 82.2189Z" fill="#434343"/>
<path d="M52.8175 82.2189H54.9038V87.7606H53.5129C53.5129 87.7606 53.5129 85.5093 53.5129 83.9507C53.5129 82.3921 52.8175 82.2189 52.8175 82.2189Z" fill="#434343"/>
<path d="M56.9901 82.2189H54.9038V87.7606H56.2947C56.2947 87.7606 56.2947 85.5093 56.2947 83.9507C56.2947 82.3921 56.9901 82.2189 56.9901 82.2189Z" fill="#434343"/>
<path d="M40.2997 82.2189H32.9977L12.8302 85.6824V87.7606H39.6043C39.6043 87.7606 39.6043 85.5093 39.6043 83.9507C39.6043 82.3921 40.2997 82.2189 40.2997 82.2189Z" fill="#434343"/>
<path d="M110.538 82.2189H88.2845V87.7606H109.843C109.843 87.7606 109.843 85.5093 109.843 83.9507C109.843 82.3921 110.538 82.2189 110.538 82.2189Z" fill="#434343"/>
<path d="M123.404 82.2189H149.135V87.7606H124.099C124.099 87.7606 124.099 85.5093 124.099 83.9507C124.099 82.3921 123.404 82.2189 123.404 82.2189Z" fill="#434343"/>
<path fill-rule="evenodd" clip-rule="evenodd" d="M136.095 61.4376V82.2189H149.135V87.5874H149.65C149.54 87.0852 149.482 86.5635 149.482 86.0284C149.482 82.0114 152.751 78.755 156.784 78.755C160.816 78.755 164.086 82.0114 164.086 86.0284C164.086 86.5635 164.028 87.0852 163.918 87.5874H168.259L168.781 87.0678V82.7384L168.259 82.2189H166.868V75.6381C166.868 75.6381 166.173 73.8294 161.652 71.8282C159.497 70.8742 157.817 70.3575 156.648 70.078C155.479 69.7986 154.415 69.0242 153.978 67.9052L151.792 62.3075C151.343 61.1563 150.234 60.3985 148.998 60.3985H137.312L137.14 60.427C136.616 60.5141 136.2 60.9163 136.095 61.4376ZM148.96 63.5154H139.05V73.906H148.439L150.249 70.7504C150.862 69.6817 150.948 68.3902 150.483 67.2494L148.96 63.5154Z" fill="#434343"/>
<path d="M131.053 46.5443V46.5443C132.188 46.2054 133.396 46.2054 134.531 46.5443V46.5443V81.1798H131.053V46.5443Z" fill="#434343"/>
<path d="M90.0231 46.5443V46.5443C91.1573 46.2054 92.366 46.2054 93.5002 46.5443V46.5443V81.1798H90.0231V46.5443Z" fill="#434343"/>
<path d="M32.9977 46.5443V46.5443C34.132 46.2054 35.3406 46.2054 36.4749 46.5443V46.5443V81.1798H32.9977V46.5443Z" fill="#434343"/>
<path fill-rule="evenodd" clip-rule="evenodd" d="M131.053 77.7163H93.5002V81.1798H111.512C112.788 79.6957 114.683 78.7551 116.798 78.7551C118.913 78.7551 120.807 79.6957 122.083 81.1798H131.053V77.7163Z" fill="#434343"/>
<path fill-rule="evenodd" clip-rule="evenodd" d="M90.0231 77.7163H54.9038V81.1798H58.3115C59.587 79.6957 61.4816 78.7551 63.5967 78.7551C65.7118 78.7551 67.6064 79.6957 68.8819 81.1798H90.0231V77.7163Z" fill="#434343"/>
<path fill-rule="evenodd" clip-rule="evenodd" d="M36.4749 77.7163H54.9038V81.1798H51.8438C50.5684 79.6957 48.6738 78.7551 46.5586 78.7551C44.4435 78.7551 42.5489 79.6957 41.2735 81.1798H36.4749V77.7163Z" fill="#434343"/>
<path fill-rule="evenodd" clip-rule="evenodd" d="M16.3074 53.8178H19.263H19.5311C19.469 53.539 19.4363 53.2493 19.4363 52.9519C19.4363 50.7521 21.2266 48.9688 23.4351 48.9688C25.6435 48.9688 27.4338 50.7521 27.4338 52.9519C27.4338 53.2493 27.4011 53.539 27.339 53.8178H39.3508C39.2888 53.539 39.2561 53.2493 39.2561 52.9519C39.2561 50.7521 41.0464 48.9688 43.2548 48.9688C45.4633 48.9688 47.2535 50.7521 47.2535 52.9519C47.2535 53.2493 47.2208 53.539 47.1588 53.8178H50.0358V49.4883L48.2686 48.3148C47.3665 47.7157 46.373 47.2671 45.3269 46.9866L42.3861 46.1979L37.3442 41.0026H18.3937L17.9376 41.7977C17.3199 42.8746 16.908 44.057 16.7231 45.2847L16.4813 46.8907L16.3074 53.8178ZM27.0861 42.7344H36.8221L39.9515 46.198H27.0861V42.7344ZM25.3475 42.7344H19.4363L18.3932 46.198H25.3475V42.7344Z" fill="#434343"/>
<path fill-rule="evenodd" clip-rule="evenodd" d="M43.2548 56.2423C45.0792 56.2423 46.5581 54.7691 46.5581 52.9519C46.5581 51.1347 45.0792 49.6615 43.2548 49.6615C41.4305 49.6615 39.9515 51.1347 39.9515 52.9519C39.9515 54.7691 41.4305 56.2423 43.2548 56.2423ZM43.2551 54.8566C44.3114 54.8566 45.1676 54.0037 45.1676 52.9516C45.1676 51.8995 44.3114 51.0467 43.2551 51.0467C42.1989 51.0467 41.3427 51.8995 41.3427 52.9516C41.3427 54.0037 42.1989 54.8566 43.2551 54.8566Z" fill="#434343"/>
<path fill-rule="evenodd" clip-rule="evenodd" d="M23.4351 56.2423C25.2594 56.2423 26.7384 54.7691 26.7384 52.9519C26.7384 51.1347 25.2594 49.6615 23.4351 49.6615C21.6107 49.6615 20.1318 51.1347 20.1318 52.9519C20.1318 54.7691 21.6107 56.2423 23.4351 56.2423ZM23.4349 54.8566C24.4911 54.8566 25.3473 54.0037 25.3473 52.9516C25.3473 51.8995 24.4911 51.0467 23.4349 51.0467C22.3786 51.0467 21.5224 51.8995 21.5224 52.9516C21.5224 54.0037 22.3786 54.8566 23.4349 54.8566Z" fill="#434343"/>
<path fill-rule="evenodd" clip-rule="evenodd" d="M95.5865 75.2918H98.5421H98.8108C98.7488 75.013 98.7161 74.7232 98.7161 74.4258C98.7161 72.226 100.506 70.4427 102.715 70.4427C104.923 70.4427 106.714 72.226 106.714 74.4258C106.714 74.7232 106.681 75.013 106.619 75.2918H118.631C118.569 75.013 118.536 74.7232 118.536 74.4258C118.536 72.226 120.326 70.4427 122.535 70.4427C124.743 70.4427 126.533 72.226 126.533 74.4258C126.533 74.7232 126.501 75.013 126.439 75.2918H129.315V70.9623L127.548 69.7888C126.646 69.1897 125.652 68.7411 124.606 68.4606L121.665 67.6719L116.623 62.4766H97.6728L97.2167 63.2717C96.599 64.3486 96.1871 65.531 96.0023 66.7587L95.7604 68.3647L95.5865 75.2918ZM106.366 64.2083H116.102L119.231 67.6719H106.366V64.2083ZM104.627 64.2083H98.716L97.6729 67.6719H104.627V64.2083Z" fill="#434343"/>
<path fill-rule="evenodd" clip-rule="evenodd" d="M122.535 77.7162C124.359 77.7162 125.838 76.243 125.838 74.4258C125.838 72.6086 124.359 71.1354 122.535 71.1354C120.71 71.1354 119.231 72.6086 119.231 74.4258C119.231 76.243 120.71 77.7162 122.535 77.7162ZM122.534 76.3311C123.59 76.3311 124.446 75.4782 124.446 74.4261C124.446 73.374 123.59 72.5211 122.534 72.5211C121.478 72.5211 120.622 73.374 120.622 74.4261C120.622 75.4782 121.478 76.3311 122.534 76.3311Z" fill="#434343"/>
<path fill-rule="evenodd" clip-rule="evenodd" d="M102.715 77.7162C104.539 77.7162 106.018 76.243 106.018 74.4258C106.018 72.6086 104.539 71.1354 102.715 71.1354C100.89 71.1354 99.4114 72.6086 99.4114 74.4258C99.4114 76.243 100.89 77.7162 102.715 77.7162ZM102.715 76.3311C103.771 76.3311 104.628 75.4782 104.628 74.4261C104.628 73.374 103.771 72.5211 102.715 72.5211C101.659 72.5211 100.803 73.374 100.803 74.4261C100.803 75.4782 101.659 76.3311 102.715 76.3311Z" fill="#434343"/>
<path fill-rule="evenodd" clip-rule="evenodd" d="M53.1652 75.2918H56.1208H56.3901C56.3281 75.013 56.2953 74.7232 56.2953 74.4258C56.2953 72.226 58.0856 70.4427 60.2941 70.4427C62.5025 70.4427 64.2928 72.226 64.2928 74.4258C64.2928 74.7232 64.2601 75.013 64.198 75.2918H76.2099C76.1478 75.013 76.1151 74.7232 76.1151 74.4258C76.1151 72.226 77.9054 70.4427 80.1138 70.4427C82.3223 70.4427 84.1125 72.226 84.1125 74.4258C84.1125 74.7232 84.0798 75.013 84.0178 75.2918H86.8936V70.9623L85.1264 69.7888C84.2243 69.1897 83.2307 68.7411 82.1847 68.4606L79.2439 67.6719L74.202 62.4766H55.2515L54.7954 63.2717C54.1776 64.3486 53.7658 65.531 53.5809 66.7587L53.3391 68.3647L53.1652 75.2918ZM63.9451 64.2083H73.6811L76.8105 67.6719H63.9451V64.2083ZM62.2065 64.2083H56.2953L55.2522 67.6719H62.2065V64.2083Z" fill="#434343"/>
<path fill-rule="evenodd" clip-rule="evenodd" d="M80.1138 77.7162C81.9382 77.7162 83.4171 76.243 83.4171 74.4258C83.4171 72.6086 81.9382 71.1354 80.1138 71.1354C78.2895 71.1354 76.8105 72.6086 76.8105 74.4258C76.8105 76.243 78.2895 77.7162 80.1138 77.7162ZM80.1139 76.3311C81.1701 76.3311 82.0263 75.4782 82.0263 74.4261C82.0263 73.374 81.1701 72.5211 80.1139 72.5211C79.0577 72.5211 78.2014 73.374 78.2014 74.4261C78.2014 75.4782 79.0577 76.3311 80.1139 76.3311Z" fill="#434343"/>
<path fill-rule="evenodd" clip-rule="evenodd" d="M60.2941 77.7162C62.1184 77.7162 63.5974 76.243 63.5974 74.4258C63.5974 72.6086 62.1184 71.1354 60.2941 71.1354C58.4697 71.1354 56.9908 72.6086 56.9908 74.4258C56.9908 76.243 58.4697 77.7162 60.2941 77.7162ZM60.2936 76.3311C61.3498 76.3311 62.206 75.4782 62.206 74.4261C62.206 73.374 61.3498 72.5211 60.2936 72.5211C59.2374 72.5211 58.3811 73.374 58.3811 74.4261C58.3811 75.4782 59.2374 76.3311 60.2936 76.3311Z" fill="#434343"/>
<path fill-rule="evenodd" clip-rule="evenodd" d="M53.1652 53.8178H56.1208H56.3901C56.328 53.539 56.2953 53.2493 56.2953 52.9519C56.2953 50.7521 58.0856 48.9688 60.2941 48.9688C62.5025 48.9688 64.2928 50.7521 64.2928 52.9519C64.2928 53.2493 64.2601 53.539 64.198 53.8178H76.2098C76.1478 53.539 76.1151 53.2493 76.1151 52.9519C76.1151 50.7521 77.9054 48.9688 80.1138 48.9688C82.3223 48.9688 84.1125 50.7521 84.1125 52.9519C84.1125 53.2493 84.0798 53.539 84.0178 53.8178H86.8936V49.4883L85.1264 48.3148C84.2243 47.7157 83.2307 47.2671 82.1847 46.9866L79.2439 46.1979L74.202 41.0026H55.2515L54.7954 41.7977C54.1776 42.8746 53.7658 44.057 53.5809 45.2847L53.3391 46.8907L53.1652 53.8178ZM63.9451 42.7344H73.6811L76.8105 46.198H63.9451V42.7344ZM62.2065 42.7344H56.2953L55.2522 46.198H62.2065V42.7344Z" fill="#434343"/>
<path fill-rule="evenodd" clip-rule="evenodd" d="M80.1138 56.2423C81.9382 56.2423 83.4171 54.7691 83.4171 52.9519C83.4171 51.1347 81.9382 49.6615 80.1138 49.6615C78.2895 49.6615 76.8105 51.1347 76.8105 52.9519C76.8105 54.7691 78.2895 56.2423 80.1138 56.2423ZM80.1139 54.8566C81.1701 54.8566 82.0263 54.0037 82.0263 52.9516C82.0263 51.8995 81.1701 51.0467 80.1139 51.0467C79.0577 51.0467 78.2014 51.8995 78.2014 52.9516C78.2014 54.0037 79.0577 54.8566 80.1139 54.8566Z" fill="#434343"/>
<path fill-rule="evenodd" clip-rule="evenodd" d="M60.2941 56.2423C62.1184 56.2423 63.5974 54.7691 63.5974 52.9519C63.5974 51.1347 62.1184 49.6615 60.2941 49.6615C58.4697 49.6615 56.9908 51.1347 56.9908 52.9519C56.9908 54.7691 58.4697 56.2423 60.2941 56.2423ZM60.2936 54.8566C61.3498 54.8566 62.206 54.0037 62.206 52.9516C62.206 51.8995 61.3498 51.0467 60.2936 51.0467C59.2374 51.0467 58.3811 51.8995 58.3811 52.9516C58.3811 54.0037 59.2374 54.8566 60.2936 54.8566Z" fill="#434343"/>
<path fill-rule="evenodd" clip-rule="evenodd" d="M128.719 54.7995L125.796 54.3778L125.538 54.3406C125.641 54.0714 125.716 53.7869 125.76 53.49C126.08 51.3115 124.569 49.2898 122.386 48.9744C120.202 48.6591 118.172 50.1694 117.852 52.348C117.809 52.6454 117.799 52.9398 117.821 53.2274L105.919 51.5107C106.025 51.2369 106.102 50.9471 106.147 50.6444C106.467 48.4659 104.956 46.4442 102.772 46.1288C100.589 45.8135 98.5591 47.3238 98.2391 49.5024C98.1945 49.8055 98.1855 50.1057 98.2087 50.3986L95.3584 49.9874L95.9901 45.6929L97.9065 44.7822C98.888 44.3158 99.9385 44.012 101.017 43.8826L104.037 43.5204L109.781 39.0863L128.525 41.7899L128.864 42.6513C129.315 43.8026 129.549 45.0284 129.553 46.2662L129.558 47.9034L128.719 54.7995ZM119.672 42.2735L110.041 40.8835L106.44 43.8746L119.166 45.7113L119.672 42.2735ZM121.396 42.5335L127.242 43.3772L127.769 46.9594L120.891 45.9669L121.396 42.5335Z" fill="#434343"/>
<path fill-rule="evenodd" clip-rule="evenodd" d="M101.715 53.3319C99.9109 53.0715 98.663 51.4014 98.9275 49.6016C99.1919 47.8019 100.869 46.5541 102.672 46.8146C104.476 47.075 105.724 48.7452 105.46 50.5449C105.195 52.3446 103.519 53.5924 101.715 53.3319ZM101.916 51.9598C100.872 51.809 100.15 50.8421 100.303 49.8001C100.456 48.7582 101.427 48.0358 102.471 48.1866C103.515 48.3374 104.238 49.3043 104.085 50.3462C103.931 51.3882 102.961 52.1106 101.916 51.9598Z" fill="#434343"/>
<path fill-rule="evenodd" clip-rule="evenodd" d="M121.327 56.1775C119.524 55.9171 118.276 54.247 118.54 52.4473C118.805 50.6475 120.481 49.3997 122.285 49.6602C124.089 49.9207 125.337 51.5908 125.072 53.3905C124.808 55.1902 123.131 56.438 121.327 56.1775ZM121.528 54.8057C120.484 54.6549 119.761 53.688 119.915 52.6461C120.068 51.6041 121.038 50.8817 122.083 51.0325C123.127 51.1833 123.849 52.1502 123.696 53.1921C123.543 54.2341 122.573 54.9565 121.528 54.8057Z" fill="#434343"/>
<path fill-rule="evenodd" clip-rule="evenodd" d="M17.8183 77.82L20.7594 77.5427L21.02 77.5182C20.9306 77.2448 20.8697 76.9576 20.841 76.6596C20.6299 74.4685 22.24 72.5239 24.4371 72.3162C26.6343 72.1085 28.5865 73.7165 28.7976 75.9076C28.8264 76.2063 28.8213 76.5003 28.7855 76.786L40.7549 75.6576C40.6629 75.3799 40.6003 75.0878 40.5711 74.7844C40.3601 72.5933 41.9701 70.6487 44.1673 70.441C46.3644 70.2334 48.3167 71.8413 48.5277 74.0324C48.557 74.3364 48.5512 74.6356 48.5137 74.9262L51.3817 74.6558L50.9646 70.3368L49.0951 69.3331C48.1383 68.8193 47.1046 68.4645 46.0344 68.2824L43.0354 67.7721L37.5177 63.0624L18.6599 64.8402L18.2798 65.6824C17.7706 66.8105 17.4758 68.0238 17.4104 69.2606L17.324 70.8934L17.8183 77.82ZM27.479 65.7576L37.1684 64.8436L40.6166 68.0072L27.8127 69.2149L27.479 65.7576ZM25.7456 65.9314L19.8635 66.4864L19.1586 70.0372L26.0787 69.3842L25.7456 65.9314Z" fill="#434343"/>
<path fill-rule="evenodd" clip-rule="evenodd" d="M44.8631 77.687C46.678 77.515 48.0084 75.9082 47.8344 74.098C47.6605 72.2879 46.0481 70.9599 44.2332 71.1318C42.4182 71.3038 41.0879 72.9106 41.2619 74.7208C41.4358 76.5309 43.0481 77.8589 44.8631 77.687ZM44.7312 76.307C45.782 76.2077 46.552 75.2777 46.4511 74.2297C46.3501 73.1818 45.4164 72.4127 44.3656 72.512C43.3148 72.6113 42.5448 73.5413 42.6458 74.5893C42.7468 75.6373 43.6804 76.4063 44.7312 76.307Z" fill="#434343"/>
<path fill-rule="evenodd" clip-rule="evenodd" d="M25.1329 79.5621C26.9479 79.3902 28.2782 77.7834 28.1042 75.9732C27.9303 74.1631 26.318 72.8351 24.503 73.007C22.6881 73.179 21.3577 74.7858 21.5317 76.5959C21.7056 78.4061 23.318 79.7341 25.1329 79.5621ZM25.0007 78.1816C26.0515 78.0823 26.8215 77.1522 26.7205 76.1043C26.6196 75.0563 25.6859 74.2873 24.6351 74.3866C23.5843 74.4859 22.8143 75.4159 22.9153 76.4639C23.0162 77.5118 23.9499 78.2809 25.0007 78.1816Z" fill="#434343"/>
<rect x="37.8658" y="56.5886" width="51.1141" height="3.1172" fill="#434343"/>
<path d="M12.1348 56.2422H31.9546V59.3594L12.1348 58.4936V56.2422Z" fill="#434343"/>
<path d="M94.1957 51.7396L130.01 57.8008V61.4376L94.1957 55.5495L94.1957 51.7396Z" fill="#434343"/>
<path d="M12.3099 82.3921L32.648 77.8894L32.648 81.011L12.3103 84.9032L12.3099 82.3921Z" fill="#434343"/>
</svg>
