<svg width="237" height="171" viewBox="0 0 237 171" fill="none" xmlns="http://www.w3.org/2000/svg">
<rect x="0.25" y="0.25" width="236.5" height="170.389" rx="5.75" fill="white" stroke="#CFCDCD" stroke-width="0.5"/>
<path d="M60.6127 143V132.917H61.7269V138.099L65.3978 132.917H66.7992L63.5795 137.135L66.8949 143H65.5961L62.9027 138.017L61.7269 139.486V143H60.6127ZM67.6673 141.141C67.6673 140.808 67.7015 140.525 67.7699 140.293C67.8382 140.056 67.9522 139.849 68.1117 139.671C68.2757 139.493 68.4649 139.343 68.6791 139.22C68.8978 139.097 69.1804 138.967 69.5267 138.83C70.0918 138.62 70.5362 138.434 70.8597 138.27C70.9782 138.215 71.0534 138.115 71.0853 137.969C71.1218 137.823 71.14 137.629 71.14 137.388C71.14 136.959 71.0557 136.659 70.8871 136.485C70.723 136.312 70.4291 136.226 70.0052 136.226C69.6133 136.226 69.333 136.333 69.1644 136.547C68.9958 136.761 68.9115 137.091 68.9115 137.538H67.9613C67.9613 136.782 68.1413 136.226 68.5013 135.87C68.8614 135.51 69.3991 135.33 70.1146 135.33C70.8164 135.33 71.3382 135.51 71.68 135.87C72.0264 136.226 72.1996 136.679 72.1996 137.23V141.64C72.1996 141.822 72.2337 141.968 72.3021 142.077C72.3705 142.187 72.473 142.241 72.6097 142.241C72.6963 142.241 72.7761 142.232 72.849 142.214V143C72.7578 143.055 72.612 143.082 72.4115 143.082C72.2292 143.082 72.0856 143.071 71.9808 143.048C71.876 143.03 71.7712 142.986 71.6664 142.918C71.5615 142.845 71.4772 142.736 71.4134 142.59C71.3542 142.439 71.3041 142.241 71.263 141.995H71.2357C71.1081 142.332 70.8871 142.617 70.5726 142.85C70.2582 143.082 69.9278 143.198 69.5814 143.198C68.3054 143.198 67.6673 142.512 67.6673 141.141ZM68.7748 141.093C68.7748 141.444 68.8545 141.724 69.014 141.934C69.1781 142.139 69.4287 142.241 69.766 142.241C70.682 142.241 71.14 141.738 71.14 140.73V138.926C70.9851 139.012 70.7982 139.106 70.5795 139.206C70.3653 139.306 70.1807 139.391 70.0257 139.459C69.8754 139.523 69.7158 139.607 69.5472 139.712C69.3786 139.812 69.2419 139.919 69.1371 140.033C69.0323 140.147 68.9457 140.295 68.8773 140.478C68.8089 140.655 68.7748 140.86 68.7748 141.093ZM73.3343 142.973V142.132C73.4711 142.159 73.6237 142.173 73.7923 142.173C73.9974 142.173 74.1524 142.102 74.2572 141.961C74.362 141.815 74.4418 141.535 74.4964 141.12C74.5511 140.705 74.5785 140.099 74.5785 139.302V135.521H78.9877V143H77.9212V136.417H75.597V139.391C75.597 139.851 75.5834 140.257 75.556 140.607C75.5332 140.954 75.4854 141.289 75.4125 141.612C75.3441 141.931 75.2507 142.193 75.1322 142.398C75.0137 142.604 74.8565 142.768 74.6605 142.891C74.4691 143.009 74.2412 143.068 73.9769 143.068C73.7263 143.068 73.5121 143.036 73.3343 142.973ZM80.9496 143V135.521H82.016V138.618H83.513C84.1237 138.618 84.6205 138.832 85.0033 139.261C85.3907 139.689 85.5843 140.227 85.5843 140.874C85.5843 141.512 85.3907 142.027 85.0033 142.419C84.6159 142.806 84.1192 143 83.513 143H80.9496ZM82.016 142.104H83.1371C83.6247 142.104 83.9688 142.002 84.1693 141.797C84.3744 141.592 84.4769 141.271 84.4769 140.833C84.4769 139.953 84.0531 139.514 83.2054 139.514H82.016V142.104ZM87.266 143V135.521H88.3324V139.008L90.9232 135.521H92.181L89.8705 138.434L92.2494 143H91.0052L89.1459 139.274L88.3324 140.341V143H87.266ZM92.6664 135.521H93.7738L95.5375 141.489H95.5648L97.2123 135.521H98.3197L95.9955 143.041C95.9408 143.228 95.8929 143.378 95.8519 143.492C95.8155 143.606 95.7676 143.745 95.7084 143.909C95.6491 144.073 95.5944 144.205 95.5443 144.306C95.4942 144.406 95.4326 144.52 95.3597 144.647C95.2868 144.775 95.2116 144.878 95.1341 144.955C95.0612 145.037 94.9724 145.119 94.8675 145.201C94.7627 145.283 94.6533 145.347 94.5394 145.393C94.43 145.438 94.3024 145.475 94.1566 145.502C94.0153 145.534 93.8627 145.55 93.6986 145.55C93.4662 145.55 93.2155 145.507 92.9466 145.42V144.483C93.1973 144.597 93.4571 144.654 93.7259 144.654C93.9082 144.654 94.07 144.616 94.2113 144.538C94.3526 144.465 94.4733 144.354 94.5736 144.203C94.6784 144.053 94.765 143.896 94.8334 143.731C94.9017 143.567 94.9724 143.365 95.0453 143.123L92.6664 135.521ZM98.3265 142.973V142.132C98.4632 142.159 98.6159 142.173 98.7845 142.173C98.9896 142.173 99.1446 142.102 99.2494 141.961C99.3542 141.815 99.4339 141.535 99.4886 141.12C99.5433 140.705 99.5707 140.099 99.5707 139.302V135.521H103.98V143H102.913V136.417H100.589V139.391C100.589 139.851 100.576 140.257 100.548 140.607C100.525 140.954 100.478 141.289 100.405 141.612C100.336 141.931 100.243 142.193 100.124 142.398C100.006 142.604 99.8487 142.768 99.6527 142.891C99.4613 143.009 99.2334 143.068 98.9691 143.068C98.7184 143.068 98.5043 143.036 98.3265 142.973ZM105.415 143L107.008 139.739C106.593 139.584 106.265 139.32 106.024 138.946C105.782 138.573 105.661 138.142 105.661 137.654C105.661 137.016 105.855 136.501 106.243 136.109C106.634 135.717 107.133 135.521 107.74 135.521H110.31V143H109.25V139.849H108.102L106.577 143H105.415ZM106.769 137.695C106.769 138.115 106.869 138.429 107.07 138.639C107.27 138.848 107.596 138.953 108.047 138.953H109.25V136.417H108.088C107.61 136.417 107.27 136.522 107.07 136.731C106.869 136.937 106.769 137.258 106.769 137.695ZM111.493 136.417V135.521H116.462V136.417H114.514V143H113.448V136.417H111.493ZM117.351 139.233C117.351 136.631 118.244 135.33 120.031 135.33C121.813 135.33 122.703 136.636 122.703 139.247C122.703 139.994 122.642 140.628 122.519 141.147C122.4 141.667 122.22 142.075 121.979 142.371C121.737 142.667 121.459 142.879 121.145 143.007C120.83 143.134 120.459 143.198 120.031 143.198C119.693 143.198 119.393 143.16 119.128 143.082C118.864 143.005 118.618 142.872 118.39 142.686C118.167 142.499 117.98 142.257 117.829 141.961C117.679 141.66 117.561 141.282 117.474 140.826C117.392 140.366 117.351 139.835 117.351 139.233ZM118.458 139.343C118.458 139.808 118.483 140.213 118.534 140.56C118.584 140.901 118.666 141.209 118.78 141.482C118.898 141.751 119.06 141.956 119.265 142.098C119.475 142.234 119.73 142.303 120.031 142.303C120.336 142.303 120.593 142.234 120.803 142.098C121.013 141.956 121.175 141.749 121.288 141.476C121.402 141.202 121.482 140.897 121.528 140.56C121.573 140.218 121.596 139.812 121.596 139.343C121.596 138.213 121.475 137.41 121.234 136.937C120.997 136.463 120.596 136.226 120.031 136.226C119.461 136.226 119.055 136.463 118.814 136.937C118.577 137.41 118.458 138.213 118.458 139.343ZM124.385 145.604V135.521H125.452V136.362H125.465C125.625 136.034 125.848 135.781 126.135 135.604C126.422 135.421 126.707 135.33 126.99 135.33C128.626 135.33 129.444 136.599 129.444 139.138C129.444 139.739 129.405 140.272 129.327 140.737C129.255 141.202 129.132 141.626 128.958 142.009C128.785 142.392 128.539 142.686 128.22 142.891C127.901 143.096 127.516 143.198 127.065 143.198C126.705 143.198 126.399 143.118 126.149 142.959C125.903 142.795 125.67 142.551 125.452 142.228V145.604H124.385ZM125.452 139.247C125.452 139.489 125.454 139.698 125.458 139.876C125.463 140.049 125.477 140.25 125.499 140.478C125.522 140.701 125.552 140.892 125.588 141.052C125.629 141.211 125.684 141.375 125.752 141.544C125.825 141.713 125.91 141.849 126.005 141.954C126.105 142.054 126.229 142.139 126.374 142.207C126.525 142.271 126.693 142.303 126.88 142.303C127.154 142.303 127.384 142.234 127.571 142.098C127.762 141.961 127.912 141.754 128.022 141.476C128.136 141.193 128.216 140.865 128.261 140.491C128.311 140.113 128.336 139.662 128.336 139.138C128.336 137.196 127.846 136.226 126.867 136.226C126.657 136.226 126.472 136.269 126.313 136.355C126.153 136.438 126.023 136.561 125.923 136.725C125.823 136.889 125.739 137.062 125.67 137.244C125.606 137.426 125.559 137.643 125.527 137.894C125.499 138.14 125.479 138.363 125.465 138.563C125.456 138.764 125.452 138.992 125.452 139.247ZM134.489 145.604V135.521H135.555V136.362H135.569C135.728 136.034 135.952 135.781 136.239 135.604C136.526 135.421 136.811 135.33 137.093 135.33C138.729 135.33 139.547 136.599 139.547 139.138C139.547 139.739 139.508 140.272 139.431 140.737C139.358 141.202 139.235 141.626 139.062 142.009C138.889 142.392 138.643 142.686 138.324 142.891C138.005 143.096 137.619 143.198 137.168 143.198C136.808 143.198 136.503 143.118 136.252 142.959C136.006 142.795 135.774 142.551 135.555 142.228V145.604H134.489ZM135.555 139.247C135.555 139.489 135.557 139.698 135.562 139.876C135.566 140.049 135.58 140.25 135.603 140.478C135.626 140.701 135.655 140.892 135.692 141.052C135.733 141.211 135.787 141.375 135.856 141.544C135.929 141.713 136.013 141.849 136.109 141.954C136.209 142.054 136.332 142.139 136.478 142.207C136.628 142.271 136.797 142.303 136.984 142.303C137.257 142.303 137.487 142.234 137.674 142.098C137.866 141.961 138.016 141.754 138.125 141.476C138.239 141.193 138.319 140.865 138.365 140.491C138.415 140.113 138.44 139.662 138.44 139.138C138.44 137.196 137.95 136.226 136.97 136.226C136.76 136.226 136.576 136.269 136.416 136.355C136.257 136.438 136.127 136.561 136.027 136.725C135.926 136.889 135.842 137.062 135.774 137.244C135.71 137.426 135.662 137.643 135.63 137.894C135.603 138.14 135.582 138.363 135.569 138.563C135.56 138.764 135.555 138.992 135.555 139.247ZM140.812 141.141C140.812 140.808 140.846 140.525 140.914 140.293C140.983 140.056 141.097 139.849 141.256 139.671C141.42 139.493 141.609 139.343 141.824 139.22C142.042 139.097 142.325 138.967 142.671 138.83C143.236 138.62 143.681 138.434 144.004 138.27C144.123 138.215 144.198 138.115 144.23 137.969C144.266 137.823 144.285 137.629 144.285 137.388C144.285 136.959 144.2 136.659 144.032 136.485C143.868 136.312 143.574 136.226 143.15 136.226C142.758 136.226 142.478 136.333 142.309 136.547C142.14 136.761 142.056 137.091 142.056 137.538H141.106C141.106 136.782 141.286 136.226 141.646 135.87C142.006 135.51 142.544 135.33 143.259 135.33C143.961 135.33 144.483 135.51 144.825 135.87C145.171 136.226 145.344 136.679 145.344 137.23V141.64C145.344 141.822 145.378 141.968 145.447 142.077C145.515 142.187 145.618 142.241 145.754 142.241C145.841 142.241 145.921 142.232 145.994 142.214V143C145.902 143.055 145.757 143.082 145.556 143.082C145.374 143.082 145.23 143.071 145.125 143.048C145.021 143.03 144.916 142.986 144.811 142.918C144.706 142.845 144.622 142.736 144.558 142.59C144.499 142.439 144.449 142.241 144.408 141.995H144.38C144.253 142.332 144.032 142.617 143.717 142.85C143.403 143.082 143.072 143.198 142.726 143.198C141.45 143.198 140.812 142.512 140.812 141.141ZM141.919 141.093C141.919 141.444 141.999 141.724 142.159 141.934C142.323 142.139 142.573 142.241 142.911 142.241C143.827 142.241 144.285 141.738 144.285 140.73V138.926C144.13 139.012 143.943 139.106 143.724 139.206C143.51 139.306 143.325 139.391 143.17 139.459C143.02 139.523 142.86 139.607 142.692 139.712C142.523 139.812 142.386 139.919 142.282 140.033C142.177 140.147 142.09 140.295 142.022 140.478C141.953 140.655 141.919 140.86 141.919 141.093ZM147.019 139.363C147.019 136.674 147.883 135.33 149.61 135.33C150.33 135.33 150.888 135.569 151.285 136.048C151.681 136.526 151.879 137.13 151.879 137.859H150.874C150.874 137.641 150.854 137.44 150.813 137.258C150.772 137.076 150.706 136.905 150.615 136.745C150.523 136.581 150.391 136.453 150.218 136.362C150.045 136.271 149.838 136.226 149.596 136.226C149.391 136.226 149.206 136.267 149.042 136.349C148.883 136.426 148.751 136.542 148.646 136.697C148.546 136.852 148.459 137.023 148.386 137.21C148.313 137.397 148.258 137.616 148.222 137.866C148.186 138.117 148.161 138.358 148.147 138.591C148.133 138.823 148.126 139.081 148.126 139.363C148.126 139.614 148.131 139.83 148.14 140.013C148.149 140.19 148.167 140.407 148.195 140.662C148.222 140.913 148.268 141.125 148.331 141.298C148.395 141.471 148.477 141.64 148.577 141.804C148.678 141.968 148.81 142.093 148.974 142.18C149.143 142.262 149.336 142.303 149.555 142.303C149.715 142.303 149.858 142.282 149.986 142.241C150.113 142.2 150.22 142.15 150.307 142.091C150.394 142.027 150.469 141.943 150.533 141.838C150.601 141.733 150.653 141.633 150.69 141.537C150.731 141.437 150.763 141.314 150.786 141.168C150.813 141.022 150.831 140.897 150.84 140.792C150.854 140.683 150.865 140.55 150.874 140.396H151.879C151.879 140.765 151.838 141.111 151.756 141.435C151.674 141.758 151.549 142.054 151.38 142.323C151.212 142.592 150.977 142.806 150.676 142.966C150.375 143.121 150.024 143.198 149.623 143.198C149.304 143.198 149.017 143.16 148.762 143.082C148.507 143.009 148.288 142.909 148.106 142.781C147.928 142.654 147.773 142.492 147.641 142.296C147.509 142.1 147.404 141.897 147.327 141.688C147.249 141.478 147.185 141.239 147.135 140.97C147.09 140.696 147.058 140.437 147.039 140.19C147.026 139.94 147.019 139.664 147.019 139.363ZM153.089 137.736V135.521H154.156V137.641C154.156 138.042 154.235 138.329 154.395 138.502C154.559 138.671 154.867 138.755 155.318 138.755C155.737 138.755 156.156 138.732 156.576 138.687V135.521H157.642V143H156.576V139.514C156.147 139.609 155.607 139.657 154.955 139.657C154.331 139.657 153.864 139.477 153.554 139.117C153.244 138.753 153.089 138.292 153.089 137.736ZM159.324 139.247C159.324 136.636 160.123 135.33 161.723 135.33C162.065 135.33 162.366 135.387 162.625 135.501C162.89 135.61 163.104 135.772 163.268 135.986C163.437 136.196 163.576 136.426 163.685 136.677C163.794 136.923 163.874 137.217 163.924 137.559C163.979 137.9 164.015 138.219 164.034 138.516C164.052 138.807 164.061 139.14 164.061 139.514H160.431C160.431 139.837 160.436 140.106 160.445 140.32C160.454 140.535 160.472 140.758 160.499 140.99C160.531 141.223 160.577 141.412 160.636 141.558C160.7 141.699 160.78 141.831 160.875 141.954C160.971 142.077 161.094 142.166 161.244 142.221C161.395 142.275 161.573 142.303 161.778 142.303C162.589 142.303 162.994 141.703 162.994 140.505H164.061C164.061 141.289 163.869 141.934 163.487 142.439C163.108 142.945 162.548 143.198 161.805 143.198C161.399 143.198 161.049 143.132 160.752 143C160.456 142.868 160.199 142.654 159.98 142.357C159.761 142.057 159.597 141.649 159.488 141.134C159.378 140.614 159.324 139.985 159.324 139.247ZM160.431 138.618H162.953C162.953 138.363 162.944 138.133 162.926 137.928C162.912 137.723 162.881 137.511 162.83 137.292C162.78 137.069 162.712 136.884 162.625 136.738C162.539 136.588 162.42 136.465 162.27 136.369C162.119 136.273 161.942 136.226 161.737 136.226C161.55 136.226 161.381 136.262 161.231 136.335C161.085 136.403 160.966 136.504 160.875 136.636C160.784 136.763 160.707 136.902 160.643 137.053C160.584 137.199 160.538 137.369 160.506 137.565C160.479 137.757 160.458 137.932 160.445 138.092C160.436 138.251 160.431 138.427 160.431 138.618ZM164.963 136.417V135.521H169.933V136.417H167.985V143H166.918V136.417H164.963ZM170.685 141.141C170.685 140.808 170.719 140.525 170.787 140.293C170.856 140.056 170.97 139.849 171.129 139.671C171.293 139.493 171.482 139.343 171.697 139.22C171.915 139.097 172.198 138.967 172.544 138.83C173.109 138.62 173.554 138.434 173.877 138.27C173.996 138.215 174.071 138.115 174.103 137.969C174.139 137.823 174.158 137.629 174.158 137.388C174.158 136.959 174.073 136.659 173.905 136.485C173.741 136.312 173.447 136.226 173.023 136.226C172.631 136.226 172.351 136.333 172.182 136.547C172.013 136.761 171.929 137.091 171.929 137.538H170.979C170.979 136.782 171.159 136.226 171.519 135.87C171.879 135.51 172.417 135.33 173.132 135.33C173.834 135.33 174.356 135.51 174.698 135.87C175.044 136.226 175.217 136.679 175.217 137.23V141.64C175.217 141.822 175.251 141.968 175.32 142.077C175.388 142.187 175.491 142.241 175.627 142.241C175.714 142.241 175.794 142.232 175.867 142.214V143C175.775 143.055 175.63 143.082 175.429 143.082C175.247 143.082 175.103 143.071 174.998 143.048C174.894 143.03 174.789 142.986 174.684 142.918C174.579 142.845 174.495 142.736 174.431 142.59C174.372 142.439 174.322 142.241 174.281 141.995H174.253C174.126 142.332 173.905 142.617 173.59 142.85C173.276 143.082 172.945 143.198 172.599 143.198C171.323 143.198 170.685 142.512 170.685 141.141ZM171.792 141.093C171.792 141.444 171.872 141.724 172.032 141.934C172.196 142.139 172.446 142.241 172.784 142.241C173.7 142.241 174.158 141.738 174.158 140.73V138.926C174.003 139.012 173.816 139.106 173.597 139.206C173.383 139.306 173.198 139.391 173.043 139.459C172.893 139.523 172.733 139.607 172.565 139.712C172.396 139.812 172.259 139.919 172.155 140.033C172.05 140.147 171.963 140.295 171.895 140.478C171.827 140.655 171.792 140.86 171.792 141.093ZM92.892 156.104H93.5345C93.8763 155.384 94.1087 154.749 94.2318 154.197C94.3548 153.646 94.4164 152.91 94.4164 151.989V149.521H98.5043V156.104H99.222V159.03H98.2377V157H93.8695V159.03H92.892V156.104ZM94.6283 156.104H97.4447V150.417H95.4418V152.563C95.4418 153.293 95.3825 153.903 95.264 154.396C95.1455 154.883 94.9336 155.453 94.6283 156.104ZM100.2 153.233C100.2 150.631 101.093 149.33 102.879 149.33C104.661 149.33 105.552 150.636 105.552 153.247C105.552 153.994 105.491 154.628 105.368 155.147C105.249 155.667 105.069 156.075 104.827 156.371C104.586 156.667 104.308 156.879 103.994 157.007C103.679 157.134 103.308 157.198 102.879 157.198C102.542 157.198 102.241 157.16 101.977 157.082C101.713 157.005 101.466 156.872 101.239 156.686C101.015 156.499 100.828 156.257 100.678 155.961C100.528 155.66 100.409 155.282 100.323 154.826C100.241 154.366 100.2 153.835 100.2 153.233ZM101.307 153.343C101.307 153.808 101.332 154.213 101.382 154.56C101.432 154.901 101.514 155.209 101.628 155.482C101.747 155.751 101.909 155.956 102.114 156.098C102.323 156.234 102.578 156.303 102.879 156.303C103.185 156.303 103.442 156.234 103.652 156.098C103.861 155.956 104.023 155.749 104.137 155.476C104.251 155.202 104.331 154.897 104.376 154.56C104.422 154.218 104.445 153.812 104.445 153.343C104.445 152.213 104.324 151.41 104.082 150.937C103.845 150.463 103.444 150.226 102.879 150.226C102.31 150.226 101.904 150.463 101.662 150.937C101.425 151.41 101.307 152.213 101.307 153.343ZM106.953 153.363C106.953 150.674 107.817 149.33 109.544 149.33C110.264 149.33 110.823 149.569 111.219 150.048C111.616 150.526 111.814 151.13 111.814 151.859H110.809C110.809 151.641 110.788 151.44 110.747 151.258C110.706 151.076 110.64 150.905 110.549 150.745C110.458 150.581 110.326 150.453 110.153 150.362C109.98 150.271 109.772 150.226 109.531 150.226C109.326 150.226 109.141 150.267 108.977 150.349C108.817 150.426 108.685 150.542 108.58 150.697C108.48 150.852 108.394 151.023 108.321 151.21C108.248 151.397 108.193 151.616 108.157 151.866C108.12 152.117 108.095 152.358 108.081 152.591C108.068 152.823 108.061 153.081 108.061 153.363C108.061 153.614 108.065 153.83 108.075 154.013C108.084 154.19 108.102 154.407 108.129 154.662C108.157 154.913 108.202 155.125 108.266 155.298C108.33 155.471 108.412 155.64 108.512 155.804C108.612 155.968 108.744 156.093 108.909 156.18C109.077 156.262 109.271 156.303 109.49 156.303C109.649 156.303 109.793 156.282 109.92 156.241C110.048 156.2 110.155 156.15 110.242 156.091C110.328 156.027 110.403 155.943 110.467 155.838C110.536 155.733 110.588 155.633 110.624 155.537C110.665 155.437 110.697 155.314 110.72 155.168C110.747 155.022 110.766 154.897 110.775 154.792C110.788 154.683 110.8 154.55 110.809 154.396H111.814C111.814 154.765 111.773 155.111 111.691 155.435C111.609 155.758 111.483 156.054 111.315 156.323C111.146 156.592 110.911 156.806 110.611 156.966C110.31 157.121 109.959 157.198 109.558 157.198C109.239 157.198 108.952 157.16 108.697 157.082C108.441 157.009 108.223 156.909 108.04 156.781C107.863 156.654 107.708 156.492 107.576 156.296C107.443 156.1 107.339 155.897 107.261 155.688C107.184 155.478 107.12 155.239 107.07 154.97C107.024 154.696 106.992 154.437 106.974 154.19C106.96 153.94 106.953 153.664 106.953 153.363ZM112.525 150.417V149.521H117.494V150.417H115.546V157H114.48V150.417H112.525ZM118.246 155.141C118.246 154.808 118.281 154.525 118.349 154.293C118.417 154.056 118.531 153.849 118.691 153.671C118.855 153.493 119.044 153.343 119.258 153.22C119.477 153.097 119.759 152.967 120.106 152.83C120.671 152.62 121.115 152.434 121.439 152.27C121.557 152.215 121.633 152.115 121.664 151.969C121.701 151.823 121.719 151.629 121.719 151.388C121.719 150.959 121.635 150.659 121.466 150.485C121.302 150.312 121.008 150.226 120.584 150.226C120.192 150.226 119.912 150.333 119.744 150.547C119.575 150.761 119.491 151.091 119.491 151.538H118.54C118.54 150.782 118.72 150.226 119.08 149.87C119.44 149.51 119.978 149.33 120.694 149.33C121.396 149.33 121.917 149.51 122.259 149.87C122.605 150.226 122.779 150.679 122.779 151.23V155.64C122.779 155.822 122.813 155.968 122.881 156.077C122.95 156.187 123.052 156.241 123.189 156.241C123.275 156.241 123.355 156.232 123.428 156.214V157C123.337 157.055 123.191 157.082 122.991 157.082C122.808 157.082 122.665 157.071 122.56 157.048C122.455 157.03 122.35 156.986 122.245 156.918C122.141 156.845 122.056 156.736 121.993 156.59C121.933 156.439 121.883 156.241 121.842 155.995H121.815C121.687 156.332 121.466 156.617 121.152 156.85C120.837 157.082 120.507 157.198 120.161 157.198C118.884 157.198 118.246 156.512 118.246 155.141ZM119.354 155.093C119.354 155.444 119.434 155.724 119.593 155.934C119.757 156.139 120.008 156.241 120.345 156.241C121.261 156.241 121.719 155.738 121.719 154.73V152.926C121.564 153.012 121.377 153.106 121.159 153.206C120.944 153.306 120.76 153.391 120.605 153.459C120.454 153.523 120.295 153.607 120.126 153.712C119.958 153.812 119.821 153.919 119.716 154.033C119.611 154.147 119.525 154.295 119.456 154.478C119.388 154.655 119.354 154.86 119.354 155.093ZM124.734 157V149.521H127.161C127.735 149.521 128.213 149.686 128.596 150.014C128.983 150.337 129.177 150.766 129.177 151.299C129.177 151.768 129.07 152.16 128.856 152.475C128.642 152.785 128.361 152.987 128.015 153.083V153.11C128.439 153.211 128.767 153.418 128.999 153.732C129.236 154.047 129.355 154.459 129.355 154.97C129.355 155.59 129.175 156.084 128.815 156.453C128.455 156.818 128.02 157 127.509 157H124.734ZM125.8 156.104H127.044C127.514 156.104 127.837 156.002 128.015 155.797C128.193 155.592 128.282 155.259 128.282 154.799C128.282 153.942 127.865 153.514 127.031 153.514H125.8V156.104ZM125.8 152.618H126.921C127.331 152.618 127.63 152.529 127.817 152.352C128.004 152.174 128.097 151.884 128.097 151.483C128.097 151.119 128.004 150.85 127.817 150.677C127.634 150.504 127.35 150.417 126.962 150.417H125.8V152.618ZM131.036 157V149.521H132.103V153.008L134.694 149.521H135.952L133.641 152.434L136.02 157H134.776L132.916 153.274L132.103 154.341V157H131.036ZM137.202 157V149.521H138.269V155.209C138.269 155.451 138.232 155.749 138.16 156.104H138.173C138.264 155.649 138.337 155.35 138.392 155.209L140.873 149.521H142.159V157H141.099V151.333C141.099 151.137 141.135 150.827 141.208 150.403H141.195C141.117 150.877 141.042 151.187 140.969 151.333L138.494 157H137.202Z" fill="black"/>
<path d="M232.787 33.4718C232.787 49.6623 219.662 62.7873 203.472 62.7873C187.281 62.7873 174.156 49.6623 174.156 33.4718C174.156 17.2812 187.281 4.15625 203.472 4.15625C219.662 4.15625 232.787 17.2812 232.787 33.4718Z" fill="black"/>
<path fill-rule="evenodd" clip-rule="evenodd" d="M203.471 6.3111C188.471 6.3111 176.311 18.471 176.311 33.4711C176.311 48.4711 188.471 60.631 203.471 60.631C218.471 60.631 230.631 48.4711 230.631 33.4711C230.631 18.471 218.471 6.3111 203.471 6.3111ZM172 33.4711C172 16.0901 186.09 2 203.471 2C220.852 2 234.942 16.0901 234.942 33.4711C234.942 50.852 220.852 64.9421 203.471 64.9421C186.09 64.9421 172 50.852 172 33.4711Z" fill="white"/>
<path d="M225.027 33.4715C225.027 45.3763 215.376 55.0271 203.472 55.0271C191.567 55.0271 181.916 45.3763 181.916 33.4715C181.916 21.5667 191.567 11.916 203.472 11.916C215.376 11.916 225.027 21.5667 225.027 33.4715Z" fill="#FEFEFE"/>
<path d="M196.162 37.9162V37.0763H200.111V37.9162C200.111 40.4703 201.118 41.7474 203.132 41.7474C203.898 41.7474 204.497 41.5362 204.93 41.1138C205.362 40.6914 205.578 40.1314 205.578 39.434C205.578 38.7562 205.401 38.1717 205.047 37.6805C204.694 37.1893 204.114 36.6834 203.309 36.1628L199.625 33.7609C197.454 32.3463 196.368 30.475 196.368 28.1468C196.368 26.6242 196.82 25.3766 197.724 24.4041C198.628 23.4315 199.846 22.8274 201.378 22.5916V19.9688H204.104V22.5916C205.794 22.7881 207.076 23.4364 207.95 24.5367C208.825 25.6271 209.262 27.1497 209.262 29.1046V29.7677H205.313V29.5319C205.313 27.0564 204.443 25.8186 202.705 25.8186C202.086 25.8186 201.565 25.9807 201.143 26.3049C200.72 26.6291 200.509 27.0809 200.509 27.6605C200.509 28.2696 200.622 28.7559 200.848 29.1193C201.074 29.4828 201.423 29.8217 201.894 30.1361L206.123 32.9357C206.673 33.2992 207.101 33.5988 207.405 33.8346C207.719 34.0704 208.053 34.3749 208.407 34.7482C208.761 35.1116 209.026 35.48 209.203 35.8533C209.38 36.2168 209.527 36.6736 209.645 37.2237C209.773 37.764 209.836 38.3779 209.836 39.0656C209.836 40.8436 209.345 42.2484 208.363 43.2799C207.39 44.3113 205.971 44.9007 204.104 45.0481V47.5825H201.378V44.9155C199.659 44.6208 198.358 43.8693 197.474 42.661C196.599 41.4527 196.162 39.8711 196.162 37.9162Z" fill="black"/>
<path fill-rule="evenodd" clip-rule="evenodd" d="M60.9629 121.283C65.4891 121.283 69.1582 117.614 69.1582 113.088C69.1582 108.562 65.4891 104.893 60.9629 104.893C56.4367 104.893 52.7676 108.562 52.7676 113.088C52.7676 117.614 56.4367 121.283 60.9629 121.283ZM60.9635 117.186C63.2266 117.186 65.0612 115.351 65.0612 113.088C65.0612 110.825 63.2266 108.99 60.9635 108.99C58.7005 108.99 56.8659 110.825 56.8659 113.088C56.8659 115.351 58.7005 117.186 60.9635 117.186Z" fill="#434343"/>
<path fill-rule="evenodd" clip-rule="evenodd" d="M83.2734 121.283C87.7996 121.283 91.4688 117.614 91.4688 113.088C91.4688 108.562 87.7996 104.893 83.2734 104.893C78.7473 104.893 75.0781 108.562 75.0781 113.088C75.0781 117.614 78.7473 121.283 83.2734 121.283ZM83.273 117.186C85.5361 117.186 87.3707 115.351 87.3707 113.088C87.3707 110.825 85.5361 108.99 83.273 108.99C81.0099 108.99 79.1754 110.825 79.1754 113.088C79.1754 115.351 81.0099 117.186 83.273 117.186Z" fill="#434343"/>
<path fill-rule="evenodd" clip-rule="evenodd" d="M152.934 121.283C157.46 121.283 161.129 117.614 161.129 113.088C161.129 108.562 157.46 104.893 152.934 104.893C148.407 104.893 144.738 108.562 144.738 113.088C144.738 117.614 148.407 121.283 152.934 121.283ZM152.933 117.186C155.196 117.186 157.031 115.351 157.031 113.088C157.031 110.825 155.196 108.99 152.933 108.99C150.67 108.99 148.836 110.825 148.836 113.088C148.836 115.351 150.67 117.186 152.933 117.186Z" fill="#434343"/>
<path fill-rule="evenodd" clip-rule="evenodd" d="M205.293 121.283C209.819 121.283 213.488 117.614 213.488 113.088C213.488 108.562 209.819 104.893 205.293 104.893C200.767 104.893 197.098 108.562 197.098 113.088C197.098 117.614 200.767 121.283 205.293 121.283ZM205.292 117.186C207.555 117.186 209.39 115.351 209.39 113.088C209.39 110.825 207.555 108.99 205.292 108.99C203.029 108.99 201.195 110.825 201.195 113.088C201.195 115.351 203.029 117.186 205.292 117.186Z" fill="#434343"/>
<path d="M91.4688 108.079H120.608V115.364H92.3793C92.3793 115.364 92.3793 112.404 92.3793 110.356C92.3793 108.307 91.4688 108.079 91.4688 108.079Z" fill="#434343"/>
<path d="M69.1582 108.079H71.89V115.364H70.0688C70.0688 115.364 70.0688 112.404 70.0688 110.356C70.0688 108.307 69.1582 108.079 69.1582 108.079Z" fill="#434343"/>
<path d="M74.623 108.079H71.8913V115.364H73.7125C73.7125 115.364 73.7125 112.404 73.7125 110.356C73.7125 108.307 74.623 108.079 74.623 108.079Z" fill="#434343"/>
<path d="M52.7676 108.079H43.2064L16.7992 112.632V115.364H51.857C51.857 115.364 51.857 112.404 51.857 110.356C51.857 108.307 52.7676 108.079 52.7676 108.079Z" fill="#434343"/>
<path d="M144.738 108.079H115.599V115.364H143.828C143.828 115.364 143.828 112.404 143.828 110.356C143.828 108.307 144.738 108.079 144.738 108.079Z" fill="#434343"/>
<path d="M161.584 108.079H195.276V115.364H162.495C162.495 115.364 162.495 112.404 162.495 110.356C162.495 108.307 161.584 108.079 161.584 108.079Z" fill="#434343"/>
<path fill-rule="evenodd" clip-rule="evenodd" d="M178.203 80.7614V108.079H195.277V115.136H195.951C195.807 114.476 195.731 113.79 195.731 113.087C195.731 107.806 200.012 103.526 205.292 103.526C210.573 103.526 214.854 107.806 214.854 113.087C214.854 113.79 214.778 114.476 214.633 115.136H220.318L221.001 114.453V108.762L220.318 108.079H218.497V99.4285C218.497 99.4285 217.586 97.0509 211.667 94.4203C208.456 92.993 206.049 92.3103 204.518 91.9844C203.342 91.7339 202.279 90.961 201.843 89.8403L198.525 81.3082C198.076 80.1551 196.966 79.3955 195.729 79.3955H179.797L179.576 79.4323C178.887 79.5472 178.34 80.0762 178.203 80.7614ZM195.048 83.4927H182.072V97.1516H194.365L197.043 92.4659C197.652 91.3999 197.738 90.1132 197.276 88.9758L195.048 83.4927Z" fill="#434343"/>
<path d="M171.6 61.1839C173.085 60.7384 174.668 60.7384 176.153 61.1839V106.713H171.6V61.1839Z" fill="#434343"/>
<path d="M117.875 61.1839C119.36 60.7384 120.943 60.7384 122.428 61.1839V106.713H117.875V61.1839Z" fill="#434343"/>
<path d="M43.207 61.1839C44.692 60.7384 46.275 60.7384 47.76 61.1839V106.713H43.207V61.1839Z" fill="#434343"/>
<path fill-rule="evenodd" clip-rule="evenodd" d="M171.6 102.161H122.428V106.714H146.013C147.683 104.763 150.164 103.527 152.933 103.527C155.703 103.527 158.184 104.763 159.854 106.714H171.6V102.161Z" fill="#434343"/>
<path fill-rule="evenodd" clip-rule="evenodd" d="M117.875 102.161H71.8906V106.714H76.3526C78.0227 104.763 80.5035 103.527 83.273 103.527C86.0426 103.527 88.5233 104.763 90.1934 106.714H117.875V102.161Z" fill="#434343"/>
<path fill-rule="evenodd" clip-rule="evenodd" d="M47.7599 102.161H71.8906V106.714H67.8839C66.2138 104.763 63.7331 103.527 60.9635 103.527C58.194 103.527 55.7132 104.763 54.0431 106.714H47.7599V102.161Z" fill="#434343"/>
<path fill-rule="evenodd" clip-rule="evenodd" d="M21.3535 70.7454H25.2235H25.5745C25.4933 70.3789 25.4505 69.998 25.4505 69.6072C25.4505 66.7155 27.7947 64.3713 30.6864 64.3713C33.5781 64.3713 35.9223 66.7155 35.9223 69.6072C35.9223 69.998 35.8794 70.3789 35.7982 70.7454H51.5264C51.4452 70.3789 51.4023 69.998 51.4023 69.6072C51.4023 66.7155 53.7465 64.3713 56.6382 64.3713C59.5299 64.3713 61.8741 66.7155 61.8741 69.6072C61.8741 69.998 61.8313 70.3789 61.7501 70.7454H65.5172V65.0542L62.7837 63.2318C61.8803 62.6295 60.8848 62.1784 59.8364 61.8962L55.5007 60.7289L48.8989 53.8994H24.0853L23.1932 55.4605C22.5792 56.5351 22.1699 57.7145 21.9863 58.9385L21.5812 61.6394L21.3535 70.7454ZM35.467 56.1759H48.2153L52.3129 60.7289H35.467V56.1759ZM33.1905 56.1759H25.4505L24.0846 60.7289H33.1905V56.1759Z" fill="#434343"/>
<path fill-rule="evenodd" clip-rule="evenodd" d="M56.6378 73.9328C59.0266 73.9328 60.9631 71.9963 60.9631 69.6075C60.9631 67.2187 59.0266 65.2822 56.6378 65.2822C54.249 65.2822 52.3125 67.2187 52.3125 69.6075C52.3125 71.9963 54.249 73.9328 56.6378 73.9328ZM56.6382 72.1113C58.0212 72.1113 59.1423 70.9902 59.1423 69.6072C59.1423 68.2242 58.0212 67.103 56.6382 67.103C55.2552 67.103 54.1341 68.2242 54.1341 69.6072C54.1341 70.9902 55.2552 72.1113 56.6382 72.1113Z" fill="#434343"/>
<path fill-rule="evenodd" clip-rule="evenodd" d="M30.6866 73.9328C33.0754 73.9328 35.0119 71.9963 35.0119 69.6075C35.0119 67.2187 33.0754 65.2822 30.6866 65.2822C28.2978 65.2822 26.3613 67.2187 26.3613 69.6075C26.3613 71.9963 28.2978 73.9328 30.6866 73.9328ZM30.6864 72.1113C32.0694 72.1113 33.1905 70.9902 33.1905 69.6072C33.1905 68.2242 32.0694 67.103 30.6864 67.103C29.3034 67.103 28.1822 68.2242 28.1822 69.6072C28.1822 70.9902 29.3034 72.1113 30.6864 72.1113Z" fill="#434343"/>
<path fill-rule="evenodd" clip-rule="evenodd" d="M125.16 98.9739H129.03H129.382C129.301 98.6074 129.258 98.2264 129.258 97.8355C129.258 94.9438 131.602 92.5996 134.494 92.5996C137.386 92.5996 139.73 94.9438 139.73 97.8355C139.73 98.2264 139.687 98.6074 139.606 98.9739H155.334C155.253 98.6074 155.21 98.2264 155.21 97.8355C155.21 94.9438 157.554 92.5996 160.446 92.5996C163.337 92.5996 165.682 94.9438 165.682 97.8355C165.682 98.2264 165.639 98.6074 165.557 98.9739H169.324V93.2827L166.59 91.4603C165.687 90.8581 164.691 90.4069 163.643 90.1247L159.307 88.9574L152.706 82.1279H127.892L127 83.689C126.386 84.7637 125.977 85.943 125.793 87.167L125.388 89.868L125.16 98.9739ZM139.274 84.4043H152.023L156.12 88.9572H139.274V84.4043ZM136.998 84.4043H129.258L127.892 88.9572H136.998V84.4043Z" fill="#434343"/>
<path fill-rule="evenodd" clip-rule="evenodd" d="M160.446 102.16C162.835 102.16 164.772 100.224 164.772 97.8351C164.772 95.4463 162.835 93.5098 160.446 93.5098C158.058 93.5098 156.121 95.4463 156.121 97.8351C156.121 100.224 158.058 102.16 160.446 102.16ZM160.446 100.34C161.829 100.34 162.95 99.2185 162.95 97.8355C162.95 96.4525 161.829 95.3314 160.446 95.3314C159.063 95.3314 157.942 96.4525 157.942 97.8355C157.942 99.2185 159.063 100.34 160.446 100.34Z" fill="#434343"/>
<path fill-rule="evenodd" clip-rule="evenodd" d="M134.493 102.16C136.882 102.16 138.819 100.224 138.819 97.8351C138.819 95.4463 136.882 93.5098 134.493 93.5098C132.104 93.5098 130.168 95.4463 130.168 97.8351C130.168 100.224 132.104 102.16 134.493 102.16ZM134.494 100.34C135.877 100.34 136.998 99.2185 136.998 97.8355C136.998 96.4525 135.877 95.3314 134.494 95.3314C133.111 95.3314 131.99 96.4525 131.99 97.8355C131.99 99.2185 133.111 100.34 134.494 100.34Z" fill="#434343"/>
<path fill-rule="evenodd" clip-rule="evenodd" d="M69.6133 98.9739H73.4833H73.8359C73.7547 98.6074 73.7118 98.2264 73.7118 97.8355C73.7118 94.9438 76.056 92.5996 78.9477 92.5996C81.8394 92.5996 84.1836 94.9438 84.1836 97.8355C84.1836 98.2264 84.1408 98.6074 84.0595 98.9739H99.7878C99.7065 98.6074 99.6637 98.2264 99.6637 97.8355C99.6637 94.9438 102.008 92.5996 104.9 92.5996C107.791 92.5996 110.135 94.9438 110.135 97.8355C110.135 98.2264 110.093 98.6074 110.011 98.9739H113.777V93.2827L111.043 91.4603C110.14 90.8581 109.145 90.4069 108.096 90.1247L103.76 88.9574L97.1587 82.1279H72.3451L71.453 83.689C70.8389 84.7637 70.4297 85.943 70.2461 87.167L69.8409 89.868L69.6133 98.9739ZM83.7283 84.4043H96.4766L100.574 88.9572H83.7283V84.4043ZM81.4518 84.4043H73.7118L72.3459 88.9572H81.4518V84.4043Z" fill="#434343"/>
<path fill-rule="evenodd" clip-rule="evenodd" d="M104.9 102.16C107.288 102.16 109.225 100.224 109.225 97.8351C109.225 95.4463 107.288 93.5098 104.9 93.5098C102.511 93.5098 100.574 95.4463 100.574 97.8351C100.574 100.224 102.511 102.16 104.9 102.16ZM104.9 100.34C106.283 100.34 107.404 99.2185 107.404 97.8355C107.404 96.4525 106.283 95.3314 104.9 95.3314C103.517 95.3314 102.395 96.4525 102.395 97.8355C102.395 99.2185 103.517 100.34 104.9 100.34Z" fill="#434343"/>
<path fill-rule="evenodd" clip-rule="evenodd" d="M78.9484 102.16C81.3372 102.16 83.2737 100.224 83.2737 97.8351C83.2737 95.4463 81.3372 93.5098 78.9484 93.5098C76.5596 93.5098 74.623 95.4463 74.623 97.8351C74.623 100.224 76.5596 102.16 78.9484 102.16ZM78.9477 100.34C80.3307 100.34 81.4518 99.2185 81.4518 97.8355C81.4518 96.4525 80.3307 95.3314 78.9477 95.3314C77.5647 95.3314 76.4436 96.4525 76.4436 97.8355C76.4436 99.2185 77.5647 100.34 78.9477 100.34Z" fill="#434343"/>
<path fill-rule="evenodd" clip-rule="evenodd" d="M69.6133 70.7454H73.4833H73.8359C73.7546 70.3789 73.7118 69.998 73.7118 69.6072C73.7118 66.7155 76.056 64.3713 78.9477 64.3713C81.8394 64.3713 84.1836 66.7155 84.1836 69.6072C84.1836 69.998 84.1408 70.3789 84.0596 70.7454H99.7877C99.7065 70.3789 99.6637 69.998 99.6637 69.6072C99.6637 66.7155 102.008 64.3713 104.9 64.3713C107.791 64.3713 110.135 66.7155 110.135 69.6072C110.135 69.998 110.093 70.3789 110.011 70.7454H113.777V65.0542L111.043 63.2318C110.14 62.6295 109.145 62.1784 108.096 61.8962L103.76 60.7289L97.1587 53.8994H72.3451L71.453 55.4605C70.8389 56.5351 70.4297 57.7145 70.2461 58.9385L69.8409 61.6394L69.6133 70.7454ZM83.7283 56.1759H96.4766L100.574 60.7289H83.7283V56.1759ZM81.4518 56.1759H73.7118L72.3459 60.7289H81.4518V56.1759Z" fill="#434343"/>
<path fill-rule="evenodd" clip-rule="evenodd" d="M104.9 73.9328C107.288 73.9328 109.225 71.9963 109.225 69.6075C109.225 67.2187 107.288 65.2822 104.9 65.2822C102.511 65.2822 100.574 67.2187 100.574 69.6075C100.574 71.9963 102.511 73.9328 104.9 73.9328ZM104.9 72.1113C106.283 72.1113 107.404 70.9902 107.404 69.6072C107.404 68.2242 106.283 67.103 104.9 67.103C103.517 67.103 102.395 68.2242 102.395 69.6072C102.395 70.9902 103.517 72.1113 104.9 72.1113Z" fill="#434343"/>
<path fill-rule="evenodd" clip-rule="evenodd" d="M78.9484 73.9328C81.3372 73.9328 83.2737 71.9963 83.2737 69.6075C83.2737 67.2187 81.3372 65.2822 78.9484 65.2822C76.5596 65.2822 74.623 67.2187 74.623 69.6075C74.623 71.9963 76.5596 73.9328 78.9484 73.9328ZM78.9477 72.1113C80.3307 72.1113 81.4518 70.9902 81.4518 69.6072C81.4518 68.2242 80.3307 67.103 78.9477 67.103C77.5647 67.103 76.4436 68.2242 76.4436 69.6072C76.4436 70.9902 77.5647 72.1113 78.9477 72.1113Z" fill="#434343"/>
<path fill-rule="evenodd" clip-rule="evenodd" d="M168.564 72.0353L164.734 71.4774L164.386 71.4268C164.52 71.0758 164.617 70.705 164.673 70.318C165.09 67.4565 163.108 64.7989 160.247 64.3821C157.385 63.9653 154.728 65.9471 154.311 68.8086C154.255 69.1956 154.242 69.5787 154.27 69.9531L138.705 67.686C138.838 67.335 138.936 66.9643 138.992 66.5774C139.409 63.7159 137.427 61.0583 134.565 60.6415C131.704 60.2247 129.046 62.2065 128.629 65.068C128.573 65.4549 128.561 65.838 128.588 66.2124L124.862 65.6695L125.682 60.0378L128.649 58.6285C129.63 58.1627 130.68 57.8598 131.758 57.7316L136.217 57.2014L143.734 51.3949L168.289 54.9715L168.947 56.6448C169.399 57.7968 169.634 59.0228 169.64 60.2605L169.651 62.9916L168.564 72.0353ZM156.697 55.5832L144.082 53.7456L139.371 57.6604L156.041 60.0886L156.697 55.5832ZM158.95 55.9113L166.609 57.027L167.304 61.7292L158.294 60.4167L158.95 55.9113Z" fill="#434343"/>
<path fill-rule="evenodd" clip-rule="evenodd" d="M133.188 70.1029C130.824 69.7585 129.187 67.5631 129.531 65.1993C129.875 62.8354 132.071 61.1982 134.435 61.5426C136.799 61.8869 138.436 64.0823 138.091 66.4462C137.747 68.81 135.552 70.4472 133.188 70.1029ZM133.45 68.3006C132.082 68.1012 131.134 66.8302 131.333 65.4617C131.533 64.0931 132.804 63.1453 134.172 63.3446C135.541 63.544 136.489 64.815 136.289 66.1836C136.09 67.5521 134.819 68.4999 133.45 68.3006Z" fill="#434343"/>
<path fill-rule="evenodd" clip-rule="evenodd" d="M158.869 73.8431C156.506 73.4988 154.868 71.3034 155.213 68.9395C155.557 66.5756 157.752 64.9385 160.116 65.2828C162.48 65.6271 164.117 67.8225 163.773 70.1864C163.429 72.5502 161.233 74.1874 158.869 73.8431ZM159.131 72.0412C157.762 71.8419 156.815 70.5708 157.014 69.2023C157.213 67.8337 158.484 66.8859 159.853 67.0853C161.221 67.2846 162.169 68.5556 161.97 69.9242C161.771 71.2927 160.5 72.2406 159.131 72.0412Z" fill="#434343"/>
<path fill-rule="evenodd" clip-rule="evenodd" d="M23.3149 102.297L27.1674 101.93L27.5177 101.896C27.402 101.539 27.3232 101.164 27.2861 100.775C27.0114 97.8962 29.1224 95.3399 32.001 95.0653C34.8796 94.7906 37.4359 96.9015 37.7106 99.7802C37.7477 100.169 37.7412 100.553 37.6952 100.925L53.3522 99.4312C53.2365 99.0741 53.1577 98.699 53.1206 98.3098C52.8459 95.4312 54.9569 92.8749 57.8355 92.6003C60.7141 92.3256 63.2704 94.4365 63.545 97.3152C63.5822 97.7043 63.5757 98.0876 63.5296 98.4601L67.2789 98.1024L66.7384 92.4369L63.8441 90.8824C62.8876 90.3687 61.8538 90.0142 60.7833 89.8327L56.3563 89.0825L49.1357 82.911L24.4343 85.2679L23.6945 86.9066C23.1853 88.0347 22.8899 89.2476 22.8234 90.4835L22.6766 93.2108L23.3149 102.297ZM35.981 86.4531L48.6716 85.2422L53.1832 89.3854L36.4134 90.9855L35.981 86.4531ZM33.7149 86.6691L26.0098 87.4043L25.0826 92.0664L34.1473 91.2015L33.7149 86.6691Z" fill="#434343"/>
<path fill-rule="evenodd" clip-rule="evenodd" d="M58.7426 102.118C61.1206 101.891 62.8645 99.7791 62.6376 97.4011C62.4107 95.0231 60.299 93.2793 57.921 93.5062C55.543 93.7331 53.7992 95.8447 54.0261 98.2227C54.253 100.601 56.3646 102.345 58.7426 102.118ZM58.5699 100.305C59.9466 100.174 60.9562 98.9511 60.8248 97.5744C60.6935 96.1976 59.4709 95.188 58.0942 95.3194C56.7174 95.4508 55.7078 96.6733 55.8392 98.0501C55.9706 99.4268 57.1931 100.436 58.5699 100.305Z" fill="#434343"/>
<path fill-rule="evenodd" clip-rule="evenodd" d="M32.9087 104.583C35.2867 104.357 37.0305 102.245 36.8036 99.8669C36.5767 97.4889 34.465 95.7451 32.087 95.972C29.709 96.1989 27.9652 98.3106 28.1921 100.689C28.419 103.067 30.5307 104.81 32.9087 104.583ZM32.7354 102.77C34.1121 102.639 35.1217 101.416 34.9903 100.039C34.859 98.6626 33.6364 97.653 32.2597 97.7844C30.8829 97.9158 29.8734 99.1383 30.0047 100.515C30.1361 101.892 31.3586 102.901 32.7354 102.77Z" fill="#434343"/>
<rect x="49.582" y="74.3877" width="66.9285" height="4.09766" fill="#434343"/>
<path d="M15.8887 73.9326H41.8405V78.0303L15.8887 76.892V73.9326Z" fill="#434343"/>
<path d="M123.34 68.0137L170.235 75.9813V80.762L123.34 73.0219L123.34 68.0137Z" fill="#434343"/>
<path d="M16.1185 108.307L42.749 102.388L42.749 106.492L16.1191 111.608L16.1185 108.307Z" fill="#434343"/>
</svg>
