<svg width="14" height="14" viewBox="0 0 14 14" fill="none" xmlns="http://www.w3.org/2000/svg">
<path fill-rule="evenodd" clip-rule="evenodd" d="M7 0.666667C3.5022 0.666667 0.666667 3.5022 0.666667 7C0.666667 10.4978 3.5022 13.3333 7 13.3333C10.4978 13.3333 13.3333 10.4978 13.3333 7C13.3333 3.5022 10.4978 0.666667 7 0.666667ZM0 7C0 3.13401 3.13401 0 7 0C10.866 0 14 3.13401 14 7C14 10.866 10.866 14 7 14C3.13401 14 0 10.866 0 7Z" fill="#666666"/>
<path fill-rule="evenodd" clip-rule="evenodd" d="M7.3111 2.33301C7.48292 2.33301 7.62221 2.48777 7.62221 2.67868V6.61314L9.93907 7.9003C10.0927 7.98568 10.155 8.19331 10.0782 8.36407C10.0014 8.53483 9.81449 8.60404 9.66081 8.51866L7.17197 7.13596C7.06658 7.07741 7 6.95771 7 6.82678V2.67868C7 2.48777 7.13929 2.33301 7.3111 2.33301Z" fill="#666666"/>
</svg>
