<svg width="18" height="12" viewBox="0 0 18 12" fill="none" xmlns="http://www.w3.org/2000/svg">
<path d="M0.65625 0.159227C0.901274 0.0276917 1.12621 0 1.3632 0C3.50415 0 5.6451 0 7.78604 0C10.7103 0 13.6345 0 16.5587 0C16.8359 0 17.105 0.0242302 17.3741 0.16615C17.3259 0.211149 17.2817 0.252687 17.2375 0.290763C14.7552 2.31572 12.2688 4.34067 9.78238 6.36562C9.31242 6.74985 8.71794 6.75331 8.25601 6.37601C5.77765 4.33375 3.29528 2.29841 0.816921 0.263071C0.772737 0.228456 0.720519 0.200765 0.65625 0.159227Z" fill="white"/>
<path d="M0.620117 10.9069C2.59236 9.30075 4.5405 7.7154 6.50471 6.11621C6.75375 6.31698 6.99476 6.51428 7.23576 6.71158C7.52899 6.95042 7.81418 7.18926 8.1074 7.4281C8.65369 7.86771 9.38474 7.86771 9.93102 7.42464C10.4492 7.00581 10.9593 6.58351 11.4936 6.1439C13.4337 7.73617 15.3698 9.32498 17.3259 10.9311C17.113 11.0453 16.8961 11.0765 16.6712 11.0765C15.2733 11.0765 13.8715 11.0765 12.4736 11.0765C8.77821 11.0765 5.08277 11.0765 1.38732 11.0765C1.12623 11.0799 0.873175 11.0488 0.620117 10.9069Z" fill="white"/>
<path d="M0.0419531 0.817383C1.96198 2.39235 3.86192 3.95346 5.78194 5.52497C3.87798 7.10685 1.94591 8.65413 0.0419531 10.2499C0.0299027 10.1495 0.00178524 10.0249 0.00178524 9.90025C0.00178524 7.77491 0.00178524 5.64612 0.00178524 3.51732C0.00178524 2.73157 -0.00223155 1.94928 0.00178524 1.16353C0.00580202 1.04238 0.0299027 0.921227 0.0419531 0.817383Z" fill="white"/>
<path d="M17.9968 0.802734C18.0009 3.96997 18.0009 7.12336 17.9968 10.2941C16.0447 8.6914 14.1407 7.12682 12.2207 5.55186C14.1287 3.97343 16.0567 2.4227 17.9968 0.802734Z" fill="white"/>
</svg>
