<svg width="13" height="13" viewBox="0 0 13 13" fill="none" xmlns="http://www.w3.org/2000/svg">
<path fill-rule="evenodd" clip-rule="evenodd" d="M7.06517 0.0231061C7.0037 0.0155391 6.94224 0.0079733 6.88086 0H6.42383V0.80793C8.0209 0.821133 9.40088 1.35129 10.5267 2.47686C11.6556 3.60547 12.1819 4.99103 12.1926 6.57617H13V6.11914C12.9975 6.10611 12.9946 6.0931 12.9916 6.08009L12.9916 6.08006L12.9916 6.08005C12.9854 6.05226 12.9791 6.02443 12.9769 5.99625C12.873 4.68279 12.4236 3.50137 11.602 2.47152C10.532 1.13039 9.14215 0.33084 7.44402 0.0733789C7.31811 0.0542436 7.19161 0.0386721 7.06517 0.0231061ZM0.00694649 3.10855L0.0069444 3.10856C0.00445504 3.1134 0.00197058 3.11823 0 3.12304V3.83398C0.00742837 3.89642 0.0146917 3.95889 0.0219552 4.02136L0.0219574 4.02138C0.0385272 4.16389 0.0550982 4.30641 0.0736328 4.44869C0.258477 5.86827 0.727187 7.18935 1.47291 8.40861C2.38621 9.90259 3.59328 11.0995 5.13348 11.9455C6.15926 12.5089 7.25029 12.873 8.42156 12.9782C8.44081 12.9799 8.45971 12.9858 8.47865 12.9917L8.47867 12.9917C8.48771 12.9945 8.49676 12.9974 8.50586 12.9997H9.06445C9.10932 12.9813 9.15481 12.964 9.20029 12.9468L9.20033 12.9467L9.20035 12.9467C9.30029 12.9088 9.40022 12.8708 9.49355 12.8207C9.92088 12.5915 10.2609 12.2576 10.5838 11.9013C10.8685 11.5873 10.9271 11.2366 10.8085 10.8413C10.6757 10.399 10.4554 10.0483 9.99578 9.85892C9.36559 9.59917 8.72955 9.36126 8.06812 9.19978C7.93863 9.16829 7.78197 9.19698 7.65096 9.23888C7.52578 9.27874 7.40873 9.36075 7.30412 9.44403C7.04615 9.64945 6.79326 9.86196 6.54697 10.0811C6.46978 10.1496 6.41037 10.1646 6.32887 10.1057C6.31303 10.0943 6.29539 10.0855 6.2777 10.0767C6.26503 10.0704 6.25233 10.064 6.24025 10.0567C5.14643 9.39071 4.21357 8.54952 3.47344 7.50115C3.11416 6.99232 2.79855 6.45835 2.57715 5.87259C2.54389 5.78499 2.54871 5.73091 2.62514 5.66845C2.7724 5.54835 2.91459 5.42064 3.04967 5.28683C3.21775 5.12027 3.38432 4.95117 3.53666 4.77064C3.67225 4.60992 3.73344 4.42177 3.68773 4.20341C3.66394 4.08971 3.64656 3.97465 3.62917 3.85959L3.62917 3.85959C3.61371 3.75729 3.59826 3.655 3.5783 3.55367C3.47394 3.023 3.36603 2.49208 3.15047 1.99265C3.09969 1.87509 3.0352 1.74179 2.93719 1.67095C2.74016 1.52851 2.52332 1.40638 2.30039 1.30863C2.00687 1.18015 1.70549 1.19031 1.42518 1.36525C1.05752 1.59478 0.719824 1.86214 0.434941 2.19121C0.214043 2.44689 0.01625 2.71476 0.0180273 3.07632C0.0180273 3.087 0.0124752 3.0978 0.00694649 3.10855ZM10.5424 6.60715H9.75C9.75584 5.68013 9.46562 4.86357 8.80344 4.20088C8.14074 3.53767 7.32545 3.24416 6.39437 3.25203V2.46162C8.57822 2.32425 10.6486 4.20925 10.5424 6.60715ZM7.29909 6.63484H8.10144C8.10468 6.62597 8.10771 6.61881 8.1103 6.61271C8.11481 6.60205 8.11797 6.5946 8.11845 6.58685C8.17025 5.63623 7.42706 4.85242 6.45282 4.87882C6.38782 4.8806 6.36395 4.90599 6.36345 4.97023C6.36269 5.10561 6.36052 5.24091 6.35834 5.37622C6.35684 5.4693 6.35534 5.56239 6.35431 5.65552C6.35413 5.66772 6.35912 5.67979 6.36388 5.69131C6.36596 5.69634 6.368 5.70127 6.36954 5.70605C6.88954 5.62505 7.37476 5.99322 7.29909 6.63484Z" fill="white"/>
</svg>
