<svg width="16" height="16" viewBox="0 0 16 16" fill="none" xmlns="http://www.w3.org/2000/svg">
<path fill-rule="evenodd" clip-rule="evenodd" d="M7.15775 0.842088C3.6697 0.842088 0.842088 3.6697 0.842088 7.15775C0.842088 10.6458 3.6697 13.4734 7.15775 13.4734C10.6458 13.4734 13.4734 10.6458 13.4734 7.15775C13.4734 3.6697 10.6458 0.842088 7.15775 0.842088ZM0 7.15775C0 3.20463 3.20463 0 7.15775 0C11.1109 0 14.3155 3.20463 14.3155 7.15775C14.3155 11.1109 11.1109 14.3155 7.15775 14.3155C3.20463 14.3155 0 11.1109 0 7.15775Z" fill="white"/>
<path fill-rule="evenodd" clip-rule="evenodd" d="M11.6184 11.6184C11.7829 11.454 12.0495 11.454 12.2139 11.6184L15.877 15.2815C16.0414 15.4459 16.0414 15.7125 15.877 15.877C15.7125 16.0414 15.4459 16.0414 15.2815 15.877L11.6184 12.2139C11.454 12.0495 11.454 11.7829 11.6184 11.6184Z" fill="white"/>
</svg>
