<svg width="22" height="22" viewBox="0 0 22 22" fill="none" xmlns="http://www.w3.org/2000/svg">
<path fill-rule="evenodd" clip-rule="evenodd" d="M11 20C6.02944 20 2 15.9706 2 11C2 6.02944 6.02944 2 11 2C15.9706 2 20 6.02944 20 11C20 15.9706 15.9706 20 11 20ZM0 11C0 17.0751 4.92487 22 11 22C17.0751 22 22 17.0751 22 11C22 4.92487 17.0751 0 11 0C4.92487 0 0 4.92487 0 11Z" fill="#25282B"/>
<path fill-rule="evenodd" clip-rule="evenodd" d="M11.7071 15.7071C12.0976 15.3166 12.0976 14.6834 11.7071 14.2929L8.41421 11L11.7071 7.70711C12.0976 7.31658 12.0976 6.68342 11.7071 6.29289C11.3166 5.90237 10.6834 5.90237 10.2929 6.29289L6.29289 10.2929C5.90237 10.6834 5.90237 11.3166 6.29289 11.7071L10.2929 15.7071C10.6834 16.0976 11.3166 16.0976 11.7071 15.7071Z" fill="#25282B"/>
<path fill-rule="evenodd" clip-rule="evenodd" d="M6 11C6 11.5523 6.44772 12 7 12L15 12C15.5523 12 16 11.5523 16 11C16 10.4477 15.5523 10 15 10L7 10C6.44772 10 6 10.4477 6 11Z" fill="#25282B"/>
</svg>
