<svg width="22" height="22" viewBox="0 0 22 22" fill="none" xmlns="http://www.w3.org/2000/svg">
<path fill-rule="evenodd" clip-rule="evenodd" d="M11 2C15.9706 2 20 6.02944 20 11C20 15.9706 15.9706 20 11 20C6.02944 20 2 15.9706 2 11C2 6.02944 6.02944 2 11 2ZM22 11C22 4.92487 17.0751 0 11 0C4.92487 0 0 4.92487 0 11C0 17.0751 4.92487 22 11 22C17.0751 22 22 17.0751 22 11Z" fill="#25282B"/>
<path fill-rule="evenodd" clip-rule="evenodd" d="M10.2929 6.29289C9.90237 6.68342 9.90237 7.31658 10.2929 7.70711L13.5858 11L10.2929 14.2929C9.90237 14.6834 9.90237 15.3166 10.2929 15.7071C10.6834 16.0976 11.3166 16.0976 11.7071 15.7071L15.7071 11.7071C16.0976 11.3166 16.0976 10.6834 15.7071 10.2929L11.7071 6.29289C11.3166 5.90237 10.6834 5.90237 10.2929 6.29289Z" fill="#25282B"/>
<path fill-rule="evenodd" clip-rule="evenodd" d="M16 11C16 10.4477 15.5523 10 15 10H7C6.44771 10 6 10.4477 6 11C6 11.5523 6.44771 12 7 12H15C15.5523 12 16 11.5523 16 11Z" fill="#25282B"/>
</svg>
